<svg width="42" height="43" viewBox="0 0 42 43" fill="none" xmlns="http://www.w3.org/2000/svg">
<g clip-path="url(#clip0)">
<path d="M27.9676 28.5454L29.3224 29.8741V29.9405H22.5482V29.8741L23.9031 28.5454C24.0321 28.4125 24.0966 28.2132 24.0966 28.0139V19.6433C24.0966 19.3111 24.0966 18.7797 24.1611 18.3811L19.5805 30.0734H19.516L14.7418 19.3111C14.6773 19.0454 14.6128 19.0454 14.5482 18.8461V25.8881C14.4837 26.3531 14.5482 26.8181 14.7418 27.2832L16.6773 29.8741V29.9405H11.645V29.8741L13.5805 27.2832C13.7741 26.8846 13.8386 26.3531 13.7741 25.8881V18.1153C13.7741 17.7167 13.7095 17.3846 13.4515 17.0524L12.0966 15.2587V15.1923H16.9353L20.9999 24.2937L24.5482 15.1923H29.2579V15.2587L27.9031 16.7867C27.774 16.9195 27.7095 17.1188 27.774 17.3181V28.0804C27.7095 28.2132 27.774 28.4125 27.9676 28.5454Z" fill="#fff"/>
</g>
<defs>
<clipPath id="clip0">
<rect width="20" height="19" fill="white" transform="translate(11 13)"/>
</clipPath>
</defs>
</svg>
