<svg width="41" height="41" viewBox="0 0 41 41" fill="none" xmlns="http://www.w3.org/2000/svg">
<circle cx="20.5" cy="20.5" r="20.5" fill="#2992FA"/>
<g clip-path="url(#clip0)">
<path d="M25.6674 9.12744H16.5467C15.6739 9.12744 14.9692 9.83523 14.9692 10.7065V29.2274C14.9692 30.0979 15.6739 30.8049 16.5467 30.8049H25.6674C26.5387 30.8049 27.2449 30.0979 27.2449 29.2274V10.7065C27.2449 9.83523 26.5387 9.12744 25.6674 9.12744ZM18.8565 10.0864H23.3592C23.4729 10.0864 23.5653 10.2563 23.5653 10.4664C23.5653 10.6765 23.4729 10.8471 23.3592 10.8471H18.8565C18.742 10.8471 18.6511 10.6765 18.6511 10.4664C18.6511 10.2563 18.742 10.0864 18.8565 10.0864ZM21.1078 29.2464C20.5525 29.2464 20.1007 28.7945 20.1007 28.2384C20.1007 27.6823 20.5525 27.232 21.1078 27.232C21.6616 27.232 22.1134 27.6823 22.1134 28.2384C22.1134 28.7945 21.6616 29.2464 21.1078 29.2464ZM26.0631 25.7951H16.1518V11.7919H26.0631V25.7951Z" fill="white" stroke="white"/>
</g>
<defs>
<clipPath id="clip0">
<rect width="21.6775" height="21.6775" fill="white" transform="translate(10.2681 9.12744)"/>
</clipPath>
</defs>
</svg>
