<svg width="63" height="64" viewBox="0 0 63 64" fill="none" xmlns="http://www.w3.org/2000/svg">
<path d="M14.793 31.0723L21.8784 33.7064L24.6211 42.491C24.7962 43.0538 25.4875 43.2616 25.9459 42.8882L29.8952 39.6814C30.3092 39.3454 30.8987 39.3285 31.3316 39.6416L38.4551 44.793C38.9456 45.1479 39.6403 44.8803 39.7634 44.2901L44.9819 19.2883C45.1161 18.6439 44.4799 18.1054 43.8634 18.3432L14.7851 29.5161C14.0673 29.7917 14.0733 30.8037 14.793 31.0723ZM24.1792 32.3042L38.0267 23.8092C38.2755 23.6572 38.5317 23.9922 38.318 24.1896L26.8893 34.7707C26.488 35.1431 26.2287 35.6416 26.1551 36.1824L25.7663 39.0558C25.7146 39.4397 25.1737 39.4776 25.0671 39.1066L23.5701 33.8665C23.3984 33.2687 23.6482 32.6306 24.1792 32.3042Z" fill="white"/>
</svg>
