<svg width="63" height="65" viewBox="0 0 63 65" fill="none" xmlns="http://www.w3.org/2000/svg">
<path d="M45.75 23.0505C44.6748 23.5471 43.5167 23.8839 42.3039 24.0342C43.543 23.2597 44.4935 22.0354 44.9438 20.5762C43.7835 21.2912 42.4985 21.8122 41.1323 22.0925C40.0376 20.8769 38.4772 20.1188 36.7508 20.1188C33.4357 20.1188 30.7504 22.9189 30.7504 26.3692C30.7504 26.8587 30.8024 27.3372 30.9053 27.7946C25.9185 27.533 21.4957 25.0447 18.5368 21.2615C18.0188 22.1858 17.7239 23.2598 17.7239 24.4048C17.7239 26.5744 18.7835 28.4887 20.3919 29.6087C19.4084 29.5767 18.4842 29.2946 17.6735 28.8255C17.6735 28.8529 17.6735 28.878 17.6735 28.9054C17.6735 31.9327 19.7429 34.4595 22.4875 35.0335C21.9851 35.1768 21.4543 35.2543 20.9077 35.2543C20.5211 35.2543 20.1452 35.2153 19.7777 35.1424C20.543 37.6261 22.7588 39.4331 25.3855 39.4832C23.3312 41.1609 20.7439 42.158 17.9315 42.158C17.4459 42.158 16.9676 42.1307 16.5 42.0718C19.1551 43.8452 22.3087 44.8807 25.6976 44.8807C36.7358 44.8807 42.7738 35.354 42.7738 27.0937C42.7738 26.8227 42.7671 26.5541 42.7565 26.2855C43.9296 25.4042 44.9461 24.3028 45.75 23.0505Z" fill="white"/>
</svg>
