<svg width="29" height="29" viewBox="0 0 29 29" fill="none" xmlns="http://www.w3.org/2000/svg">
<rect x="0.324951" width="28.675" height="28.675" rx="7" fill="#FCD846"/>
<path d="M20.4295 8.33289C20.4228 8.32949 20.4164 8.32533 20.4105 8.32054C18.9096 7.09301 17.1368 6.47925 15.2961 6.47925C13.2467 6.47925 11.2657 7.23235 9.83121 8.6701C8.32837 10.1078 7.44033 11.9564 7.30371 14.0103C7.30371 14.1237 7.39567 14.2157 7.5091 14.2157H8.05467C8.1681 14.2157 8.26006 14.1237 8.26006 14.0103C8.5333 10.3132 11.6073 7.43775 15.2961 7.43775C16.9355 7.43775 18.5067 7.98546 19.8046 9.01242C19.8423 9.05021 19.9035 9.05021 19.9412 9.01242L20.4561 8.49635C20.5053 8.44706 20.4918 8.36408 20.4295 8.33289Z" fill="black"/>
<path d="M19.4687 17.4852C19.4649 17.4964 19.4596 17.507 19.4528 17.5167C18.4955 18.8767 16.9295 19.6244 15.2278 19.6244C12.3587 19.6244 10.0362 17.2967 10.0362 14.4212C10.0362 11.6141 12.3587 9.28636 15.2278 9.28636C16.8672 9.28636 18.4384 10.1079 19.4631 11.4087C19.5008 11.4465 19.562 11.4465 19.5997 11.4087L20.1462 10.861C20.1839 10.8232 20.1839 10.7619 20.1462 10.7241C18.9849 9.2179 17.1405 8.2594 15.2278 8.2594C11.8806 8.2594 9.07983 10.998 9.07983 14.3527C9.07983 17.7074 11.8123 20.5145 15.2278 20.5145C17.1383 20.5145 18.9806 19.6265 20.1422 18.0552C20.1448 18.0516 20.1477 18.0482 20.1509 18.045C20.186 18.0098 20.186 17.9528 20.1509 17.9176L19.6717 17.4373C19.6073 17.3727 19.4974 17.3986 19.4687 17.4852Z" fill="black"/>
<path d="M21.5185 9.42948C21.5144 9.42537 21.5107 9.42087 21.5075 9.41604C21.3741 9.2155 21.2399 9.01573 21.0414 8.88046C21.0366 8.87721 21.0321 8.87353 21.028 8.86943C20.9937 8.83505 20.938 8.83505 20.9037 8.86943L20.351 9.4233C20.3133 9.46114 20.3133 9.5224 20.351 9.56023C20.5535 9.76319 20.6893 9.8993 20.8244 10.1007C20.8276 10.1055 20.8313 10.11 20.8353 10.1141C20.8697 10.1485 20.9254 10.1485 20.9597 10.1141L21.5185 9.55405C21.5528 9.51963 21.5528 9.4639 21.5185 9.42948Z" fill="black"/>
<path d="M19.7982 19.9041C19.765 19.8642 19.7047 19.8615 19.668 19.8982C18.3701 20.9252 16.8673 21.5414 15.1595 21.5414C11.4707 21.5414 8.39675 18.6659 8.12351 14.9688C8.12351 14.8554 8.03155 14.7634 7.91812 14.7634H7.50933C7.35808 14.7634 7.23547 14.886 7.23547 15.0373C7.37209 17.0912 8.26013 19.0082 9.76297 20.3775C11.2658 21.7468 13.1785 22.5683 15.2278 22.5683C17.0722 22.5683 18.9166 21.8837 20.3511 20.7198C20.3898 20.681 20.3926 20.6191 20.3576 20.577L19.7982 19.9041Z" fill="black"/>
<path d="M20.9597 18.7967C20.9254 18.7623 20.8697 18.7623 20.8353 18.7967C20.8313 18.8008 20.8276 18.8053 20.8244 18.8101C20.6893 19.0115 20.5535 19.1476 20.351 19.3506C20.3133 19.3884 20.3133 19.4496 20.351 19.4875L20.8975 20.0352C20.9352 20.073 20.9964 20.073 21.0341 20.0352C21.2391 19.8298 21.3757 19.6244 21.5123 19.4875C21.5501 19.4496 21.5501 19.3884 21.5123 19.3506L20.9597 18.7967Z" fill="black"/>
<path d="M22.0589 20.1036C20.4194 22.1575 17.9602 23.3214 15.2961 23.3214C10.4461 23.3214 6.48406 19.3505 6.48406 14.4896C6.48406 9.62862 10.3778 5.58923 15.2961 5.58923C17.9602 5.58923 20.4194 6.75312 22.0589 8.80705C22.0966 8.84483 22.1578 8.84483 22.1955 8.80705L22.77 8.23127C22.7849 8.21635 22.7743 8.19087 22.7532 8.19087C22.7461 8.19087 22.7394 8.18766 22.7349 8.18215C20.8906 5.92821 18.1615 4.63074 15.2961 4.63074C9.89959 4.63074 5.52771 9.01244 5.52771 14.4211C5.52771 19.8298 9.89959 24.2115 15.2961 24.2115C18.1652 24.2115 20.8976 22.9107 22.8103 20.7198C22.8481 20.682 22.8481 20.6207 22.8103 20.5829L22.3321 20.1036C22.2567 20.0281 22.1343 20.0281 22.0589 20.1036Z" fill="black"/>
</svg>
