<svg width="13" height="13" viewBox="0 0 13 13" fill="none" xmlns="http://www.w3.org/2000/svg">
<path d="M0.295072 12.6949C0.485337 12.8856 0.751708 13 1.01808 13C1.28445 13 1.53179 12.9047 1.74108 12.6949L6.4977 7.92776L11.2543 12.6949C11.4446 12.8856 11.711 13 11.9773 13C12.2437 13 12.491 12.9047 12.7003 12.6949C13.0999 12.2945 13.0999 11.6461 12.7003 11.2648L7.94372 6.49762L12.7003 1.73047C13.0999 1.33003 13.0999 0.681702 12.7003 0.30033C12.3008 -0.10011 11.6729 -0.10011 11.2733 0.30033L6.51673 5.06747L1.76011 0.30033C1.36056 -0.10011 0.732682 -0.10011 0.333126 0.30033C-0.0664304 0.70077 -0.0664304 1.3491 0.333126 1.73047L5.08974 6.49762L0.333126 11.2648C-0.104483 11.6652 -0.104483 12.2945 0.295072 12.6949Z" fill="#E73030"/>
</svg>
