<svg width="17" height="17" viewBox="0 0 17 17" fill="none" xmlns="http://www.w3.org/2000/svg">
<g clip-path="url(#clip0)">
<path d="M16.2274 0H10.0456C9.61885 0 9.27288 0.345977 9.27288 0.772736C9.27288 1.1995 9.61885 1.54547 10.0456 1.54547H14.3619L6.40834 9.49908C6.10656 9.80087 6.10656 10.2901 6.40834 10.5919C6.55919 10.7427 6.75694 10.8182 6.9547 10.8182C7.15246 10.8182 7.35025 10.7428 7.50113 10.5918L15.4547 2.63825V6.95456C15.4547 7.38132 15.8007 7.7273 16.2275 7.7273C16.6542 7.7273 17.0002 7.38132 17.0002 6.95456V0.772736C17.0002 0.345977 16.6542 0 16.2274 0Z" fill="white"/>
<path d="M13.1364 7.72717C12.7096 7.72717 12.3636 8.07315 12.3636 8.49991V15.4545H1.54544V4.63626H8.5C8.92676 4.63626 9.27274 4.29028 9.27274 3.86352C9.27274 3.43676 8.92676 3.09082 8.5 3.09082H0.772736C0.345977 3.09082 0 3.4368 0 3.86356V16.2272C0 16.6539 0.345977 16.9999 0.772736 16.9999H13.1364C13.5631 16.9999 13.9091 16.6539 13.9091 16.2272V8.49991C13.9091 8.07315 13.5631 7.72717 13.1364 7.72717Z" fill="white"/>
</g>
<defs>
<clipPath id="clip0">
<rect width="17" height="17" fill="white"/>
</clipPath>
</defs>
</svg>
