<svg width="18" height="18" viewBox="0 0 18 18" fill="none" xmlns="http://www.w3.org/2000/svg">
<g clip-path="url(#clip0)">
<path d="M0.0156975 6.82589C0.0530243 6.71138 0.152039 6.62786 0.271297 6.61047L5.99381 5.77882L8.55296 0.593446C8.60611 0.48526 8.71619 0.416931 8.8364 0.416931C8.95661 0.416931 9.06701 0.48526 9.11984 0.593446L11.6793 5.77914L17.4018 6.61078C17.5211 6.62818 17.6198 6.71138 17.6574 6.82621C17.6944 6.9404 17.6637 7.06631 17.5774 7.15013L13.4362 11.1866L14.414 16.8863C14.4343 17.0049 14.3856 17.1248 14.2884 17.1957C14.1907 17.2672 14.0613 17.2764 13.9553 17.2197L8.8364 14.529L3.71809 17.2197C3.67191 17.2441 3.62097 17.2561 3.57068 17.2561C3.50519 17.2561 3.44003 17.2359 3.38467 17.1957C3.28724 17.1248 3.23853 17.0049 3.25909 16.8863L4.23656 11.1869L0.0954132 7.15013C0.0093689 7.06567 -0.0216312 6.94009 0.0156975 6.82589Z" fill="#FCD846"/>
</g>
<defs>
<clipPath id="clip0">
<rect width="17.6727" height="17.6727" fill="white" transform="matrix(-1 0 0 1 17.6729 0)"/>
</clipPath>
</defs>
</svg>
