<svg width="42" height="43" viewBox="0 0 42 43" fill="none" xmlns="http://www.w3.org/2000/svg">
<path d="M9.86202 20.8767L14.5856 22.6464L16.4141 28.5486C16.5308 28.9267 16.9916 29.0663 17.2973 28.8155L19.9301 26.6609C20.2061 26.4351 20.5991 26.4238 20.8878 26.6341L25.6367 30.0952C25.9637 30.3337 26.4268 30.1539 26.5089 29.7573L29.9879 12.9593C30.0774 12.5263 29.6533 12.1645 29.2423 12.3243L9.85672 19.831C9.37821 20.0162 9.38223 20.6962 9.86202 20.8767ZM16.1195 21.7043L25.3511 15.9968C25.517 15.8946 25.6878 16.1197 25.5453 16.2523L17.9262 23.3615C17.6587 23.6117 17.4858 23.9466 17.4368 24.31L17.1775 26.2406C17.1431 26.4985 16.7825 26.5239 16.7114 26.2747L15.7134 22.754C15.5989 22.3524 15.7655 21.9236 16.1195 21.7043Z" fill="#262A3C"/>
</svg>
