<svg width="42" height="43" viewBox="0 0 42 43" fill="none" xmlns="http://www.w3.org/2000/svg">
<path d="M30.5002 15.2488C29.7834 15.5773 29.0114 15.8001 28.2028 15.8995C29.0289 15.3872 29.6626 14.5772 29.9628 13.6119C29.1892 14.0849 28.3326 14.4296 27.4218 14.615C26.6919 13.8109 25.6517 13.3093 24.5008 13.3093C22.2907 13.3093 20.5005 15.1617 20.5005 17.4442C20.5005 17.7681 20.5352 18.0846 20.6038 18.3872C17.2792 18.2141 14.3307 16.568 12.3581 14.0653C12.0128 14.6767 11.8162 15.3872 11.8162 16.1447C11.8162 17.58 12.5225 18.8463 13.5948 19.5873C12.9392 19.5661 12.3231 19.3795 11.7826 19.0692C11.7826 19.0873 11.7826 19.1039 11.7826 19.122C11.7826 21.1247 13.1622 22.7962 14.9919 23.176C14.657 23.2708 14.3031 23.3221 13.9387 23.3221C13.681 23.3221 13.4304 23.2963 13.1854 23.248C13.6956 24.8911 15.1728 26.0865 16.9239 26.1196C15.5544 27.2295 13.8295 27.8891 11.9546 27.8891C11.6309 27.8891 11.312 27.871 11.0002 27.8321C12.7703 29.0052 14.8727 29.6903 17.132 29.6903C24.4908 29.6903 28.5161 23.388 28.5161 17.9235C28.5161 17.7442 28.5117 17.5666 28.5045 17.3888C29.2866 16.8059 29.9643 16.0772 30.5002 15.2488Z" fill="#262A3C"/>
</svg>
