<svg width="33" height="33" viewBox="0 0 33 33" fill="none" xmlns="http://www.w3.org/2000/svg">
<circle cx="16.2554" cy="16.2554" r="16.2554" fill="white" fill-opacity="0.3"/>
<g clip-path="url(#clip0)">
<path d="M21.7113 13.6552C21.0756 13.4039 20.3434 13.407 19.5148 13.6646C20.1586 12.6444 20.0893 11.6034 19.3073 10.5412C19.0268 10.1541 18.703 9.86666 18.3352 9.67847C17.9672 9.4903 17.5681 9.40039 17.1369 9.40923C16.7057 9.41769 16.2723 9.48664 15.8372 9.61518C15.402 9.74377 14.9265 9.93196 14.411 10.1797L13.0184 7.83619L11.5864 8.68714L12.9403 10.9655C12.6923 11.1129 12.3178 11.3438 11.8169 11.6582L10.4519 9.36128L9.01975 10.2124L10.4124 12.5558C10.2114 12.6837 9.91265 12.8655 9.51589 13.1012L7.53888 14.2634L8.44519 15.7885L9.47736 15.1752C9.94854 14.8952 10.3497 14.9421 10.6808 15.3157L12.2668 17.9847C12.3289 17.9478 12.3803 17.9215 12.4213 17.9056L12.2724 17.9941L14.4938 21.7323C14.6321 22.0778 14.5464 22.3429 14.2364 22.5271L13.2043 23.1404L13.9273 25.0136L15.7872 23.9083C15.905 23.8383 16.0763 23.7386 16.3013 23.6088C16.5263 23.4793 16.6945 23.3814 16.8061 23.3151L18.2153 25.6864L19.6477 24.8352L18.2551 22.4918C18.5192 22.3434 18.8992 22.1217 19.3951 21.827L20.7821 24.1611L22.2142 23.3101L20.805 20.9388C21.2988 20.6118 21.7223 20.2976 22.0751 19.9953C22.4281 19.6929 22.7414 19.3623 23.0143 19.0029C23.2872 18.6437 23.48 18.2836 23.5928 17.9229C23.7059 17.5624 23.7416 17.1677 23.701 16.7387C23.6598 16.3101 23.5305 15.8627 23.3121 15.3967C22.8811 14.4871 22.3473 13.9066 21.7113 13.6552ZM12.8393 13.3154C12.8827 13.2896 13.0042 13.2152 13.2039 13.0924C13.4036 12.9694 13.5691 12.8669 13.7005 12.7846C13.832 12.7023 14.0164 12.6032 14.2538 12.4873C14.4911 12.3714 14.6965 12.283 14.8699 12.2219C15.0432 12.1607 15.2442 12.1105 15.4724 12.0714C15.7009 12.032 15.9012 12.0305 16.0734 12.0665C16.2459 12.1024 16.4178 12.1765 16.5891 12.2886C16.7607 12.4006 16.9072 12.5589 17.0287 12.7634C17.1319 12.937 17.198 13.1117 17.2271 13.2875C17.2562 13.4631 17.2432 13.6324 17.1888 13.7947C17.1345 13.9571 17.0693 14.1091 16.9938 14.2504C16.9185 14.3915 16.8021 14.5383 16.6451 14.6903C16.4881 14.8424 16.3487 14.9714 16.2271 15.0771C16.1054 15.183 15.9451 15.3014 15.746 15.4322C15.5469 15.5631 15.3956 15.6615 15.2921 15.7272C15.1885 15.7929 15.0444 15.8785 14.8596 15.9842C14.6748 16.0899 14.567 16.1517 14.5359 16.1702L12.8394 13.3153L12.8393 13.3153L12.8393 13.3154ZM20.5132 17.3243C20.5389 17.5021 20.5368 17.6712 20.5065 17.8319C20.476 17.9924 20.4088 18.1583 20.3048 18.329C20.201 18.4999 20.0922 18.6525 19.9792 18.7868C19.8661 18.9213 19.7197 19.0668 19.5406 19.2237C19.3609 19.3808 19.1999 19.512 19.0572 19.6179C18.9146 19.7237 18.7406 19.8437 18.5354 19.9784C18.3301 20.1128 18.1685 20.2152 18.0507 20.2851C17.9329 20.3551 17.7831 20.4419 17.6015 20.5457C17.4199 20.6497 17.3044 20.7162 17.2547 20.7457L15.3868 17.6024C15.4363 17.573 15.5818 17.4824 15.823 17.3305C16.0642 17.1787 16.2623 17.0571 16.4174 16.965C16.5723 16.8729 16.7917 16.7549 17.0758 16.6114C17.3594 16.4679 17.6053 16.3594 17.8135 16.2859C18.0216 16.2127 18.2585 16.1494 18.5249 16.0961C18.7909 16.0428 19.0254 16.0314 19.2282 16.0619C19.431 16.0926 19.6302 16.1669 19.8264 16.2853C20.0227 16.4034 20.1871 16.5742 20.3197 16.7975C20.423 16.9713 20.4874 17.1466 20.5132 17.3243Z" fill="white"/>
</g>
<defs>
<clipPath id="clip0">
<rect width="18" height="18" fill="white" transform="translate(4 13.1953) rotate(-30.7209)"/>
</clipPath>
</defs>
</svg>
