<svg width="33" height="33" viewBox="0 0 33 33" fill="none" xmlns="http://www.w3.org/2000/svg">
<circle cx="16.2554" cy="16.2554" r="16.2554" fill="white" fill-opacity="0.2"/>
<g clip-path="url(#clip0)">
<path d="M21.9909 16.4433C21.5727 15.9025 20.9417 15.5311 20.0978 15.3292C21.1724 14.7811 21.6447 13.8508 21.515 12.5381C21.4717 12.0621 21.3401 11.6496 21.1201 11.2999C20.8999 10.9501 20.6027 10.669 20.2274 10.4563C19.8525 10.2433 19.4447 10.0812 19.005 9.96939C18.5652 9.85761 18.0602 9.77646 17.4905 9.72603V7H15.8248V9.65029C15.5363 9.65029 15.0964 9.65749 14.5051 9.67192V7H12.8392V9.72603C12.6011 9.73326 12.2514 9.73694 11.7899 9.73694L9.49661 9.72603V11.5001H10.6973C11.2454 11.5001 11.5663 11.7454 11.66 12.2357V15.3404C11.7322 15.3404 11.7899 15.3441 11.8332 15.3513H11.66V19.6998C11.6024 20.0675 11.3933 20.2515 11.0327 20.2515H9.83208L9.49669 22.2312H11.6602C11.7973 22.2312 11.9955 22.233 12.2552 22.2362C12.5148 22.2399 12.7094 22.2417 12.8392 22.2417V25.0001H14.5055V22.2741C14.8083 22.2815 15.2482 22.285 15.8251 22.285V25.0001H17.4909V22.2417C18.0824 22.2129 18.607 22.1591 19.0647 22.0795C19.5227 21.9999 19.9609 21.8757 20.3791 21.7061C20.7972 21.5367 21.1469 21.3257 21.4281 21.0732C21.7095 20.8211 21.9419 20.5 22.1261 20.1105C22.3097 19.721 22.427 19.2703 22.4774 18.7581C22.5715 17.756 22.4092 16.9842 21.9909 16.4433ZM14.5375 11.6188C14.588 11.6188 14.7305 11.617 14.9648 11.6133C15.1993 11.6096 15.394 11.6061 15.549 11.6024C15.7041 11.5989 15.9132 11.6079 16.1766 11.6295C16.4398 11.6512 16.6615 11.6801 16.8417 11.7161C17.022 11.7521 17.2205 11.8116 17.4366 11.8945C17.6532 11.9774 17.8261 12.0784 17.9558 12.1974C18.0857 12.3163 18.1957 12.4679 18.2856 12.6518C18.3759 12.8356 18.421 13.0466 18.421 13.2845C18.421 13.4865 18.3886 13.6704 18.3238 13.8364C18.259 14.0022 18.1614 14.1411 18.0318 14.2528C17.9021 14.3646 17.7684 14.4621 17.6314 14.545C17.4945 14.6278 17.3194 14.6946 17.1068 14.745C16.8941 14.7955 16.7084 14.8352 16.5499 14.864C16.3912 14.8929 16.1929 14.9127 15.9549 14.9235C15.7169 14.9343 15.5365 14.9416 15.414 14.9452C15.2913 14.9487 15.1237 14.9487 14.9109 14.9452C14.698 14.9416 14.5738 14.9397 14.5376 14.9397V11.6188H14.5375V11.6188ZM19.0865 18.9854C19.0178 19.1514 18.9296 19.2957 18.8215 19.4184C18.7132 19.5407 18.5707 19.649 18.3941 19.7427C18.2175 19.8365 18.0461 19.9121 17.8803 19.9698C17.7144 20.0278 17.5142 20.078 17.28 20.1214C17.0454 20.1647 16.84 20.1952 16.6631 20.2133C16.4865 20.2314 16.2756 20.2457 16.0304 20.2567C15.7852 20.2673 15.594 20.2728 15.4571 20.2728C15.32 20.2728 15.1469 20.2708 14.9378 20.2673C14.7285 20.2639 14.5952 20.2621 14.5375 20.2621V16.6056C14.5951 16.6056 14.7664 16.6021 15.0513 16.5947C15.3363 16.5875 15.5687 16.5841 15.749 16.5841C15.9293 16.5841 16.1782 16.5947 16.4956 16.6165C16.8128 16.638 17.0796 16.6703 17.2961 16.7136C17.5124 16.7569 17.7484 16.8236 18.0046 16.9138C18.2606 17.0039 18.468 17.1139 18.6267 17.2437C18.7854 17.3737 18.9187 17.5393 19.0269 17.7413C19.1353 17.9432 19.1893 18.174 19.1893 18.4337C19.1893 18.6358 19.1551 18.8194 19.0865 18.9854Z" fill="white"/>
</g>
<defs>
<clipPath id="clip0">
<rect width="18" height="18" fill="white" transform="translate(7 7)"/>
</clipPath>
</defs>
</svg>
