<svg width="33" height="33" viewBox="0 0 33 33" fill="none" xmlns="http://www.w3.org/2000/svg">
<circle cx="16.2554" cy="16.2554" r="16.2554" fill="#262A3C" fill-opacity="0.12"/>
<path d="M18.5455 14.3042C18.8364 14.5167 18.9091 15.0125 18.6909 15.2958C18.4727 15.5792 17.9636 15.65 17.6727 15.4375C17.3091 15.1542 17.0909 15.0833 16.7273 15.0833C15.8545 15.0833 15.2727 15.7208 15.2727 16.5C15.2727 17.2792 15.8545 17.9167 16.7273 17.9167C16.9455 17.9167 17.1636 17.8458 17.3818 17.775C17.4545 17.7042 17.5273 17.7042 17.6727 17.5625C18.0364 17.35 18.4727 17.4208 18.6909 17.775C18.9091 18.1292 18.8364 18.5542 18.4727 18.7667C18.3273 18.8375 18.2545 18.9083 18.0364 19.05C17.6727 19.1917 17.2364 19.3333 16.7273 19.3333C15.0545 19.3333 13.8182 18.0583 13.8182 16.5C13.8182 14.9417 15.0545 13.6667 16.7273 13.6667C17.4545 13.6667 18.0364 13.8792 18.5455 14.3042ZM11.1273 17.7042C11.0545 17.35 11.2727 16.925 11.6364 16.8542C12 16.7833 12.4364 16.9958 12.5091 17.35C12.9455 18.9792 14.1091 20.0417 15.4909 20.4667C16.5818 20.75 17.6727 20.6792 18.6182 20.2542C18.9818 20.1125 19.4182 20.2542 19.5636 20.6083C19.7091 20.9625 19.5636 21.3875 19.2 21.5292C17.8909 22.1667 16.5091 22.3083 15.0545 21.8833C13.2364 21.3167 11.6364 19.8292 11.1273 17.7042ZM20 19.1917C20.2909 18.9083 20.7273 18.8375 21.0182 19.1208C21.3091 19.4042 21.3818 19.8292 21.0909 20.1125L20.9455 20.2542C20.6545 20.5375 20.2182 20.6083 19.9273 20.325C19.6364 20.0417 19.6364 19.6167 19.8545 19.3333L20 19.1917ZM23.4909 11.1167C23.7818 11.4 23.7091 11.8958 23.4182 12.1083C23.1273 12.3917 22.6182 12.3208 22.4 12.0375C20.9455 10.3375 18.9091 9.41667 16.7273 9.41667C12.8 9.41667 9.45455 12.4625 9.45455 16.5C9.45455 20.5375 12.8727 23.5833 16.7273 23.5833C18.8364 23.5833 20.6545 22.8042 22.4 20.9625C22.6909 20.6792 23.1273 20.6792 23.4182 20.8917C23.7091 21.175 23.7091 21.6 23.4909 21.8833C21.5273 24.0083 19.2727 25 16.7273 25C12.0727 25 8 21.3167 8 16.5C8 11.6833 12.0727 8 16.7273 8C19.3455 8 21.8182 9.13333 23.4909 11.1167ZM11.1273 15.2958C11.6364 13.1708 13.2364 11.6833 15.0545 11.1875C16.5091 10.7625 17.9636 10.9042 19.2 11.5417C19.5636 11.6833 19.7091 12.1083 19.5636 12.4625C19.4182 12.8167 18.9818 12.9583 18.6182 12.8167C17.6727 12.3208 16.5818 12.25 15.4909 12.6042C14.1091 13.0292 12.9455 14.0917 12.5091 15.7208C12.4364 16.075 12 16.3583 11.6364 16.2167C11.2727 16.075 10.9818 15.65 11.1273 15.2958ZM20 13.95C20.2909 14.2333 20.7273 14.3042 21.0182 14.0208C21.3091 13.7375 21.3818 13.3125 21.0909 13.0292L20.9455 12.8875C20.6545 12.6042 20.2182 12.5333 19.9273 12.8167C19.6364 13.1 19.5636 13.525 19.8545 13.8083L20 13.95Z" fill="#262A3C"/>
</svg>
