<svg width="33" height="33" viewBox="0 0 33 33" fill="none" xmlns="http://www.w3.org/2000/svg">
<circle cx="16.2554" cy="16.2554" r="16.2554" fill="black" fill-opacity="0.12"/>
<path d="M13.7485 22.7122C10.0461 21.2507 8.2923 17.0612 9.75377 13.4562C10.4358 11.605 11.8973 10.2409 13.7485 9.46148C14.1382 9.36405 14.3331 8.97432 14.3331 8.58459V8.38973C14.3331 8.19486 14.1382 8 13.9433 8H13.8459C10.3384 9.16918 8 12.4819 8 16.0868C8 19.7893 10.3384 23.0045 13.8459 24.1737H13.9433C14.1382 24.1737 14.4305 23.9788 14.4305 23.784V23.5891C14.2356 23.1994 14.0408 22.9071 13.7485 22.7122Z" fill="white"/>
<path d="M19.6918 17.8411C19.6918 16.5745 19.0098 15.8924 17.256 15.5027L16.2817 15.3079C15.3074 15.113 14.8202 14.7233 14.8202 14.2361C14.8202 13.7489 15.4048 13.0669 16.3791 13.0669C16.9637 12.9695 17.6457 13.3592 17.938 13.8464C18.0355 14.1387 18.3277 14.3335 18.62 14.3335H19.1072C19.3021 14.2361 19.4969 14.0412 19.3995 13.8464C19.1072 12.7746 18.2303 11.9952 17.0611 11.8977V11.2157C17.0611 10.826 16.7688 10.5337 16.3791 10.5337C15.9894 10.5337 15.6971 10.826 15.6971 11.2157V11.8977C14.4305 11.9952 13.3587 12.9695 13.2613 14.3335C13.2613 15.5027 13.9433 16.2822 15.5022 16.5745L16.574 16.8668C17.6457 17.0616 18.0355 17.4514 18.0355 18.0359C18.0355 18.6205 17.256 19.2051 16.2817 19.2051C15.6971 19.2051 15.0151 18.9128 14.7228 18.3282C14.6253 18.1334 14.4305 17.9385 14.1382 17.9385H13.5536C13.3587 17.9385 13.2613 18.1334 13.2613 18.3282C13.5536 19.4974 14.6253 20.3743 15.7945 20.3743V21.1538C15.7945 21.5435 16.0868 21.8358 16.4765 21.8358C16.8663 21.8358 17.1586 21.5435 17.1586 21.1538V20.3743C18.5226 20.2769 19.6918 19.2051 19.6918 17.8411Z" fill="white"/>
<path d="M19.2046 8H19.1072C18.8149 8 18.6201 8.19486 18.6201 8.48716V8.58459C18.6201 8.97432 18.8149 9.26661 19.2046 9.46148C22.9071 10.923 24.6608 15.1125 23.1994 18.8149C22.5173 20.5687 21.0559 22.0302 19.2046 22.8096C18.8149 23.0045 18.6201 23.2968 18.6201 23.6865V23.8814C18.6201 24.1737 18.8149 24.3686 19.1072 24.3686H19.2046C22.7122 23.1994 25.0506 19.8867 25.0506 16.2817C25.0506 12.4819 22.6148 9.16918 19.2046 8Z" fill="white"/>
</svg>
