<svg width="105" height="21" viewBox="0 0 105 21" fill="none" xmlns="http://www.w3.org/2000/svg">
<path d="M36.458 3.238V16H41.39C43.784 16 45.332 14.506 45.332 12.436C45.332 10.852 44.324 9.718 43.082 9.412C44.144 9.052 44.936 7.99 44.936 6.676C44.936 4.696 43.532 3.238 41.048 3.238H36.458ZM38.906 8.512V5.326H40.652C41.858 5.326 42.488 5.938 42.488 6.91C42.488 7.882 41.804 8.512 40.67 8.512H38.906ZM38.906 13.93V10.564H40.958C42.2 10.564 42.848 11.266 42.848 12.274C42.848 13.3 42.128 13.93 40.922 13.93H38.906ZM49.6583 16V7.144H47.2643V16H49.6583ZM46.9763 4.246C46.9763 5.038 47.6423 5.704 48.4523 5.704C49.2803 5.704 49.9283 5.038 49.9283 4.246C49.9283 3.418 49.2803 2.752 48.4523 2.752C47.6423 2.752 46.9763 3.418 46.9763 4.246ZM54.6154 10.906C54.6154 9.88 55.2274 9.07 56.2714 9.07C57.4234 9.07 57.9094 9.844 57.9094 10.834V16H60.3034V10.42C60.3034 8.476 59.2954 6.91 57.0994 6.91C56.1454 6.91 55.0834 7.324 54.5434 8.242V7.144H52.2214V16H54.6154V10.906ZM62.1931 13.588C62.1931 14.974 63.3451 16.252 65.2351 16.252C66.5491 16.252 67.3951 15.64 67.8451 14.938C67.8451 15.28 67.8811 15.766 67.9351 16H70.1311C70.0771 15.694 70.0231 15.064 70.0231 14.596V10.24C70.0231 8.458 68.9791 6.874 66.1711 6.874C63.7951 6.874 62.5171 8.404 62.3731 9.79L64.4971 10.24C64.5691 9.466 65.1451 8.8 66.1891 8.8C67.1971 8.8 67.6831 9.322 67.6831 9.952C67.6831 10.258 67.5211 10.51 67.0171 10.582L64.8391 10.906C63.3631 11.122 62.1931 12.004 62.1931 13.588ZM65.7391 14.47C64.9651 14.47 64.5871 13.966 64.5871 13.444C64.5871 12.76 65.0731 12.418 65.6851 12.328L67.6831 12.022V12.418C67.6831 13.984 66.7471 14.47 65.7391 14.47ZM74.8302 10.906C74.8302 9.88 75.4422 9.07 76.4862 9.07C77.6382 9.07 78.1242 9.844 78.1242 10.834V16H80.5182V10.42C80.5182 8.476 79.5102 6.91 77.3142 6.91C76.3602 6.91 75.2982 7.324 74.7582 8.242V7.144H72.4362V16H74.8302V10.906ZM86.9259 9.088C88.1139 9.088 88.6719 9.844 88.8879 10.582L91.0299 9.862C90.6519 8.368 89.2839 6.874 86.8719 6.874C84.2979 6.874 82.2819 8.836 82.2819 11.572C82.2819 14.29 84.3339 16.27 86.9439 16.27C89.3019 16.27 90.6879 14.758 91.0839 13.282L88.9779 12.58C88.7799 13.264 88.1679 14.074 86.9439 14.074C85.7199 14.074 84.6759 13.174 84.6759 11.572C84.6759 9.97 85.7019 9.088 86.9259 9.088ZM94.5025 10.564C94.5565 9.754 95.2405 8.818 96.4825 8.818C97.8505 8.818 98.4265 9.682 98.4625 10.564H94.5025ZM98.6965 12.868C98.4085 13.66 97.7965 14.218 96.6805 14.218C95.4925 14.218 94.5025 13.372 94.4485 12.202H100.785C100.785 12.166 100.821 11.806 100.821 11.464C100.821 8.62 99.1825 6.874 96.4465 6.874C94.1785 6.874 92.0905 8.71 92.0905 11.536C92.0905 14.524 94.2325 16.27 96.6625 16.27C98.8405 16.27 100.245 14.992 100.695 13.462L98.6965 12.868Z" fill="black"/>
<g clip-path="url(#clip0)">
<path d="M6.11608 8.4042L10.0001 4.5203L13.8861 8.4062L16.1461 6.1462L10.0001 0L3.85618 6.1442L6.11608 8.4042ZM0.000244141 9.99969L2.26031 7.73962L4.52023 9.99955L2.26018 12.2596L0.000244141 9.99969ZM6.11608 11.5958L10.0001 15.4797L13.886 11.5939L16.1472 13.8527L16.1461 13.8539L10.0001 20L3.85598 13.856L3.85278 13.8528L6.11608 11.5958ZM15.4803 10.0009L17.7404 7.74087L20.0003 10.0008L17.7402 12.2609L15.4803 10.0009Z" fill="black"/>
<path d="M12.292 9.99887H12.293L9.99972 7.70557L8.30492 9.40037H8.30482L8.11012 9.59517L7.70852 9.99687L7.70532 9.99997L7.70852 10.0033L9.99972 12.2946L12.293 10.0013L12.2941 9.99997L12.292 9.99887Z" fill="black"/>
</g>
<defs>
<clipPath id="clip0">
<rect width="20" height="20" fill="white"/>
</clipPath>
</defs>
</svg>
