<svg width="97" height="18" viewBox="0 0 97 18" fill="none" xmlns="http://www.w3.org/2000/svg">
<path d="M7.236 14.27C10.818 14.27 12.654 11.894 13.14 9.932L10.818 9.23C10.476 10.418 9.414 11.84 7.236 11.84C5.184 11.84 3.276 10.346 3.276 7.628C3.276 4.73 5.292 3.362 7.2 3.362C9.414 3.362 10.404 4.712 10.71 5.936L13.05 5.198C12.546 3.128 10.728 0.967999 7.2 0.967999C3.78 0.967999 0.702 3.56 0.702 7.628C0.702 11.696 3.672 14.27 7.236 14.27ZM20.2659 5.108C20.0859 5.09 19.9059 5.072 19.7079 5.072C18.9519 5.072 17.7279 5.288 17.1879 6.458V5.144H14.8659V14H17.2599V9.95C17.2599 8.042 18.3219 7.448 19.5459 7.448C19.7619 7.448 19.9959 7.466 20.2659 7.52V5.108ZM25.3966 17.492L30.9586 5.144H28.4026L26.2246 10.328L23.8666 5.144H21.1846L24.9466 12.884L22.8586 17.492H25.3966ZM34.8029 17.42V13.136C35.2349 13.73 36.1349 14.216 37.3589 14.216C39.8609 14.216 41.5349 12.236 41.5349 9.554C41.5349 6.926 40.0409 4.946 37.4489 4.946C36.1169 4.946 35.1269 5.54 34.7309 6.224V5.144H32.4089V17.42H34.8029ZM39.1769 9.572C39.1769 11.156 38.2049 12.074 36.9809 12.074C35.7569 12.074 34.7669 11.138 34.7669 9.572C34.7669 8.006 35.7569 7.088 36.9809 7.088C38.2049 7.088 39.1769 8.006 39.1769 9.572ZM46.3472 2.498H44.1872V3.74C44.1872 4.532 43.7552 5.144 42.8192 5.144H42.3692V7.268H43.9712V11.39C43.9712 13.1 45.0512 14.126 46.7792 14.126C47.4812 14.126 47.9132 14 48.1292 13.91V11.93C48.0032 11.966 47.6792 12.002 47.3912 12.002C46.7072 12.002 46.3472 11.75 46.3472 10.976V7.268H48.1292V5.144H46.3472V2.498ZM51.8209 8.564C51.8749 7.754 52.5589 6.818 53.8009 6.818C55.1689 6.818 55.7449 7.682 55.7809 8.564H51.8209ZM56.0149 10.868C55.7269 11.66 55.1149 12.218 53.9989 12.218C52.8109 12.218 51.8209 11.372 51.7669 10.202H58.1029C58.1029 10.166 58.1389 9.806 58.1389 9.464C58.1389 6.62 56.5009 4.874 53.7649 4.874C51.4969 4.874 49.4089 6.71 49.4089 9.536C49.4089 12.524 51.5509 14.27 53.9809 14.27C56.1589 14.27 57.5629 12.992 58.0129 11.462L56.0149 10.868ZM65.4241 5.108C65.2441 5.09 65.0641 5.072 64.8661 5.072C64.1101 5.072 62.8861 5.288 62.3461 6.458V5.144H60.0241V14H62.4181V9.95C62.4181 8.042 63.4801 7.448 64.7041 7.448C64.9201 7.448 65.1541 7.466 65.4241 7.52V5.108ZM69.5021 14V5.144H67.1081V14H69.5021ZM66.8201 2.246C66.8201 3.038 67.4861 3.704 68.2961 3.704C69.1241 3.704 69.7721 3.038 69.7721 2.246C69.7721 1.418 69.1241 0.751999 68.2961 0.751999C67.4861 0.751999 66.8201 1.418 66.8201 2.246ZM77.8611 14H80.1471C80.1111 13.694 80.0571 13.082 80.0571 12.398V5.144H77.6631V10.292C77.6631 11.318 77.0511 12.038 75.9891 12.038C74.8731 12.038 74.3691 11.246 74.3691 10.256V5.144H71.9751V10.742C71.9751 12.668 73.1991 14.234 75.3411 14.234C76.2771 14.234 77.3031 13.874 77.7891 13.046C77.7891 13.406 77.8251 13.82 77.8611 14ZM85.006 14V8.816C85.006 7.844 85.618 7.07 86.662 7.07C87.742 7.07 88.228 7.79 88.228 8.744V14H90.604V8.816C90.604 7.862 91.216 7.07 92.242 7.07C93.34 7.07 93.808 7.79 93.808 8.744V14H96.13V8.258C96.13 5.882 94.564 4.892 92.926 4.892C91.756 4.892 90.82 5.288 90.118 6.368C89.668 5.414 88.696 4.892 87.49 4.892C86.518 4.892 85.384 5.36 84.898 6.224V5.144H82.612V14H85.006Z" fill="black"/>
</svg>
