<svg width="97" height="19" viewBox="0 0 97 19" fill="none" xmlns="http://www.w3.org/2000/svg">
<path d="M44.234 16H47.348L42.254 8.8L47.312 3.238H44.054L38.942 9.016V3.238H36.458V16H38.942V12.454L40.526 10.708L44.234 16ZM54.0354 7.108C53.8554 7.09 53.6754 7.072 53.4774 7.072C52.7214 7.072 51.4974 7.288 50.9574 8.458V7.144H48.6354V16H51.0294V11.95C51.0294 10.042 52.0914 9.448 53.3154 9.448C53.5314 9.448 53.7654 9.466 54.0354 9.52V7.108ZM55.2321 13.588C55.2321 14.974 56.3841 16.252 58.2741 16.252C59.5881 16.252 60.4341 15.64 60.8841 14.938C60.8841 15.28 60.9201 15.766 60.9741 16H63.1701C63.1161 15.694 63.0621 15.064 63.0621 14.596V10.24C63.0621 8.458 62.0181 6.874 59.2101 6.874C56.8341 6.874 55.5561 8.404 55.4121 9.79L57.5361 10.24C57.6081 9.466 58.1841 8.8 59.2281 8.8C60.2361 8.8 60.7221 9.322 60.7221 9.952C60.7221 10.258 60.5601 10.51 60.0561 10.582L57.8781 10.906C56.4021 11.122 55.2321 12.004 55.2321 13.588ZM58.7781 14.47C58.0041 14.47 57.6261 13.966 57.6261 13.444C57.6261 12.76 58.1121 12.418 58.7241 12.328L60.7221 12.022V12.418C60.7221 13.984 59.7861 14.47 58.7781 14.47ZM74.0613 7.144H70.9293L67.8693 10.438V2.968H65.4753V16H67.8693V13.66L68.8593 12.616L71.1993 16H74.1333L70.5153 10.87L74.0613 7.144ZM76.8717 10.564C76.9257 9.754 77.6097 8.818 78.8517 8.818C80.2197 8.818 80.7957 9.682 80.8317 10.564H76.8717ZM81.0657 12.868C80.7777 13.66 80.1657 14.218 79.0497 14.218C77.8617 14.218 76.8717 13.372 76.8177 12.202H83.1537C83.1537 12.166 83.1897 11.806 83.1897 11.464C83.1897 8.62 81.5517 6.874 78.8157 6.874C76.5477 6.874 74.4597 8.71 74.4597 11.536C74.4597 14.524 76.6017 16.27 79.0317 16.27C81.2097 16.27 82.6137 14.992 83.0637 13.462L81.0657 12.868ZM87.4689 10.906C87.4689 9.88 88.0809 9.07 89.1249 9.07C90.2769 9.07 90.7629 9.844 90.7629 10.834V16H93.1569V10.42C93.1569 8.476 92.1489 6.91 89.9529 6.91C88.9989 6.91 87.9369 7.324 87.3969 8.242V7.144H85.0749V16H87.4689V10.906Z" fill="black"/>
<g clip-path="url(#clip0)">
<path d="M-0.0014673 13.2889C-0.0014673 12.9256 -0.0014673 12.5623 -0.0014673 12.173C-0.0283129 11.4723 0.0253783 10.7457 0.159607 10.045C0.374372 8.87716 0.750211 7.76125 1.36766 6.72318C2.41464 5.01038 3.89115 3.73875 5.77035 2.88235C6.60256 2.49308 7.46162 2.23356 8.37437 2.10381C8.85759 2.0519 9.34082 2 9.82404 2C11.8643 2.02595 13.7703 2.49308 15.4885 3.58304C17.1797 4.64706 18.4415 6.07439 19.1932 7.891C19.5422 8.7474 19.7569 9.62976 19.8912 10.564C20.0254 11.5761 20.0254 12.5882 19.9985 13.6003C19.9985 14.1453 19.9985 14.6903 19.9717 15.2353C19.9717 15.4689 19.9717 15.7024 19.8912 15.936C19.6495 16.8443 18.5757 17.2595 17.7703 16.7405C17.4214 16.5069 17.2334 16.1955 17.1797 15.8062C17.1261 15.5467 17.1261 15.2872 17.1261 15.0017C17.1261 13.9118 17.1261 12.7958 17.1261 11.7059C17.1261 11.2647 16.9918 10.9014 16.6697 10.564C16.1328 10.019 15.3274 9.99308 14.7099 10.5121C14.3878 10.7976 14.2267 11.1609 14.1999 11.5761C14.1999 11.7318 14.173 11.8875 14.173 12.0433C14.173 13.263 14.173 14.4827 14.173 15.6765C14.173 16.3772 13.6361 16.8962 12.9113 16.9481C12.2133 17 11.5958 16.5329 11.4885 15.8581C11.4616 15.6765 11.4348 15.4948 11.4348 15.3131C11.4348 14.0934 11.4348 12.8737 11.4348 11.654C11.4348 11.2388 11.3005 10.8754 11.0052 10.564C10.4146 9.96713 9.50189 9.96713 8.91129 10.59C8.61598 10.9014 8.5086 11.2388 8.5086 11.654C8.5086 12.8478 8.5086 14.0675 8.5086 15.2612C8.5086 15.5727 8.48176 15.8841 8.34753 16.1695C8.10592 16.6626 7.62269 16.9481 7.05894 16.9481C6.52202 16.9221 6.06565 16.6107 5.87773 16.0917C5.79719 15.8841 5.77035 15.6765 5.77035 15.4429C5.77035 14.2751 5.77035 13.1073 5.77035 11.9394C5.77035 11.6799 5.77035 11.4204 5.68981 11.1609C5.50189 10.59 5.0992 10.2266 4.5086 10.1228C3.89115 10.019 3.43477 10.3045 3.08578 10.7976C2.92471 11.0311 2.87102 11.2907 2.87102 11.5761C2.87102 12.692 2.87102 13.782 2.87102 14.8979C2.87102 15.2353 2.87102 15.5467 2.79048 15.8841C2.65625 16.4291 2.14618 17 1.34081 16.9481C0.777056 16.8962 0.266989 16.455 0.105915 15.91C0.0253783 15.7284 -0.0014673 15.5208 -0.0014673 15.3131C-0.0014673 14.6384 -0.0014673 13.9637 -0.0014673 13.2889Z" fill="black"/>
</g>
<defs>
<clipPath id="clip0">
<rect width="20" height="15" fill="white" transform="translate(0 2)"/>
</clipPath>
</defs>
</svg>
