<svg width="101" height="21" viewBox="0 0 101 21" fill="none" xmlns="http://www.w3.org/2000/svg">
<path d="M44.234 17H47.348L42.254 9.8L47.312 4.238H44.054L38.942 10.016V4.238H36.458V17H38.942V13.454L40.526 11.708L44.234 17ZM53.658 17H55.944C55.908 16.694 55.854 16.082 55.854 15.398V8.144H53.46V13.292C53.46 14.318 52.848 15.038 51.786 15.038C50.67 15.038 50.166 14.246 50.166 13.256V8.144H47.772V13.742C47.772 15.668 48.996 17.234 51.138 17.234C52.074 17.234 53.1 16.874 53.586 16.046C53.586 16.406 53.622 16.82 53.658 17ZM62.3517 10.088C63.5397 10.088 64.0977 10.844 64.3137 11.582L66.4557 10.862C66.0777 9.368 64.7097 7.874 62.2977 7.874C59.7237 7.874 57.7077 9.836 57.7077 12.572C57.7077 15.29 59.7597 17.27 62.3697 17.27C64.7277 17.27 66.1137 15.758 66.5097 14.282L64.4037 13.58C64.2057 14.264 63.5937 15.074 62.3697 15.074C61.1457 15.074 60.1017 14.174 60.1017 12.572C60.1017 10.97 61.1277 10.088 62.3517 10.088ZM72.1603 15.092C70.9903 15.092 69.9103 14.228 69.9103 12.572C69.9103 10.898 70.9903 10.052 72.1603 10.052C73.3303 10.052 74.4103 10.898 74.4103 12.572C74.4103 14.246 73.3303 15.092 72.1603 15.092ZM72.1603 7.874C69.5143 7.874 67.5163 9.836 67.5163 12.572C67.5163 15.29 69.5143 17.27 72.1603 17.27C74.8063 17.27 76.8043 15.29 76.8043 12.572C76.8043 9.836 74.8063 7.874 72.1603 7.874ZM81.088 17V8.144H78.694V17H81.088ZM78.406 5.246C78.406 6.038 79.072 6.704 79.882 6.704C80.71 6.704 81.358 6.038 81.358 5.246C81.358 4.418 80.71 3.752 79.882 3.752C79.072 3.752 78.406 4.418 78.406 5.246ZM86.045 11.906C86.045 10.88 86.657 10.07 87.701 10.07C88.853 10.07 89.339 10.844 89.339 11.834V17H91.733V11.42C91.733 9.476 90.725 7.91 88.529 7.91C87.575 7.91 86.513 8.324 85.973 9.242V8.144H83.651V17H86.045V11.906Z" fill="black"/>
<g clip-path="url(#clip0)">
<path d="M16.8315 12.7859L12.7343 16.7026L6.19365 10.4882L12.7218 4.28398L16.8315 8.21261C17.5604 8.9067 18.7374 8.9067 19.46 8.20656C20.1826 7.50643 20.1795 6.37606 19.4537 5.68206L14.0515 0.517883C13.3226 -0.176117 12.1456 -0.173093 11.423 0.523931C11.42 0.526787 11.2912 0.629518 11.2336 0.684537L3.71722 7.82588V3.55755C3.71722 2.57267 2.88417 1.77258 1.85861 1.77258C0.833056 1.77258 0.00314856 2.57267 0 3.55755V17.4291C0 18.4141 0.833056 19.2142 1.85861 19.2142C2.88417 19.2142 3.71722 18.4138 3.71722 17.4291V13.1514L11.2336 20.2928C11.2661 20.3238 11.3918 20.4444 11.423 20.4746C12.1456 21.1718 13.3226 21.1747 14.0515 20.4807L19.4537 15.3164C20.1796 14.6224 20.1826 13.492 19.46 12.7919C18.7343 12.0952 17.5572 12.0919 16.8315 12.7859Z" fill="black"/>
<path d="M12.7513 12.3018C13.7865 12.3018 14.6257 11.4958 14.6257 10.5016C14.6257 9.50738 13.7865 8.70142 12.7513 8.70142C11.7161 8.70142 10.877 9.50738 10.877 10.5016C10.877 11.4958 11.7161 12.3018 12.7513 12.3018Z" fill="black"/>
</g>
<defs>
<clipPath id="clip0">
<rect width="20" height="21" fill="white"/>
</clipPath>
</defs>
</svg>
