<svg width="28" height="24" viewBox="0 0 28 24" fill="none" xmlns="http://www.w3.org/2000/svg">
<path d="M26.5625 0H1.0625C0.476 0 0 0.4816 0 1.075V22.575C0 23.1684 0.476 23.65 1.0625 23.65H26.5625C27.149 23.65 27.625 23.1684 27.625 22.575V1.075C27.625 0.4816 27.149 0 26.5625 0ZM25.5 21.5H2.125V2.15H25.5V21.5Z" fill="black"/>
<path d="M14 5C10.6916 5 8 7.6916 8 11C8 14.3084 10.6916 17 14 17C17.3084 17 20 14.3084 20 11C20 7.6916 17.3084 5 14 5ZM14 14.6C12.0146 14.6 10.4 12.9854 10.4 11C10.4 9.4364 11.4038 8.1056 12.8 7.61V9.8C12.8 10.4624 13.3376 11 14 11C14.6624 11 15.2 10.4624 15.2 9.8V7.61C16.5956 8.1056 17.6 9.4358 17.6 11C17.6 12.9854 15.9854 14.6 14 14.6Z" fill="black"/>
</svg>
