<svg width="323" height="102" viewBox="0 0 323 102" fill="none" xmlns="http://www.w3.org/2000/svg">
<rect width="323" height="102" rx="51" fill="#262A3C" fill-opacity="0.08"/>
<path d="M122.082 53.752C124.912 54.4375 125.879 55.2285 125.879 56.8105C125.879 58.4277 124.631 59.5352 122.082 59.7461V53.752ZM120.324 48.6895C117.863 48.0391 116.826 47.125 116.826 45.7012C116.826 44.2598 118.039 43.0996 120.324 42.8711V48.6895ZM122.082 49.0938V42.8887C124.121 43.1348 125.51 44.2422 125.756 46.1934H130.432C130.273 41.9922 127.039 39.25 122.082 38.9336V36.0859H120.324V38.916C115.42 39.1797 111.904 41.9219 111.904 46.1582C111.904 49.9551 114.418 52.0117 119.023 53.0488L120.324 53.3477V59.7461C117.846 59.5176 116.545 58.2695 116.246 56.4414H111.553C111.676 60.8535 115.314 63.4551 120.324 63.7012V66.5137H122.082V63.6836C127.145 63.3848 130.783 60.7129 130.783 56.2656C130.783 52.416 128.27 50.4824 123.453 49.3926L122.082 49.0938ZM141.014 64H146.27V38.6348H140.996L134.439 43.1875V47.8984L140.908 43.5039H141.014V64ZM161.984 64.5625C168.418 64.5625 172.32 59.4473 172.32 51.2559C172.32 43.0645 168.383 38.0547 161.984 38.0547C155.586 38.0547 151.631 43.082 151.631 51.2734C151.631 59.4824 155.551 64.5625 161.984 64.5625ZM161.984 60.3086C158.855 60.3086 157.027 57.0918 157.027 51.2734C157.027 45.5078 158.891 42.3086 161.984 42.3086C165.096 42.3086 166.924 45.4902 166.924 51.2734C166.924 57.0918 165.113 60.3086 161.984 60.3086ZM185.609 64.5625C192.043 64.5625 195.945 59.4473 195.945 51.2559C195.945 43.0645 192.008 38.0547 185.609 38.0547C179.211 38.0547 175.256 43.082 175.256 51.2734C175.256 59.4824 179.176 64.5625 185.609 64.5625ZM185.609 60.3086C182.48 60.3086 180.652 57.0918 180.652 51.2734C180.652 45.5078 182.516 42.3086 185.609 42.3086C188.721 42.3086 190.549 45.4902 190.549 51.2734C190.549 57.0918 188.738 60.3086 185.609 60.3086ZM216.371 64.5625C222.805 64.5625 226.707 59.4473 226.707 51.2559C226.707 43.0645 222.77 38.0547 216.371 38.0547C209.973 38.0547 206.018 43.082 206.018 51.2734C206.018 59.4824 209.938 64.5625 216.371 64.5625ZM216.371 60.3086C213.242 60.3086 211.414 57.0918 211.414 51.2734C211.414 45.5078 213.277 42.3086 216.371 42.3086C219.482 42.3086 221.311 45.4902 221.311 51.2734C221.311 57.0918 219.5 60.3086 216.371 60.3086ZM239.996 64.5625C246.43 64.5625 250.332 59.4473 250.332 51.2559C250.332 43.0645 246.395 38.0547 239.996 38.0547C233.598 38.0547 229.643 43.082 229.643 51.2734C229.643 59.4824 233.562 64.5625 239.996 64.5625ZM239.996 60.3086C236.867 60.3086 235.039 57.0918 235.039 51.2734C235.039 45.5078 236.902 42.3086 239.996 42.3086C243.107 42.3086 244.936 45.4902 244.936 51.2734C244.936 57.0918 243.125 60.3086 239.996 60.3086ZM263.621 64.5625C270.055 64.5625 273.957 59.4473 273.957 51.2559C273.957 43.0645 270.02 38.0547 263.621 38.0547C257.223 38.0547 253.268 43.082 253.268 51.2734C253.268 59.4824 257.188 64.5625 263.621 64.5625ZM263.621 60.3086C260.492 60.3086 258.664 57.0918 258.664 51.2734C258.664 45.5078 260.527 42.3086 263.621 42.3086C266.732 42.3086 268.561 45.4902 268.561 51.2734C268.561 57.0918 266.75 60.3086 263.621 60.3086Z" fill="#262A3C"/>
<path d="M36.6504 51.3174H33.9961V59.5176C33.9961 62.3125 36.0615 64.2197 39.3135 64.2197C42.5566 64.2197 44.6221 62.3125 44.6221 59.5176V51.3174H41.9678V59.2539C41.9678 60.8799 41.0098 61.9434 39.3135 61.9434C37.6084 61.9434 36.6504 60.8799 36.6504 59.2539V51.3174ZM46.7402 51.3174V64H49.3945V60.001H51.7676C54.4395 60.001 56.2939 58.2607 56.2939 55.6592C56.2939 53.0488 54.501 51.3174 51.8994 51.3174H46.7402ZM49.3945 53.418H51.1963C52.7168 53.418 53.5957 54.2266 53.5957 55.668C53.5957 57.1182 52.708 57.9268 51.1875 57.9268H49.3945V53.418ZM67.1221 64V53.5059H70.7959V51.3174H60.8027V53.5059H64.4678V64H67.1221ZM77.2822 51.0977C73.5205 51.0977 71.165 53.6201 71.165 57.6631C71.165 61.6973 73.5205 64.2197 77.2822 64.2197C81.0352 64.2197 83.3994 61.6973 83.3994 57.6631C83.3994 53.6201 81.0352 51.0977 77.2822 51.0977ZM77.2822 53.3125C79.3564 53.3125 80.6836 55 80.6836 57.6631C80.6836 60.3174 79.3564 61.9961 77.2822 61.9961C75.1992 61.9961 73.8721 60.3174 73.8721 57.6631C73.8721 55 75.208 53.3125 77.2822 53.3125Z" fill="#262A3C"/>
</svg>
