<svg width="375" height="102" viewBox="0 0 375 102" fill="none" xmlns="http://www.w3.org/2000/svg">
<rect width="375" height="102" rx="51" fill="#262A3C" fill-opacity="0.08"/>
<path d="M129.109 53.3359C132.883 54.25 134.172 55.3047 134.172 57.4141C134.172 59.5703 132.508 61.0469 129.109 61.3281V53.3359ZM126.766 46.5859C123.484 45.7188 122.102 44.5 122.102 42.6016C122.102 40.6797 123.719 39.1328 126.766 38.8281V46.5859ZM129.109 47.125V38.8516C131.828 39.1797 133.68 40.6562 134.008 43.2578H140.242C140.031 37.6562 135.719 34 129.109 33.5781V29.7812H126.766V33.5547C120.227 33.9062 115.539 37.5625 115.539 43.2109C115.539 48.2734 118.891 51.0156 125.031 52.3984L126.766 52.7969V61.3281C123.461 61.0234 121.727 59.3594 121.328 56.9219H115.07C115.234 62.8047 120.086 66.2734 126.766 66.6016V70.3516H129.109V66.5781C135.859 66.1797 140.711 62.6172 140.711 56.6875C140.711 51.5547 137.359 48.9766 130.938 47.5234L129.109 47.125ZM154.352 67H161.359V33.1797H154.328L145.586 39.25V45.5312L154.211 39.6719H154.352V67ZM182.312 67.75C190.891 67.75 196.094 60.9297 196.094 50.0078C196.094 39.0859 190.844 32.4062 182.312 32.4062C173.781 32.4062 168.508 39.1094 168.508 50.0312C168.508 60.9766 173.734 67.75 182.312 67.75ZM182.312 62.0781C178.141 62.0781 175.703 57.7891 175.703 50.0312C175.703 42.3438 178.188 38.0781 182.312 38.0781C186.461 38.0781 188.898 42.3203 188.898 50.0312C188.898 57.7891 186.484 62.0781 182.312 62.0781ZM213.812 67.75C222.391 67.75 227.594 60.9297 227.594 50.0078C227.594 39.0859 222.344 32.4062 213.812 32.4062C205.281 32.4062 200.008 39.1094 200.008 50.0312C200.008 60.9766 205.234 67.75 213.812 67.75ZM213.812 62.0781C209.641 62.0781 207.203 57.7891 207.203 50.0312C207.203 42.3438 209.688 38.0781 213.812 38.0781C217.961 38.0781 220.398 42.3203 220.398 50.0312C220.398 57.7891 217.984 62.0781 213.812 62.0781ZM254.828 67.75C263.406 67.75 268.609 60.9297 268.609 50.0078C268.609 39.0859 263.359 32.4062 254.828 32.4062C246.297 32.4062 241.023 39.1094 241.023 50.0312C241.023 60.9766 246.25 67.75 254.828 67.75ZM254.828 62.0781C250.656 62.0781 248.219 57.7891 248.219 50.0312C248.219 42.3438 250.703 38.0781 254.828 38.0781C258.977 38.0781 261.414 42.3203 261.414 50.0312C261.414 57.7891 259 62.0781 254.828 62.0781ZM286.328 67.75C294.906 67.75 300.109 60.9297 300.109 50.0078C300.109 39.0859 294.859 32.4062 286.328 32.4062C277.797 32.4062 272.523 39.1094 272.523 50.0312C272.523 60.9766 277.75 67.75 286.328 67.75ZM286.328 62.0781C282.156 62.0781 279.719 57.7891 279.719 50.0312C279.719 42.3438 282.203 38.0781 286.328 38.0781C290.477 38.0781 292.914 42.3203 292.914 50.0312C292.914 57.7891 290.5 62.0781 286.328 62.0781ZM317.828 67.75C326.406 67.75 331.609 60.9297 331.609 50.0078C331.609 39.0859 326.359 32.4062 317.828 32.4062C309.297 32.4062 304.023 39.1094 304.023 50.0312C304.023 60.9766 309.25 67.75 317.828 67.75ZM317.828 62.0781C313.656 62.0781 311.219 57.7891 311.219 50.0312C311.219 42.3438 313.703 38.0781 317.828 38.0781C321.977 38.0781 324.414 42.3203 324.414 50.0312C324.414 57.7891 322 62.0781 317.828 62.0781Z" fill="#262A3C"/>
<path d="M47.1504 56.3174H44.4961V64.5176C44.4961 67.3125 46.5615 69.2197 49.8135 69.2197C53.0566 69.2197 55.1221 67.3125 55.1221 64.5176V56.3174H52.4678V64.2539C52.4678 65.8799 51.5098 66.9434 49.8135 66.9434C48.1084 66.9434 47.1504 65.8799 47.1504 64.2539V56.3174ZM57.2402 56.3174V69H59.8945V65.001H62.2676C64.9395 65.001 66.7939 63.2607 66.7939 60.6592C66.7939 58.0488 65.001 56.3174 62.3994 56.3174H57.2402ZM59.8945 58.418H61.6963C63.2168 58.418 64.0957 59.2266 64.0957 60.668C64.0957 62.1182 63.208 62.9268 61.6875 62.9268H59.8945V58.418ZM77.6221 69V58.5059H81.2959V56.3174H71.3027V58.5059H74.9678V69H77.6221ZM87.7822 56.0977C84.0205 56.0977 81.665 58.6201 81.665 62.6631C81.665 66.6973 84.0205 69.2197 87.7822 69.2197C91.5352 69.2197 93.8994 66.6973 93.8994 62.6631C93.8994 58.6201 91.5352 56.0977 87.7822 56.0977ZM87.7822 58.3125C89.8564 58.3125 91.1836 60 91.1836 62.6631C91.1836 65.3174 89.8564 66.9961 87.7822 66.9961C85.6992 66.9961 84.3721 65.3174 84.3721 62.6631C84.3721 60 85.708 58.3125 87.7822 58.3125Z" fill="#262A3C"/>
</svg>
