<svg width="285" height="102" viewBox="0 0 285 102" fill="none" xmlns="http://www.w3.org/2000/svg">
<rect width="285" height="102" rx="51" fill="white"/>
<circle cx="232.5" cy="51.5" r="27" fill="#262A3C" stroke="white" stroke-width="3"/>
<path d="M224.37 42H221.043L227.965 48.8327C230.47 51.3063 234.532 51.3063 237.037 48.8327L243.958 42H240.631L235.374 47.1906C233.787 48.7574 231.215 48.7574 229.627 47.1906L224.37 42ZM240.674 61H244L237.036 54.1251C234.531 51.6514 230.469 51.6514 227.964 54.1251L221 61H224.326L229.627 55.7672C231.214 54.2004 233.786 54.2004 235.374 55.7672L240.674 61Z" fill="white"/>
<circle cx="187.5" cy="51.5" r="27" fill="#FFA71C" stroke="white" stroke-width="3"/>
<circle cx="187.5" cy="51.5" r="14.5" fill="#FFA71C" stroke="white" stroke-width="2"/>
<path d="M192.166 48.7088C191.589 48.4711 190.922 48.4643 190.165 48.6886C190.761 47.7655 190.708 46.8141 190.006 45.834C189.755 45.4769 189.462 45.2102 189.129 45.0336C188.796 44.857 188.433 44.7696 188.04 44.7721C187.647 44.7741 187.251 44.8314 186.853 44.9431C186.456 45.0548 186.02 45.2204 185.548 45.4398L184.302 43.2818L182.989 44.04L184.2 46.138C183.973 46.2693 183.629 46.4752 183.17 46.7558L181.949 44.6407L180.635 45.399L181.881 47.5569C181.697 47.671 181.423 47.8331 181.059 48.0432L179.246 49.0784L180.057 50.4828L181.003 49.9363C181.435 49.6868 181.801 49.7349 182.099 50.0804L183.518 52.5381C183.574 52.5052 183.622 52.4819 183.659 52.4679L183.522 52.5467L185.51 55.9891C185.633 56.3064 185.552 56.5472 185.267 56.7114L184.321 57.2579L184.961 58.9776L186.667 57.9929C186.775 57.9305 186.932 57.8417 187.138 57.7261C187.345 57.6108 187.499 57.5236 187.601 57.4645L188.862 59.6482L190.176 58.8897L188.93 56.7318C189.172 56.5998 189.52 56.4024 189.975 56.1398L191.216 58.2891L192.529 57.5309L191.269 55.3472C191.722 55.0552 192.111 54.7738 192.435 54.5025C192.76 54.231 193.049 53.9332 193.301 53.6086C193.553 53.2842 193.732 52.9579 193.839 52.6301C193.945 52.3024 193.982 51.9425 193.949 51.5503C193.916 51.1584 193.802 50.7482 193.608 50.3199C193.224 49.4837 192.743 48.9467 192.166 48.7088ZM184.085 48.2822C184.125 48.2593 184.236 48.193 184.42 48.0834C184.603 47.9738 184.755 47.8823 184.875 47.8089C184.996 47.7355 185.165 47.6474 185.382 47.5447C185.6 47.442 185.788 47.364 185.946 47.3104C186.105 47.2569 186.288 47.2136 186.497 47.1809C186.705 47.1479 186.888 47.1492 187.044 47.1843C187.201 47.2194 187.357 47.2893 187.512 47.3939C187.667 47.4984 187.799 47.6448 187.908 47.8332C188 47.9931 188.059 48.1534 188.084 48.3143C188.108 48.475 188.095 48.6294 188.044 48.7769C187.993 48.9244 187.932 49.0624 187.862 49.1904C187.792 49.3183 187.684 49.4508 187.54 49.5876C187.395 49.7243 187.267 49.8402 187.155 49.9352C187.043 50.0303 186.896 50.1363 186.713 50.2532C186.53 50.37 186.391 50.4579 186.296 50.5165C186.201 50.5752 186.069 50.6515 185.9 50.7455C185.73 50.8396 185.632 50.8946 185.603 50.9111L184.085 48.2822L184.085 48.2822L184.085 48.2822ZM191.038 52.0432C191.06 52.2059 191.056 52.3603 191.027 52.5066C190.998 52.6528 190.935 52.8033 190.839 52.9578C190.742 53.1125 190.642 53.2504 190.537 53.3715C190.433 53.4929 190.298 53.6238 190.133 53.7647C189.968 53.9058 189.82 54.0235 189.689 54.1183C189.558 54.213 189.398 54.3204 189.21 54.4406C189.022 54.5606 188.873 54.652 188.765 54.7143C188.657 54.7767 188.52 54.854 188.353 54.9464C188.187 55.0389 188.081 55.0982 188.035 55.1245L186.364 52.2299C186.41 52.2037 186.543 52.1229 186.764 51.9874C186.986 51.852 187.167 51.7435 187.31 51.6614C187.452 51.5794 187.653 51.4745 187.913 51.3473C188.173 51.2199 188.398 51.124 188.589 51.0597C188.779 50.9956 188.995 50.9409 189.239 50.8957C189.482 50.8506 189.695 50.8432 189.88 50.8737C190.064 50.9044 190.245 50.9748 190.423 51.0855C190.6 51.196 190.749 51.3541 190.867 51.5596C190.96 51.7197 191.017 51.8806 191.038 52.0432Z" fill="white"/>
<circle cx="142.5" cy="51.5" r="27" fill="#E1E1E1" stroke="white" stroke-width="3"/>
<g clip-path="url(#clip0)">
<path d="M142.282 57.0688L143.637 52.1776L146.844 51.0544L147.642 48.1792L147.615 48.1072L144.458 49.2128L146.732 41H140.279L137.304 51.7184L134.821 52.5888L134 55.552L136.481 54.6832L134.729 61H151.9L153.002 57.0688H142.282Z" fill="white"/>
</g>
<circle cx="97.5" cy="51.5" r="27" fill="#2992FA" stroke="white" stroke-width="3"/>
<g clip-path="url(#clip1)">
<g opacity="0.6">
<g opacity="0.6">
<path opacity="0.6" d="M97.9986 47.7217L89 51.7705L97.9986 57.0289L106.992 51.7705L97.9986 47.7217Z" fill="white"/>
</g>
</g>
<g opacity="0.85">
<g opacity="0.85">
<path opacity="0.85" d="M89 51.7703L97.9986 57.0286V37L89 51.7703Z" fill="white"/>
</g>
</g>
<g opacity="0.8">
<g opacity="0.8">
<path opacity="0.8" d="M97.9985 37V57.0314L106.992 51.7703L97.9985 37Z" fill="white"/>
</g>
</g>
<g opacity="0.65">
<g opacity="0.65">
<path opacity="0.65" d="M89 53.4575L97.9986 66V58.7186L89 53.4575Z" fill="white"/>
</g>
</g>
<g opacity="0.8">
<g opacity="0.8">
<path opacity="0.8" d="M97.9985 58.7186V66L107 53.4575L97.9985 58.7186Z" fill="white"/>
</g>
</g>
</g>
<circle cx="52.5" cy="51.5" r="27" fill="#FFA71C" stroke="white" stroke-width="3"/>
<path d="M60.2822 52.1156C59.7037 51.3645 58.8309 50.8487 57.6637 50.5683C59.1501 49.807 59.8033 48.5149 59.6239 46.6918C59.564 46.0307 59.382 45.4577 59.0776 44.972C58.773 44.4863 58.362 44.0958 57.8429 43.8003C57.3243 43.5045 56.7603 43.2794 56.1521 43.1241C55.5437 42.9689 54.8453 42.8562 54.0572 42.7861V39H51.7531V42.6809C51.3542 42.6809 50.7457 42.6909 49.9278 42.711V39H47.6234V42.7861C47.2942 42.7962 46.8104 42.8013 46.172 42.8013L43 42.7861V45.2501H44.6608C45.4189 45.2501 45.8628 45.5908 45.9924 46.2718V50.5838C46.0923 50.5838 46.172 50.589 46.232 50.599H45.9924V56.6385C45.9127 57.1492 45.6235 57.4048 45.1247 57.4048H43.464L43.0001 60.1543H45.9927C46.1823 60.1543 46.4564 60.1568 46.8157 60.1613C47.1747 60.1664 47.4439 60.1689 47.6235 60.1689V64H49.9283V60.2139C50.3471 60.2242 50.9556 60.2291 51.7536 60.2291V64H54.0577V60.1689C54.8759 60.1289 55.6015 60.0542 56.2347 59.9436C56.8681 59.833 57.4743 59.6605 58.0527 59.425C58.6311 59.1898 59.1148 58.8966 59.5038 58.546C59.8929 58.1958 60.2144 57.7499 60.4692 57.2089C60.7231 56.6679 60.8854 56.0419 60.955 55.3306C61.0853 53.9387 60.8607 52.8669 60.2822 52.1156ZM49.9726 45.415C50.0425 45.415 50.2395 45.4124 50.5637 45.4074C50.888 45.4022 51.1573 45.3973 51.3717 45.3922C51.5862 45.3873 51.8755 45.3998 52.2397 45.4299C52.6038 45.4599 52.9105 45.5001 53.1598 45.55C53.4091 45.6 53.6837 45.6827 53.9827 45.7979C54.2822 45.913 54.5214 46.0533 54.7008 46.2185C54.8805 46.3838 55.0326 46.5942 55.157 46.8496C55.2819 47.105 55.3442 47.398 55.3442 47.7284C55.3442 48.0089 55.2994 48.2644 55.2098 48.4949C55.1202 48.7252 54.9852 48.9181 54.8059 49.0733C54.6265 49.2286 54.4416 49.364 54.2521 49.479C54.0627 49.5941 53.8206 49.6868 53.5264 49.7569C53.2323 49.827 52.9754 49.8821 52.7561 49.9221C52.5366 49.9622 52.2624 49.9899 51.9332 50.0048C51.6039 50.0197 51.3544 50.0299 51.1849 50.0349C51.0153 50.0398 50.7834 50.0398 50.4891 50.0349C50.1946 50.0299 50.0228 50.0273 49.9728 50.0273V45.4149H49.9726V45.415ZM56.2647 55.6463C56.1697 55.8768 56.0477 56.0772 55.8982 56.2476C55.7484 56.4176 55.5513 56.568 55.307 56.698C55.0628 56.8284 54.8257 56.9334 54.5964 57.0136C54.3669 57.094 54.09 57.1637 53.7661 57.224C53.4415 57.2842 53.1574 57.3265 52.9127 57.3517C52.6684 57.3768 52.3768 57.3968 52.0375 57.4119C51.6985 57.4266 51.434 57.4343 51.2445 57.4343C51.055 57.4343 50.8155 57.4315 50.5262 57.4266C50.2368 57.422 50.0524 57.4194 49.9725 57.4194V52.341C50.0522 52.341 50.2892 52.3362 50.6833 52.3259C51.0774 52.3158 51.399 52.3112 51.6484 52.3112C51.8977 52.3112 52.242 52.3259 52.6811 52.3562C53.1197 52.386 53.4888 52.4309 53.7884 52.491C54.0875 52.5512 54.4139 52.6437 54.7683 52.7691C55.1223 52.8942 55.4093 53.0469 55.6288 53.2272C55.8483 53.4078 56.0327 53.6378 56.1823 53.9184C56.3322 54.1987 56.407 54.5193 56.407 54.88C56.407 55.1607 56.3596 55.4158 56.2647 55.6463Z" fill="white"/>
<defs>
<clipPath id="clip0">
<rect width="19" height="20" fill="white" transform="translate(134 41)"/>
</clipPath>
<clipPath id="clip1">
<rect width="18" height="29" fill="white" transform="translate(89 37)"/>
</clipPath>
</defs>
</svg>
