<svg width="75" height="49" viewBox="0 0 75 49" fill="none" xmlns="http://www.w3.org/2000/svg">
<path d="M47.3955 8.53687H27.6108V40.4573H47.3955V8.53687Z" fill="#FF5F00"/>
<path d="M29.6485 24.5C29.646 21.4263 30.3514 18.3924 31.7112 15.6278C33.071 12.8632 35.0496 10.4403 37.4972 8.54258C34.4657 6.18912 30.825 4.72565 26.9913 4.31941C23.1575 3.91318 19.2855 4.58058 15.8176 6.24534C12.3497 7.9101 9.42586 10.505 7.38031 13.7336C5.33476 16.9622 4.25 20.6941 4.25 24.5028C4.25 28.3116 5.33476 32.0435 7.38031 35.272C9.42586 38.5006 12.3497 41.0955 15.8176 42.7603C19.2855 44.4251 23.1575 45.0925 26.9913 44.6862C30.825 44.28 34.4657 42.8165 37.4972 40.4631C35.0488 38.5647 33.0697 36.141 31.7099 33.3753C30.3501 30.6097 29.6451 27.5746 29.6485 24.5Z" fill="#EB001B"/>
<path d="M68.7835 37.0799V36.4259H69.0689V36.2905H68.3896V36.4259H68.6579V37.0799H68.7835ZM70.1021 37.0799V36.2905H69.8966L69.6569 36.8544L69.4171 36.2905H69.2116V37.0799H69.36V36.4822L69.5827 36.9954H69.7368L69.9594 36.4822V37.0799H70.1021Z" fill="#F79E1B"/>
<path d="M70.7473 24.4999C70.7472 28.309 69.6622 32.0411 67.6163 35.2698C65.5704 38.4984 62.6461 41.0933 59.1778 42.7579C55.7095 44.4224 51.837 45.0894 48.0031 44.6825C44.1691 44.2757 40.5284 42.8115 37.4971 40.4573C39.9438 38.5579 41.9218 36.1344 43.282 33.3696C44.6421 30.6049 45.3489 27.5711 45.3489 24.4971C45.3489 21.4232 44.6421 18.3893 43.282 15.6246C41.9218 12.8598 39.9438 10.4363 37.4971 8.53687C40.5284 6.18268 44.1691 4.71849 48.0031 4.31167C51.837 3.90486 55.7095 4.57183 59.1778 6.23635C62.6461 7.90087 65.5704 10.4958 67.6163 13.7244C69.6622 16.9531 70.7472 20.6853 70.7473 24.4943V24.4999Z" fill="#F79E1B"/>
</svg>
