<svg width="114" height="47" viewBox="0 0 114 47" fill="none" xmlns="http://www.w3.org/2000/svg">
<path d="M49.6834 39.7146H41.1372L46.4786 6.91284H55.0248L49.6834 39.7146Z" fill="#3D3D3D"/>
<path d="M33.9476 6.91279L25.7914 29.4809L24.8248 24.6183L21.9422 9.86088C21.9422 9.86088 21.6031 6.91279 17.8895 6.91279H4.42591L4.25635 7.45497C4.25635 7.45497 8.37683 8.31906 13.1925 11.1994L20.6196 39.6976H29.5219L43.1211 6.87891H33.9476V6.91279Z" fill="#3D3D3D"/>
<path d="M91.7868 28.1086L96.2803 15.8249L98.8069 28.1086H91.7868ZM101.198 39.7146H109.049L102.198 6.91284H95.3308C92.1599 6.91284 91.3799 9.35264 91.3799 9.35264L78.6284 39.7146H87.5476L89.3281 34.835H100.197L101.198 39.7146Z" fill="#3D3D3D"/>
<path d="M79.2899 14.7913L80.5108 7.74304C80.5108 7.74304 76.7464 6.31982 72.8294 6.31982C68.5902 6.31982 58.5179 8.16662 58.5179 17.1803C58.5179 25.6518 70.3368 25.7704 70.3368 30.2095C70.3368 34.6655 59.7388 33.8692 56.2288 31.0567L54.957 38.4269C54.957 38.4269 58.7723 40.2737 64.6054 40.2737C70.4385 40.2737 79.239 37.2578 79.239 29.0404C79.239 20.5012 67.3015 19.7218 67.3015 16.0112C67.3015 12.3007 75.6272 12.7751 79.2899 14.7913Z" fill="#3D3D3D"/>
<path d="M24.8248 24.6183L21.9422 9.86093C21.9422 9.86093 21.6031 6.91284 17.8895 6.91284H4.42591L4.25635 7.45502C4.25635 7.45502 10.7338 8.79352 16.94 13.8256C22.8918 18.6205 24.8248 24.6183 24.8248 24.6183Z" fill="#F7A823"/>
</svg>
