<svg width="240" height="222" viewBox="0 0 240 222" fill="none" xmlns="http://www.w3.org/2000/svg">
<rect width="240" height="222" rx="12" fill="#FCD846"/>
<path d="M23.176 31.12C24.48 31.12 25.376 30.36 25.68 29.296L24.984 29.04C24.752 29.816 24.144 30.4 23.176 30.4C22.144 30.4 21.16 29.64 21.16 28.16C21.16 26.68 22.144 25.928 23.176 25.928C24.104 25.928 24.728 26.408 24.944 27.264L25.672 27.008C25.384 25.912 24.472 25.208 23.176 25.208C21.768 25.208 20.36 26.264 20.36 28.16C20.36 30.056 21.712 31.12 23.176 31.12ZM26.2438 29.968C26.2438 30.576 26.7478 31.12 27.5318 31.12C28.2198 31.12 28.6038 30.752 28.7718 30.48C28.7718 30.76 28.7958 30.904 28.8118 31H29.5478C29.5318 30.904 29.4998 30.704 29.4998 30.368V28.44C29.4998 27.688 29.0518 27.032 27.8997 27.032C27.0678 27.032 26.4038 27.544 26.3238 28.28L27.0438 28.448C27.0918 28 27.3878 27.672 27.9158 27.672C28.4998 27.672 28.7478 27.984 28.7478 28.36C28.7478 28.496 28.6838 28.616 28.4518 28.648L27.4118 28.8C26.7478 28.896 26.2438 29.28 26.2438 29.968ZM27.6358 30.488C27.2518 30.488 27.0118 30.216 27.0118 29.928C27.0118 29.584 27.2518 29.4 27.5718 29.352L28.7478 29.176V29.352C28.7478 30.192 28.2518 30.488 27.6358 30.488ZM32.8073 27.112C32.7673 27.104 32.6633 27.088 32.5593 27.088C32.1673 27.088 31.6873 27.232 31.4073 27.824V27.152H30.6713V31H31.4233V29.072C31.4233 28.224 31.8473 27.888 32.4793 27.888C32.5833 27.888 32.6953 27.896 32.8073 27.912V27.112ZM34.0177 29.064C34.0177 28.272 34.4657 27.712 35.1537 27.712C35.8417 27.712 36.2577 28.256 36.2577 29.048C36.2577 29.84 35.8337 30.44 35.1457 30.44C34.4257 30.44 34.0177 29.856 34.0177 29.064ZM36.2657 30.48C36.2657 30.712 36.2897 30.912 36.3057 31H37.0337C37.0257 30.936 36.9937 30.656 36.9937 30.288V25.208H36.2497V27.696C36.1217 27.384 35.7537 27.048 35.0737 27.048C33.9857 27.048 33.2497 27.976 33.2497 29.064C33.2497 30.208 33.9457 31.104 35.0737 31.104C35.6737 31.104 36.0817 30.784 36.2657 30.416V30.48ZM41.0248 28.776C41.0248 28.192 41.3288 27.72 41.9208 27.72C42.5928 27.72 42.8168 28.152 42.8168 28.688V31H43.5688V28.56C43.5688 27.704 43.1128 27.04 42.1928 27.04C41.7448 27.04 41.2888 27.224 41.0088 27.704V27.152H40.2728V31H41.0248V28.776ZM47.2229 30.536C47.2229 30.696 47.2389 30.912 47.2549 31H47.9749C47.9589 30.864 47.9349 30.592 47.9349 30.288V27.152H47.1829V29.472C47.1829 30.056 46.8789 30.456 46.2709 30.456C45.6389 30.456 45.3989 29.992 45.3989 29.464V27.152H44.6469V29.576C44.6469 30.448 45.1909 31.12 46.0869 31.12C46.5349 31.12 47.0149 30.936 47.2229 30.536ZM49.9621 31V28.68C49.9621 28.104 50.3221 27.704 50.8581 27.704C51.4341 27.704 51.6741 28.088 51.6741 28.584V31H52.4261V28.672C52.4261 28.12 52.7861 27.704 53.3141 27.704C53.8821 27.704 54.1301 28.08 54.1301 28.584V31H54.8741V28.504C54.8741 27.496 54.2181 27.04 53.5461 27.04C53.0581 27.04 52.5621 27.216 52.2581 27.768C52.0501 27.272 51.5861 27.04 51.1061 27.04C50.6581 27.04 50.1781 27.24 49.9381 27.664V27.152H49.2181V31H49.9621ZM56.8215 31V30.44C57.0615 30.856 57.5015 31.104 58.0695 31.104C59.2135 31.104 59.8615 30.2 59.8615 29.056C59.8615 27.936 59.2615 27.04 58.0935 27.04C57.4535 27.04 57.0055 27.352 56.8215 27.696V25.208H56.0775V31H56.8215ZM59.0935 29.056C59.0935 29.888 58.6455 30.432 57.9575 30.432C57.2935 30.432 56.8135 29.888 56.8135 29.056C56.8135 28.224 57.2935 27.704 57.9575 27.704C58.6535 27.704 59.0935 28.224 59.0935 29.056ZM61.3077 28.68C61.3397 28.184 61.7237 27.696 62.3557 27.696C63.0357 27.696 63.3957 28.128 63.4117 28.68H61.3077ZM63.5237 29.68C63.3797 30.112 63.0677 30.456 62.4437 30.456C61.7957 30.456 61.2997 29.976 61.2837 29.288H64.1797C64.1877 29.24 64.1957 29.144 64.1957 29.048C64.1957 27.848 63.5317 27.032 62.3477 27.032C61.3797 27.032 60.5077 27.856 60.5077 29.064C60.5077 30.368 61.4117 31.12 62.4437 31.12C63.3397 31.12 63.9557 30.584 64.1717 29.904L63.5237 29.68ZM67.2916 27.112C67.2516 27.104 67.1476 27.088 67.0436 27.088C66.6516 27.088 66.1716 27.232 65.8916 27.824V27.152H65.1556V31H65.9076V29.072C65.9076 28.224 66.3316 27.888 66.9636 27.888C67.0676 27.888 67.1796 27.896 67.2916 27.912V27.112Z" fill="#262A3C" fill-opacity="0.5"/>
<path d="M20.416 49.673C20.52 50.999 21.768 52.208 23.588 52.208C25.538 52.208 26.76 50.882 26.76 49.296C26.76 47.528 25.551 46.488 23.874 46.488C23.276 46.488 22.626 46.696 22.262 47.073L22.782 44.941H26.344V43.576H21.729L20.689 47.827L22.158 48.36C22.457 48.022 22.964 47.775 23.562 47.775C24.42 47.775 25.187 48.295 25.187 49.335C25.187 50.271 24.472 50.869 23.588 50.869C22.613 50.869 21.95 50.193 21.885 49.296L20.416 49.673ZM27.5892 50.154H31.6452V52H33.1792V50.154H34.5962V48.776H33.1792V43.576H31.1772L27.5892 48.464V50.154ZM31.6452 48.776H28.9932L31.6452 45.149V48.776ZM38.6275 52V43.576H37.2755C37.0935 44.46 36.2615 45.136 35.0525 45.162V46.228H37.0935V52H38.6275ZM41.7571 46.735C41.7441 46.592 41.7181 46.436 41.7181 46.306C41.7181 45.435 42.1991 44.746 43.1871 44.746C44.1361 44.746 44.6041 45.37 44.6041 46.059C44.6041 46.67 44.2791 47.177 43.5251 47.645L42.1341 48.516C40.6651 49.426 40.1581 50.557 40.1321 52H46.2291V50.622H42.0561C42.1731 50.206 42.5111 49.907 42.9141 49.66L44.5521 48.646C45.5661 48.022 46.1771 47.125 46.1771 46.033C46.1771 44.59 45.0721 43.381 43.2131 43.381C41.3021 43.381 40.2101 44.694 40.2101 46.15C40.2101 46.319 40.2361 46.514 40.2491 46.631L41.7571 46.735ZM56.2672 43.576H49.9752V44.941H54.4992C54.4992 44.941 51.5612 47.294 51.1972 52H52.8092C53.1862 47.658 55.5652 45.526 56.2672 44.941V43.576ZM56.5976 49.673C56.7016 50.999 57.9496 52.208 59.7696 52.208C61.7196 52.208 62.9416 50.882 62.9416 49.296C62.9416 47.528 61.7326 46.488 60.0556 46.488C59.4576 46.488 58.8076 46.696 58.4436 47.073L58.9636 44.941H62.5256V43.576H57.9106L56.8706 47.827L58.3396 48.36C58.6386 48.022 59.1456 47.775 59.7436 47.775C60.6016 47.775 61.3686 48.295 61.3686 49.335C61.3686 50.271 60.6536 50.869 59.7696 50.869C58.7946 50.869 58.1316 50.193 58.0666 49.296L56.5976 49.673ZM67.2173 52V43.576H65.8653C65.6833 44.46 64.8513 45.136 63.6423 45.162V46.228H65.6833V52H67.2173ZM70.347 46.735C70.334 46.592 70.308 46.436 70.308 46.306C70.308 45.435 70.789 44.746 71.777 44.746C72.726 44.746 73.194 45.37 73.194 46.059C73.194 46.67 72.869 47.177 72.115 47.645L70.724 48.516C69.255 49.426 68.748 50.557 68.722 52H74.819V50.622H70.646C70.763 50.206 71.101 49.907 71.504 49.66L73.142 48.646C74.156 48.022 74.767 47.125 74.767 46.033C74.767 44.59 73.662 43.381 71.803 43.381C69.892 43.381 68.8 44.694 68.8 46.15C68.8 46.319 68.826 46.514 68.839 46.631L70.347 46.735ZM81.347 48.178C81.477 48.113 81.737 48.035 82.14 48.035C82.855 48.035 83.635 48.451 83.635 49.426C83.635 50.193 83.063 50.856 82.036 50.856C81.1 50.856 80.398 50.193 80.359 49.218L78.838 49.53C78.942 50.934 80.099 52.195 82.049 52.195C84.051 52.195 85.208 50.882 85.208 49.439C85.208 47.814 83.947 46.904 82.686 46.878L84.974 44.876V43.576H79.124V44.941H82.959L80.632 47.021L81.347 48.178ZM86.0892 50.154H90.1452V52H91.6792V50.154H93.0962V48.776H91.6792V43.576H89.6772L86.0892 48.464V50.154ZM90.1452 48.776H87.4932L90.1452 45.149V48.776ZM97.1275 52V43.576H95.7755C95.5935 44.46 94.7615 45.136 93.5525 45.162V46.228H95.5935V52H97.1275ZM100.257 46.735C100.244 46.592 100.218 46.436 100.218 46.306C100.218 45.435 100.699 44.746 101.687 44.746C102.636 44.746 103.104 45.37 103.104 46.059C103.104 46.67 102.779 47.177 102.025 47.645L100.634 48.516C99.1651 49.426 98.6581 50.557 98.6321 52H104.729V50.622H100.556C100.673 50.206 101.011 49.907 101.414 49.66L103.052 48.646C104.066 48.022 104.677 47.125 104.677 46.033C104.677 44.59 103.572 43.381 101.713 43.381C99.8021 43.381 98.7101 44.694 98.7101 46.15C98.7101 46.319 98.7361 46.514 98.7491 46.631L100.257 46.735ZM111.257 48.178C111.387 48.113 111.647 48.035 112.05 48.035C112.765 48.035 113.545 48.451 113.545 49.426C113.545 50.193 112.973 50.856 111.946 50.856C111.01 50.856 110.308 50.193 110.269 49.218L108.748 49.53C108.852 50.934 110.009 52.195 111.959 52.195C113.961 52.195 115.118 50.882 115.118 49.439C115.118 47.814 113.857 46.904 112.596 46.878L114.884 44.876V43.576H109.034V44.941H112.869L110.542 47.021L111.257 48.178ZM115.999 50.154H120.055V52H121.589V50.154H123.006V48.776H121.589V43.576H119.587L115.999 48.464V50.154ZM120.055 48.776H117.403L120.055 45.149V48.776ZM123.616 49.673C123.72 50.999 124.968 52.208 126.788 52.208C128.738 52.208 129.96 50.882 129.96 49.296C129.96 47.528 128.751 46.488 127.074 46.488C126.476 46.488 125.826 46.696 125.462 47.073L125.982 44.941H129.544V43.576H124.929L123.889 47.827L125.358 48.36C125.657 48.022 126.164 47.775 126.762 47.775C127.62 47.775 128.387 48.295 128.387 49.335C128.387 50.271 127.672 50.869 126.788 50.869C125.813 50.869 125.15 50.193 125.085 49.296L123.616 49.673ZM137.251 43.797C136.887 43.563 136.237 43.381 135.457 43.381C132.844 43.381 130.933 45.227 130.933 48.282C130.933 50.44 132.155 52.195 134.3 52.195C136.068 52.195 137.498 51.025 137.498 49.27C137.498 47.541 136.315 46.423 134.638 46.423C133.741 46.423 132.935 46.748 132.493 47.424C132.636 45.786 133.78 44.733 135.366 44.733C136.055 44.733 136.497 44.902 136.809 45.071L137.251 43.797ZM132.662 49.296C132.662 48.308 133.416 47.723 134.3 47.723C135.184 47.723 135.938 48.308 135.938 49.296C135.938 50.271 135.184 50.869 134.3 50.869C133.442 50.869 132.662 50.258 132.662 49.296Z" fill="#262A3C"/>
<path d="M168.176 31.12C169.48 31.12 170.376 30.36 170.68 29.296L169.984 29.04C169.752 29.816 169.144 30.4 168.176 30.4C167.144 30.4 166.16 29.64 166.16 28.16C166.16 26.68 167.144 25.928 168.176 25.928C169.104 25.928 169.728 26.408 169.944 27.264L170.672 27.008C170.384 25.912 169.472 25.208 168.176 25.208C166.768 25.208 165.36 26.264 165.36 28.16C165.36 30.056 166.712 31.12 168.176 31.12ZM173.546 29.992L171.834 25.328H171.002L173.138 31H173.914L176.098 25.328H175.274L173.546 29.992ZM178.882 29.992L177.17 25.328H176.338L178.474 31H179.25L181.434 25.328H180.61L178.882 29.992ZM184.511 25.328H183.783L181.039 31H181.767L184.511 25.328ZM187.403 31.12C188.707 31.12 189.603 30.36 189.907 29.296L189.211 29.04C188.979 29.816 188.371 30.4 187.403 30.4C186.371 30.4 185.387 29.64 185.387 28.16C185.387 26.68 186.371 25.928 187.403 25.928C188.331 25.928 188.955 26.408 189.171 27.264L189.899 27.008C189.611 25.912 188.699 25.208 187.403 25.208C185.995 25.208 184.587 26.264 184.587 28.16C184.587 30.056 185.939 31.12 187.403 31.12ZM192.772 29.992L191.06 25.328H190.228L192.364 31H193.14L195.324 25.328H194.5L192.772 29.992ZM198.379 31.12C199.683 31.12 200.579 30.36 200.883 29.296L200.187 29.04C199.955 29.816 199.347 30.4 198.379 30.4C197.347 30.4 196.363 29.64 196.363 28.16C196.363 26.68 197.347 25.928 198.379 25.928C199.307 25.928 199.931 26.408 200.147 27.264L200.875 27.008C200.587 25.912 199.675 25.208 198.379 25.208C196.971 25.208 195.563 26.264 195.563 28.16C195.563 30.056 196.915 31.12 198.379 31.12Z" fill="#262A3C" fill-opacity="0.5"/>
<path d="M165.756 47.472C165.756 48.828 166.884 49.956 168.252 49.956C169.62 49.956 170.748 48.828 170.748 47.472C170.748 46.08 169.62 44.964 168.252 44.964C166.884 44.964 165.756 46.08 165.756 47.472ZM172.26 47.472C172.26 48.828 173.388 49.956 174.756 49.956C176.124 49.956 177.252 48.828 177.252 47.472C177.252 46.08 176.124 44.964 174.756 44.964C173.388 44.964 172.26 46.08 172.26 47.472ZM178.764 47.472C178.764 48.828 179.892 49.956 181.26 49.956C182.628 49.956 183.756 48.828 183.756 47.472C183.756 46.08 182.628 44.964 181.26 44.964C179.892 44.964 178.764 46.08 178.764 47.472Z" fill="#262A3C"/>
<path d="M23.176 92.12C24.48 92.12 25.376 91.36 25.68 90.296L24.984 90.04C24.752 90.816 24.144 91.4 23.176 91.4C22.144 91.4 21.16 90.64 21.16 89.16C21.16 87.68 22.144 86.928 23.176 86.928C24.104 86.928 24.728 87.408 24.944 88.264L25.672 88.008C25.384 86.912 24.472 86.208 23.176 86.208C21.768 86.208 20.36 87.264 20.36 89.16C20.36 91.056 21.712 92.12 23.176 92.12ZM26.2438 90.968C26.2438 91.576 26.7478 92.12 27.5318 92.12C28.2198 92.12 28.6038 91.752 28.7718 91.48C28.7718 91.76 28.7958 91.904 28.8118 92H29.5478C29.5318 91.904 29.4998 91.704 29.4998 91.368V89.44C29.4998 88.688 29.0518 88.032 27.8997 88.032C27.0678 88.032 26.4038 88.544 26.3238 89.28L27.0438 89.448C27.0918 89 27.3878 88.672 27.9158 88.672C28.4998 88.672 28.7478 88.984 28.7478 89.36C28.7478 89.496 28.6838 89.616 28.4518 89.648L27.4118 89.8C26.7478 89.896 26.2438 90.28 26.2438 90.968ZM27.6358 91.488C27.2518 91.488 27.0118 91.216 27.0118 90.928C27.0118 90.584 27.2518 90.4 27.5718 90.352L28.7478 90.176V90.352C28.7478 91.192 28.2518 91.488 27.6358 91.488ZM32.8073 88.112C32.7673 88.104 32.6633 88.088 32.5593 88.088C32.1673 88.088 31.6873 88.232 31.4073 88.824V88.152H30.6713V92H31.4233V90.072C31.4233 89.224 31.8473 88.888 32.4793 88.888C32.5833 88.888 32.6953 88.896 32.8073 88.912V88.112ZM34.0177 90.064C34.0177 89.272 34.4657 88.712 35.1537 88.712C35.8417 88.712 36.2577 89.256 36.2577 90.048C36.2577 90.84 35.8337 91.44 35.1457 91.44C34.4257 91.44 34.0177 90.856 34.0177 90.064ZM36.2657 91.48C36.2657 91.712 36.2897 91.912 36.3057 92H37.0337C37.0257 91.936 36.9937 91.656 36.9937 91.288V86.208H36.2497V88.696C36.1217 88.384 35.7537 88.048 35.0737 88.048C33.9857 88.048 33.2497 88.976 33.2497 90.064C33.2497 91.208 33.9457 92.104 35.0737 92.104C35.6737 92.104 36.0817 91.784 36.2657 91.416V91.48ZM39.0248 89.736C39.0408 89.168 39.3448 88.72 39.9208 88.72C40.5928 88.72 40.8168 89.152 40.8168 89.688V92H41.5688V89.56C41.5688 88.704 41.1128 88.04 40.1928 88.04C39.7528 88.04 39.3048 88.192 39.0248 88.6V86.208H38.2728V92H39.0248V89.736ZM44.413 91.448C43.773 91.448 43.213 90.968 43.213 90.072C43.213 89.184 43.773 88.704 44.413 88.704C45.053 88.704 45.613 89.184 45.613 90.072C45.613 90.968 45.053 91.448 44.413 91.448ZM44.413 88.032C43.261 88.032 42.445 88.904 42.445 90.072C42.445 91.248 43.261 92.12 44.413 92.12C45.565 92.12 46.381 91.248 46.381 90.072C46.381 88.904 45.565 88.032 44.413 88.032ZM48.0951 92V86.208H47.3431V92H48.0951ZM49.8224 90.064C49.8224 89.272 50.2704 88.712 50.9584 88.712C51.6464 88.712 52.0624 89.256 52.0624 90.048C52.0624 90.84 51.6384 91.44 50.9504 91.44C50.2304 91.44 49.8224 90.856 49.8224 90.064ZM52.0704 91.48C52.0704 91.712 52.0944 91.912 52.1104 92H52.8384C52.8304 91.936 52.7984 91.656 52.7984 91.288V86.208H52.0544V88.696C51.9264 88.384 51.5584 88.048 50.8784 88.048C49.7904 88.048 49.0544 88.976 49.0544 90.064C49.0544 91.208 49.7504 92.104 50.8784 92.104C51.4784 92.104 51.8864 91.784 52.0704 91.416V91.48ZM54.5655 89.68C54.5975 89.184 54.9815 88.696 55.6135 88.696C56.2935 88.696 56.6535 89.128 56.6695 89.68H54.5655ZM56.7815 90.68C56.6375 91.112 56.3255 91.456 55.7015 91.456C55.0535 91.456 54.5575 90.976 54.5415 90.288H57.4375C57.4455 90.24 57.4535 90.144 57.4535 90.048C57.4535 88.848 56.7895 88.032 55.6055 88.032C54.6375 88.032 53.7655 88.856 53.7655 90.064C53.7655 91.368 54.6695 92.12 55.7015 92.12C56.5975 92.12 57.2135 91.584 57.4295 90.904L56.7815 90.68ZM60.5494 88.112C60.5094 88.104 60.4054 88.088 60.3014 88.088C59.9094 88.088 59.4294 88.232 59.1494 88.824V88.152H58.4134V92H59.1654V90.072C59.1654 89.224 59.5894 88.888 60.2214 88.888C60.3254 88.888 60.4374 88.896 60.5494 88.912V88.112ZM64.1029 89.776C64.1029 89.192 64.4069 88.72 64.9989 88.72C65.6709 88.72 65.8949 89.152 65.8949 89.688V92H66.6469V89.56C66.6469 88.704 66.1909 88.04 65.2709 88.04C64.8229 88.04 64.3669 88.224 64.0869 88.704V88.152H63.3509V92H64.1029V89.776ZM67.6031 90.968C67.6031 91.576 68.1071 92.12 68.8911 92.12C69.5791 92.12 69.9631 91.752 70.1311 91.48C70.1311 91.76 70.1551 91.904 70.1711 92H70.9071C70.8911 91.904 70.8591 91.704 70.8591 91.368V89.44C70.8591 88.688 70.4111 88.032 69.2591 88.032C68.4271 88.032 67.7631 88.544 67.6831 89.28L68.4031 89.448C68.4511 89 68.7471 88.672 69.2751 88.672C69.8591 88.672 70.1071 88.984 70.1071 89.36C70.1071 89.496 70.0431 89.616 69.8111 89.648L68.7711 89.8C68.1071 89.896 67.6031 90.28 67.6031 90.968ZM68.9951 91.488C68.6111 91.488 68.3711 91.216 68.3711 90.928C68.3711 90.584 68.6111 90.4 68.9311 90.352L70.1071 90.176V90.352C70.1071 91.192 69.6111 91.488 68.9951 91.488ZM72.7746 92V89.68C72.7746 89.104 73.1346 88.704 73.6706 88.704C74.2466 88.704 74.4866 89.088 74.4866 89.584V92H75.2386V89.672C75.2386 89.12 75.5986 88.704 76.1266 88.704C76.6946 88.704 76.9426 89.08 76.9426 89.584V92H77.6866V89.504C77.6866 88.496 77.0306 88.04 76.3586 88.04C75.8706 88.04 75.3746 88.216 75.0706 88.768C74.8626 88.272 74.3986 88.04 73.9186 88.04C73.4706 88.04 72.9906 88.24 72.7506 88.664V88.152H72.0306V92H72.7746ZM79.378 89.68C79.41 89.184 79.794 88.696 80.426 88.696C81.106 88.696 81.466 89.128 81.482 89.68H79.378ZM81.594 90.68C81.45 91.112 81.138 91.456 80.514 91.456C79.866 91.456 79.37 90.976 79.354 90.288H82.25C82.258 90.24 82.266 90.144 82.266 90.048C82.266 88.848 81.602 88.032 80.418 88.032C79.45 88.032 78.578 88.856 78.578 90.064C78.578 91.368 79.482 92.12 80.514 92.12C81.41 92.12 82.026 91.584 82.242 90.904L81.594 90.68Z" fill="#262A3C" fill-opacity="0.5"/>
<path d="M26.41 113H28.113L24.525 103.783H22.718L19.13 113H20.781L21.639 110.686H25.539L26.41 113ZM23.589 105.473L24.993 109.243H22.185L23.589 105.473ZM33.0462 112.298C33.0462 112.558 33.0722 112.857 33.0982 113H34.5412C34.5152 112.766 34.4762 112.363 34.4762 111.843V106.669H32.9682V110.413C32.9682 111.245 32.5132 111.83 31.6422 111.83C30.7322 111.83 30.3682 111.167 30.3682 110.387V106.669H28.8602V110.66C28.8602 112.064 29.7442 113.182 31.2522 113.182C31.9932 113.182 32.7342 112.87 33.0462 112.298ZM35.8691 111.284C35.9471 111.999 36.6491 113.195 38.4821 113.195C40.0941 113.195 40.8741 112.129 40.8741 111.167C40.8741 110.231 40.2501 109.503 39.0541 109.243L38.0921 109.048C37.7021 108.97 37.4551 108.723 37.4551 108.385C37.4551 107.995 37.8321 107.657 38.3651 107.657C39.2101 107.657 39.4831 108.242 39.5351 108.606L40.8091 108.242C40.7051 107.618 40.1331 106.474 38.3651 106.474C37.0521 106.474 36.0381 107.41 36.0381 108.515C36.0381 109.386 36.6231 110.114 37.7411 110.361L38.6771 110.569C39.1841 110.673 39.4181 110.933 39.4181 111.271C39.4181 111.661 39.0931 111.999 38.4691 111.999C37.6631 111.999 37.2341 111.492 37.1821 110.92L35.8691 111.284ZM44.2805 104.732H42.9155V105.681C42.9155 106.24 42.6165 106.669 41.9405 106.669H41.6155V108.008H42.7855V111.193C42.7855 112.376 43.5135 113.078 44.6835 113.078C45.2295 113.078 45.5155 112.974 45.6065 112.935V111.687C45.5415 111.7 45.2945 111.739 45.0865 111.739C44.5275 111.739 44.2805 111.505 44.2805 110.946V108.008H45.5935V106.669H44.2805V104.732ZM48.638 113V106.669H47.143V113H48.638ZM46.909 104.446C46.909 104.992 47.351 105.421 47.884 105.421C48.43 105.421 48.872 104.992 48.872 104.446C48.872 103.9 48.43 103.458 47.884 103.458C47.351 103.458 46.909 103.9 46.909 104.446ZM52.0914 109.347C52.0914 108.515 52.5464 107.852 53.4044 107.852C54.3534 107.852 54.7044 108.476 54.7044 109.256V113H56.2124V108.996C56.2124 107.605 55.4714 106.487 53.9244 106.487C53.2224 106.487 52.4684 106.786 52.0524 107.514V106.669H50.5834V113H52.0914V109.347ZM67.0579 113H69.0209L65.2509 107.852L68.9819 103.783H66.9279L62.9629 108.203V103.783H61.4029V113H62.9629V110.348L64.1849 109.009L67.0579 113ZM71.6673 113V106.669H70.1723V113H71.6673ZM69.9383 104.446C69.9383 104.992 70.3803 105.421 70.9133 105.421C71.4593 105.421 71.9013 104.992 71.9013 104.446C71.9013 103.9 71.4593 103.458 70.9133 103.458C70.3803 103.458 69.9383 103.9 69.9383 104.446ZM75.1077 113V109.243C75.1077 108.437 75.6147 107.839 76.4207 107.839C77.2787 107.839 77.6427 108.411 77.6427 109.139V113H79.1247V109.243C79.1247 108.463 79.6447 107.839 80.4377 107.839C81.2827 107.839 81.6597 108.398 81.6597 109.139V113H83.1157V108.892C83.1157 107.215 82.0237 106.487 80.8797 106.487C80.0607 106.487 79.3197 106.773 78.8257 107.605C78.4877 106.864 77.7597 106.487 76.9277 106.487C76.2127 106.487 75.4197 106.825 75.0557 107.475V106.669H73.6127V113H75.1077ZM86.4573 113V109.243C86.4573 108.437 86.9643 107.839 87.7703 107.839C88.6283 107.839 88.9923 108.411 88.9923 109.139V113H90.4743V109.243C90.4743 108.463 90.9943 107.839 91.7873 107.839C92.6323 107.839 93.0093 108.398 93.0093 109.139V113H94.4653V108.892C94.4653 107.215 93.3733 106.487 92.2293 106.487C91.4103 106.487 90.6693 106.773 90.1753 107.605C89.8373 106.864 89.1093 106.487 88.2773 106.487C87.5623 106.487 86.7693 106.825 86.4053 107.475V106.669H84.9623V113H86.4573Z" fill="#262A3C"/>
<path d="M22.08 157.576V160H22.864V157.576L24.864 154.328H23.968L22.496 156.856L21.024 154.328H20.08L22.08 157.576ZM26.5146 159.448C25.8746 159.448 25.3146 158.968 25.3146 158.072C25.3146 157.184 25.8746 156.704 26.5146 156.704C27.1546 156.704 27.7146 157.184 27.7146 158.072C27.7146 158.968 27.1546 159.448 26.5146 159.448ZM26.5146 156.032C25.3626 156.032 24.5466 156.904 24.5466 158.072C24.5466 159.248 25.3626 160.12 26.5146 160.12C27.6666 160.12 28.4826 159.248 28.4826 158.072C28.4826 156.904 27.6666 156.032 26.5146 156.032ZM31.9416 159.536C31.9416 159.696 31.9576 159.912 31.9736 160H32.6936C32.6776 159.864 32.6536 159.592 32.6536 159.288V156.152H31.9016V158.472C31.9016 159.056 31.5976 159.456 30.9896 159.456C30.3576 159.456 30.1176 158.992 30.1176 158.464V156.152H29.3656V158.576C29.3656 159.448 29.9096 160.12 30.8056 160.12C31.2536 160.12 31.7336 159.936 31.9416 159.536ZM36.6809 161.52V159.48C36.8889 159.824 37.3369 160.104 37.9289 160.104C39.0569 160.104 39.7209 159.216 39.7209 158.072C39.7209 156.952 39.1049 156.064 37.9529 156.064C37.3289 156.064 36.8729 156.368 36.6649 156.752V156.152H35.9369V161.52H36.6809ZM38.9529 158.072C38.9529 158.864 38.5129 159.432 37.8169 159.432C37.1289 159.432 36.6729 158.864 36.6729 158.072C36.6729 157.304 37.1289 156.728 37.8169 156.728C38.5209 156.728 38.9529 157.304 38.9529 158.072ZM40.4391 158.968C40.4391 159.576 40.9431 160.12 41.7271 160.12C42.4151 160.12 42.7991 159.752 42.9671 159.48C42.9671 159.76 42.9911 159.904 43.0071 160H43.7431C43.7271 159.904 43.6951 159.704 43.6951 159.368V157.44C43.6951 156.688 43.2471 156.032 42.0951 156.032C41.2631 156.032 40.5991 156.544 40.5191 157.28L41.2391 157.448C41.2871 157 41.5831 156.672 42.1111 156.672C42.6951 156.672 42.9431 156.984 42.9431 157.36C42.9431 157.496 42.8791 157.616 42.6471 157.648L41.6071 157.8C40.9431 157.896 40.4391 158.28 40.4391 158.968ZM41.8311 159.488C41.4471 159.488 41.2071 159.216 41.2071 158.928C41.2071 158.584 41.4471 158.4 41.7671 158.352L42.9431 158.176V158.352C42.9431 159.192 42.4471 159.488 41.8311 159.488ZM45.7484 161.608L48.2524 156.152H47.4444L46.2924 158.808L45.0924 156.152H44.2284L45.8844 159.576L44.9244 161.608H45.7484Z" fill="#262A3C" fill-opacity="0.5"/>
<path d="M21.296 177.464C21.296 176.316 21.492 175.434 21.94 174.874C22.248 174.468 22.682 174.202 23.34 174.202C23.998 174.202 24.418 174.468 24.74 174.874C25.174 175.434 25.37 176.316 25.37 177.464C25.37 178.612 25.174 179.494 24.74 180.054C24.418 180.46 23.998 180.726 23.34 180.726C22.682 180.726 22.248 180.46 21.94 180.054C21.506 179.494 21.296 178.612 21.296 177.464ZM19.63 177.464C19.63 178.668 19.826 179.802 20.442 180.726C21.03 181.608 21.982 182.21 23.34 182.21C24.698 182.21 25.636 181.608 26.224 180.726C26.84 179.802 27.036 178.668 27.036 177.464C27.036 176.26 26.84 175.126 26.224 174.202C25.636 173.32 24.698 172.718 23.34 172.718C21.982 172.718 21.03 173.32 20.442 174.202C19.826 175.126 19.63 176.26 19.63 177.464ZM28.0454 180.95C28.0454 181.58 28.5494 182.084 29.1794 182.084C29.8094 182.084 30.3274 181.58 30.3274 180.95C30.3274 180.32 29.8094 179.802 29.1794 179.802C28.5494 179.802 28.0454 180.32 28.0454 180.95ZM33.2726 177.464C33.2726 176.316 33.4686 175.434 33.9166 174.874C34.2246 174.468 34.6586 174.202 35.3166 174.202C35.9746 174.202 36.3946 174.468 36.7166 174.874C37.1506 175.434 37.3466 176.316 37.3466 177.464C37.3466 178.612 37.1506 179.494 36.7166 180.054C36.3946 180.46 35.9746 180.726 35.3166 180.726C34.6586 180.726 34.2246 180.46 33.9166 180.054C33.4826 179.494 33.2726 178.612 33.2726 177.464ZM31.6066 177.464C31.6066 178.668 31.8026 179.802 32.4186 180.726C33.0066 181.608 33.9586 182.21 35.3166 182.21C36.6746 182.21 37.6126 181.608 38.2006 180.726C38.8166 179.802 39.0126 178.668 39.0126 177.464C39.0126 176.26 38.8166 175.126 38.2006 174.202C37.6126 173.32 36.6746 172.718 35.3166 172.718C33.9586 172.718 33.0066 173.32 32.4186 174.202C31.8026 175.126 31.6066 176.26 31.6066 177.464ZM42.6695 177.884C42.8095 177.814 43.0895 177.73 43.5235 177.73C44.2935 177.73 45.1335 178.178 45.1335 179.228C45.1335 180.054 44.5175 180.768 43.4115 180.768C42.4035 180.768 41.6475 180.054 41.6055 179.004L39.9675 179.34C40.0795 180.852 41.3255 182.21 43.4255 182.21C45.5815 182.21 46.8275 180.796 46.8275 179.242C46.8275 177.492 45.4695 176.512 44.1115 176.484L46.5755 174.328V172.928H40.2755V174.398H44.4055L41.8995 176.638L42.6695 177.884Z" fill="#262A3C"/>
<path d="M77.19 172.074V182H80.858C82.706 182 83.938 180.852 83.938 179.256C83.938 178.08 83.21 177.17 82.16 176.89C83.014 176.582 83.63 175.798 83.63 174.748C83.63 173.194 82.51 172.074 80.606 172.074H77.19ZM78.856 176.274V173.502H80.34C81.362 173.502 81.95 174.048 81.95 174.888C81.95 175.714 81.362 176.274 80.382 176.274H78.856ZM78.856 180.572V177.688H80.62C81.656 177.688 82.23 178.29 82.23 179.144C82.23 180.026 81.572 180.572 80.564 180.572H78.856ZM92.8473 173.656V172.074H84.7133V173.656H87.9333V182H89.6133V173.656H92.8473ZM98.3207 182.21C100.855 182.21 102.367 180.6 102.815 178.92L101.275 178.416C100.939 179.536 99.9867 180.6 98.3207 180.6C96.6267 180.6 95.0307 179.368 95.0307 177.044C95.0307 174.636 96.6687 173.446 98.3067 173.446C99.9727 173.446 100.897 174.412 101.191 175.616L102.773 175.084C102.325 173.348 100.827 171.864 98.3067 171.864C95.7307 171.864 93.3087 173.81 93.3087 177.044C93.3087 180.278 95.6467 182.21 98.3207 182.21Z" fill="#262A3C"/>
<path d="M192.774 182.21C194.86 182.21 196.484 180.936 196.484 178.542V172.074H194.804V178.444C194.804 179.844 194.048 180.614 192.774 180.614C191.514 180.614 190.744 179.844 190.744 178.444V172.074H189.078V178.542C189.078 180.936 190.702 182.21 192.774 182.21ZM205.271 174.398C205.047 173.292 204.137 171.864 201.799 171.864C199.951 171.864 198.425 173.236 198.425 174.902C198.425 176.386 199.433 177.38 200.945 177.688L202.345 177.982C203.199 178.164 203.675 178.682 203.675 179.326C203.675 180.096 203.059 180.698 201.869 180.698C200.441 180.698 199.699 179.746 199.601 178.71L198.033 179.158C198.187 180.586 199.349 182.21 201.869 182.21C204.137 182.21 205.383 180.74 205.383 179.2C205.383 177.8 204.445 176.694 202.695 176.344L201.267 176.05C200.497 175.882 200.105 175.406 200.105 174.776C200.105 174.02 200.805 173.348 201.813 173.348C203.143 173.348 203.661 174.258 203.759 174.874L205.271 174.398ZM208.808 180.46V173.614H210.586C212.308 173.614 213.722 174.734 213.722 177.058C213.722 179.354 212.294 180.46 210.572 180.46H208.808ZM210.628 182C213.316 182 215.472 180.236 215.472 177.058C215.472 173.866 213.344 172.074 210.642 172.074H207.128V182H210.628Z" fill="#262A3C"/>
<path d="M133.08 157.576V160H133.864V157.576L135.864 154.328H134.968L133.496 156.856L132.024 154.328H131.08L133.08 157.576ZM137.515 159.448C136.875 159.448 136.315 158.968 136.315 158.072C136.315 157.184 136.875 156.704 137.515 156.704C138.155 156.704 138.715 157.184 138.715 158.072C138.715 158.968 138.155 159.448 137.515 159.448ZM137.515 156.032C136.363 156.032 135.547 156.904 135.547 158.072C135.547 159.248 136.363 160.12 137.515 160.12C138.667 160.12 139.483 159.248 139.483 158.072C139.483 156.904 138.667 156.032 137.515 156.032ZM142.942 159.536C142.942 159.696 142.958 159.912 142.974 160H143.694C143.678 159.864 143.654 159.592 143.654 159.288V156.152H142.902V158.472C142.902 159.056 142.598 159.456 141.99 159.456C141.358 159.456 141.118 158.992 141.118 158.464V156.152H140.366V158.576C140.366 159.448 140.91 160.12 141.806 160.12C142.254 160.12 142.734 159.936 142.942 159.536ZM146.657 160.208C146.753 161.032 147.473 161.64 148.433 161.64C149.881 161.64 150.361 160.688 150.361 159.712V156.152H149.617V156.688C149.425 156.304 149.025 156.08 148.433 156.08C147.377 156.08 146.665 156.912 146.665 157.952C146.665 159.04 147.409 159.816 148.433 159.816C149.009 159.816 149.425 159.536 149.609 159.184V159.736C149.609 160.568 149.241 160.984 148.433 160.984C147.849 160.984 147.441 160.576 147.385 160.04L146.657 160.208ZM148.545 159.184C147.865 159.184 147.433 158.704 147.433 157.952C147.433 157.208 147.881 156.72 148.545 156.72C149.193 156.72 149.641 157.208 149.641 157.952C149.641 158.696 149.193 159.184 148.545 159.184ZM152.05 157.68C152.082 157.184 152.466 156.696 153.098 156.696C153.778 156.696 154.138 157.128 154.154 157.68H152.05ZM154.266 158.68C154.122 159.112 153.81 159.456 153.186 159.456C152.538 159.456 152.042 158.976 152.026 158.288H154.922C154.93 158.24 154.938 158.144 154.938 158.048C154.938 156.848 154.274 156.032 153.09 156.032C152.122 156.032 151.25 156.856 151.25 158.064C151.25 159.368 152.154 160.12 153.186 160.12C154.082 160.12 154.698 159.584 154.914 158.904L154.266 158.68ZM156.906 154.936H156.218V155.56C156.218 155.896 156.042 156.152 155.626 156.152H155.418V156.832H156.154V158.944C156.154 159.64 156.57 160.04 157.226 160.04C157.482 160.04 157.674 159.992 157.738 159.968V159.328C157.674 159.344 157.538 159.36 157.442 159.36C157.05 159.36 156.906 159.184 156.906 158.832V156.832H157.738V156.152H156.906V154.936Z" fill="#262A3C" fill-opacity="0.5"/>
<path d="M134.066 177.884C134.206 177.814 134.486 177.73 134.92 177.73C135.69 177.73 136.53 178.178 136.53 179.228C136.53 180.054 135.914 180.768 134.808 180.768C133.8 180.768 133.044 180.054 133.002 179.004L131.364 179.34C131.476 180.852 132.722 182.21 134.822 182.21C136.978 182.21 138.224 180.796 138.224 179.242C138.224 177.492 136.866 176.512 135.508 176.484L137.972 174.328V172.928H131.672V174.398H135.802L133.296 176.638L134.066 177.884ZM140.98 177.464C140.98 176.316 141.176 175.434 141.624 174.874C141.932 174.468 142.366 174.202 143.024 174.202C143.682 174.202 144.102 174.468 144.424 174.874C144.858 175.434 145.054 176.316 145.054 177.464C145.054 178.612 144.858 179.494 144.424 180.054C144.102 180.46 143.682 180.726 143.024 180.726C142.366 180.726 141.932 180.46 141.624 180.054C141.19 179.494 140.98 178.612 140.98 177.464ZM139.314 177.464C139.314 178.668 139.51 179.802 140.126 180.726C140.714 181.608 141.666 182.21 143.024 182.21C144.382 182.21 145.32 181.608 145.908 180.726C146.524 179.802 146.72 178.668 146.72 177.464C146.72 176.26 146.524 175.126 145.908 174.202C145.32 173.32 144.382 172.718 143.024 172.718C141.666 172.718 140.714 173.32 140.126 174.202C139.51 175.126 139.314 176.26 139.314 177.464ZM149.607 177.464C149.607 176.316 149.803 175.434 150.251 174.874C150.559 174.468 150.993 174.202 151.651 174.202C152.309 174.202 152.729 174.468 153.051 174.874C153.485 175.434 153.681 176.316 153.681 177.464C153.681 178.612 153.485 179.494 153.051 180.054C152.729 180.46 152.309 180.726 151.651 180.726C150.993 180.726 150.559 180.46 150.251 180.054C149.817 179.494 149.607 178.612 149.607 177.464ZM147.941 177.464C147.941 178.668 148.137 179.802 148.753 180.726C149.341 181.608 150.293 182.21 151.651 182.21C153.009 182.21 153.947 181.608 154.535 180.726C155.151 179.802 155.347 178.668 155.347 177.464C155.347 176.26 155.151 175.126 154.535 174.202C153.947 173.32 153.009 172.718 151.651 172.718C150.293 172.718 149.341 173.32 148.753 174.202C148.137 175.126 147.941 176.26 147.941 177.464Z" fill="#262A3C"/>
<path d="M169.168 92V91.272H166.504V89.536H168.92V88.8H166.504V87.056H169.168V86.328H165.72V92H169.168ZM169.728 92H170.624L171.6 90.584L172.592 92H173.496C173.264 91.688 172.312 90.352 172.08 90.04L173.448 88.152H172.56L171.632 89.504L170.688 88.152H169.776L171.16 90.04L169.728 92ZM174.962 93.52V91.48C175.17 91.824 175.618 92.104 176.21 92.104C177.338 92.104 178.002 91.216 178.002 90.072C178.002 88.952 177.386 88.064 176.234 88.064C175.61 88.064 175.154 88.368 174.946 88.752V88.152H174.218V93.52H174.962ZM177.234 90.072C177.234 90.864 176.794 91.432 176.098 91.432C175.41 91.432 174.954 90.864 174.954 90.072C174.954 89.304 175.41 88.728 176.098 88.728C176.802 88.728 177.234 89.304 177.234 90.072ZM179.704 92V88.152H178.96V92H179.704ZM178.792 86.696C178.792 86.992 179.032 87.232 179.328 87.232C179.632 87.232 179.872 86.992 179.872 86.696C179.872 86.392 179.632 86.152 179.328 86.152C179.032 86.152 178.792 86.392 178.792 86.696ZM183.12 88.112C183.08 88.104 182.976 88.088 182.872 88.088C182.48 88.088 182 88.232 181.72 88.824V88.152H180.984V92H181.736V90.072C181.736 89.224 182.16 88.888 182.792 88.888C182.896 88.888 183.008 88.896 183.12 88.912V88.112ZM183.681 90.968C183.681 91.576 184.185 92.12 184.969 92.12C185.657 92.12 186.041 91.752 186.209 91.48C186.209 91.76 186.233 91.904 186.249 92H186.985C186.969 91.904 186.937 91.704 186.937 91.368V89.44C186.937 88.688 186.489 88.032 185.337 88.032C184.505 88.032 183.841 88.544 183.761 89.28L184.481 89.448C184.529 89 184.825 88.672 185.353 88.672C185.937 88.672 186.185 88.984 186.185 89.36C186.185 89.496 186.121 89.616 185.889 89.648L184.849 89.8C184.185 89.896 183.681 90.28 183.681 90.968ZM185.073 91.488C184.689 91.488 184.449 91.216 184.449 90.928C184.449 90.584 184.689 90.4 185.009 90.352L186.185 90.176V90.352C186.185 91.192 185.689 91.488 185.073 91.488ZM189.117 86.936H188.429V87.56C188.429 87.896 188.253 88.152 187.837 88.152H187.629V88.832H188.365V90.944C188.365 91.64 188.781 92.04 189.437 92.04C189.693 92.04 189.885 91.992 189.949 91.968V91.328C189.885 91.344 189.749 91.36 189.653 91.36C189.261 91.36 189.117 91.184 189.117 90.832V88.832H189.949V88.152H189.117V86.936ZM191.697 92V88.152H190.953V92H191.697ZM190.785 86.696C190.785 86.992 191.025 87.232 191.321 87.232C191.625 87.232 191.865 86.992 191.865 86.696C191.865 86.392 191.625 86.152 191.321 86.152C191.025 86.152 190.785 86.392 190.785 86.696ZM194.624 91.448C193.984 91.448 193.424 90.968 193.424 90.072C193.424 89.184 193.984 88.704 194.624 88.704C195.264 88.704 195.824 89.184 195.824 90.072C195.824 90.968 195.264 91.448 194.624 91.448ZM194.624 88.032C193.472 88.032 192.656 88.904 192.656 90.072C192.656 91.248 193.472 92.12 194.624 92.12C195.776 92.12 196.592 91.248 196.592 90.072C196.592 88.904 195.776 88.032 194.624 88.032ZM198.306 89.776C198.306 89.192 198.61 88.72 199.202 88.72C199.874 88.72 200.098 89.152 200.098 89.688V92H200.85V89.56C200.85 88.704 200.394 88.04 199.474 88.04C199.026 88.04 198.57 88.224 198.29 88.704V88.152H197.554V92H198.306V89.776ZM204.494 90.064C204.494 89.272 204.942 88.712 205.63 88.712C206.318 88.712 206.734 89.256 206.734 90.048C206.734 90.84 206.31 91.44 205.622 91.44C204.902 91.44 204.494 90.856 204.494 90.064ZM206.742 91.48C206.742 91.712 206.766 91.912 206.782 92H207.51C207.502 91.936 207.47 91.656 207.47 91.288V86.208H206.726V88.696C206.598 88.384 206.23 88.048 205.55 88.048C204.462 88.048 203.726 88.976 203.726 90.064C203.726 91.208 204.422 92.104 205.55 92.104C206.15 92.104 206.558 91.784 206.742 91.416V91.48ZM208.509 90.968C208.509 91.576 209.013 92.12 209.797 92.12C210.485 92.12 210.869 91.752 211.037 91.48C211.037 91.76 211.061 91.904 211.077 92H211.813C211.797 91.904 211.765 91.704 211.765 91.368V89.44C211.765 88.688 211.317 88.032 210.165 88.032C209.333 88.032 208.669 88.544 208.589 89.28L209.309 89.448C209.357 89 209.653 88.672 210.181 88.672C210.765 88.672 211.013 88.984 211.013 89.36C211.013 89.496 210.949 89.616 210.717 89.648L209.677 89.8C209.013 89.896 208.509 90.28 208.509 90.968ZM209.901 91.488C209.517 91.488 209.277 91.216 209.277 90.928C209.277 90.584 209.517 90.4 209.837 90.352L211.013 90.176V90.352C211.013 91.192 210.517 91.488 209.901 91.488ZM213.945 86.936H213.257V87.56C213.257 87.896 213.081 88.152 212.665 88.152H212.457V88.832H213.193V90.944C213.193 91.64 213.609 92.04 214.265 92.04C214.521 92.04 214.713 91.992 214.777 91.968V91.328C214.713 91.344 214.577 91.36 214.481 91.36C214.089 91.36 213.945 91.184 213.945 90.832V88.832H214.777V88.152H213.945V86.936ZM216.23 89.68C216.262 89.184 216.646 88.696 217.278 88.696C217.958 88.696 218.318 89.128 218.334 89.68H216.23ZM218.446 90.68C218.302 91.112 217.99 91.456 217.366 91.456C216.718 91.456 216.222 90.976 216.206 90.288H219.102C219.11 90.24 219.118 90.144 219.118 90.048C219.118 88.848 218.454 88.032 217.27 88.032C216.302 88.032 215.43 88.856 215.43 90.064C215.43 91.368 216.334 92.12 217.366 92.12C218.262 92.12 218.878 91.584 219.094 90.904L218.446 90.68Z" fill="#262A3C" fill-opacity="0.5"/>
<path d="M169.242 114V104.928H167.786C167.59 105.88 166.694 106.608 165.392 106.636V107.784H167.59V114H169.242ZM172.612 108.33C172.598 108.176 172.57 108.008 172.57 107.868C172.57 106.93 173.088 106.188 174.152 106.188C175.174 106.188 175.678 106.86 175.678 107.602C175.678 108.26 175.328 108.806 174.516 109.31L173.018 110.248C171.436 111.228 170.89 112.446 170.862 114H177.428V112.516H172.934C173.06 112.068 173.424 111.746 173.858 111.48L175.622 110.388C176.714 109.716 177.372 108.75 177.372 107.574C177.372 106.02 176.182 104.718 174.18 104.718C172.122 104.718 170.946 106.132 170.946 107.7C170.946 107.882 170.974 108.092 170.988 108.218L172.612 108.33ZM184.345 104.004H182.847L177.961 114.07H179.459L184.345 104.004ZM187.412 109.884C187.552 109.814 187.832 109.73 188.266 109.73C189.036 109.73 189.876 110.178 189.876 111.228C189.876 112.054 189.26 112.768 188.154 112.768C187.146 112.768 186.39 112.054 186.348 111.004L184.71 111.34C184.822 112.852 186.068 114.21 188.168 114.21C190.324 114.21 191.57 112.796 191.57 111.242C191.57 109.492 190.212 108.512 188.854 108.484L191.318 106.328V104.928H185.018V106.398H189.148L186.642 108.638L187.412 109.884ZM195.123 109.884C195.263 109.814 195.543 109.73 195.977 109.73C196.747 109.73 197.587 110.178 197.587 111.228C197.587 112.054 196.971 112.768 195.865 112.768C194.857 112.768 194.101 112.054 194.059 111.004L192.421 111.34C192.533 112.852 193.779 114.21 195.879 114.21C198.035 114.21 199.281 112.796 199.281 111.242C199.281 109.492 197.923 108.512 196.565 108.484L199.029 106.328V104.928H192.729V106.398H196.859L194.353 108.638L195.123 109.884Z" fill="#262A3C"/>
</svg>
