<svg width="311" height="220" viewBox="0 0 311 220" fill="none" xmlns="http://www.w3.org/2000/svg">
<rect width="311" height="220" rx="12" fill="#FCD846"/>
<path d="M28.176 31.12C29.48 31.12 30.376 30.36 30.68 29.296L29.984 29.04C29.752 29.816 29.144 30.4 28.176 30.4C27.144 30.4 26.16 29.64 26.16 28.16C26.16 26.68 27.144 25.928 28.176 25.928C29.104 25.928 29.728 26.408 29.944 27.264L30.672 27.008C30.384 25.912 29.472 25.208 28.176 25.208C26.768 25.208 25.36 26.264 25.36 28.16C25.36 30.056 26.712 31.12 28.176 31.12ZM31.2438 29.968C31.2438 30.576 31.7478 31.12 32.5318 31.12C33.2198 31.12 33.6038 30.752 33.7718 30.48C33.7718 30.76 33.7958 30.904 33.8118 31H34.5478C34.5318 30.904 34.4998 30.704 34.4998 30.368V28.44C34.4998 27.688 34.0518 27.032 32.8997 27.032C32.0678 27.032 31.4038 27.544 31.3238 28.28L32.0438 28.448C32.0918 28 32.3878 27.672 32.9158 27.672C33.4998 27.672 33.7478 27.984 33.7478 28.36C33.7478 28.496 33.6838 28.616 33.4518 28.648L32.4118 28.8C31.7478 28.896 31.2438 29.28 31.2438 29.968ZM32.6358 30.488C32.2518 30.488 32.0118 30.216 32.0118 29.928C32.0118 29.584 32.2518 29.4 32.5718 29.352L33.7478 29.176V29.352C33.7478 30.192 33.2518 30.488 32.6358 30.488ZM37.8073 27.112C37.7673 27.104 37.6633 27.088 37.5593 27.088C37.1673 27.088 36.6873 27.232 36.4073 27.824V27.152H35.6713V31H36.4233V29.072C36.4233 28.224 36.8473 27.888 37.4793 27.888C37.5833 27.888 37.6953 27.896 37.8073 27.912V27.112ZM39.0177 29.064C39.0177 28.272 39.4657 27.712 40.1537 27.712C40.8417 27.712 41.2577 28.256 41.2577 29.048C41.2577 29.84 40.8337 30.44 40.1457 30.44C39.4257 30.44 39.0177 29.856 39.0177 29.064ZM41.2657 30.48C41.2657 30.712 41.2897 30.912 41.3057 31H42.0337C42.0257 30.936 41.9937 30.656 41.9937 30.288V25.208H41.2497V27.696C41.1217 27.384 40.7537 27.048 40.0737 27.048C38.9857 27.048 38.2497 27.976 38.2497 29.064C38.2497 30.208 38.9457 31.104 40.0737 31.104C40.6737 31.104 41.0817 30.784 41.2657 30.416V30.48ZM46.0248 28.776C46.0248 28.192 46.3288 27.72 46.9208 27.72C47.5928 27.72 47.8168 28.152 47.8168 28.688V31H48.5688V28.56C48.5688 27.704 48.1128 27.04 47.1928 27.04C46.7448 27.04 46.2888 27.224 46.0088 27.704V27.152H45.2728V31H46.0248V28.776ZM52.2229 30.536C52.2229 30.696 52.2389 30.912 52.2549 31H52.9749C52.9589 30.864 52.9349 30.592 52.9349 30.288V27.152H52.1829V29.472C52.1829 30.056 51.8789 30.456 51.2709 30.456C50.6389 30.456 50.3989 29.992 50.3989 29.464V27.152H49.6469V29.576C49.6469 30.448 50.1909 31.12 51.0869 31.12C51.5349 31.12 52.0149 30.936 52.2229 30.536ZM54.9621 31V28.68C54.9621 28.104 55.3221 27.704 55.8581 27.704C56.4341 27.704 56.6741 28.088 56.6741 28.584V31H57.4261V28.672C57.4261 28.12 57.7861 27.704 58.3141 27.704C58.8821 27.704 59.1301 28.08 59.1301 28.584V31H59.8741V28.504C59.8741 27.496 59.2181 27.04 58.5461 27.04C58.0581 27.04 57.5621 27.216 57.2581 27.768C57.0501 27.272 56.5861 27.04 56.1061 27.04C55.6581 27.04 55.1781 27.24 54.9381 27.664V27.152H54.2181V31H54.9621ZM61.8215 31V30.44C62.0615 30.856 62.5015 31.104 63.0695 31.104C64.2135 31.104 64.8615 30.2 64.8615 29.056C64.8615 27.936 64.2615 27.04 63.0935 27.04C62.4535 27.04 62.0055 27.352 61.8215 27.696V25.208H61.0775V31H61.8215ZM64.0935 29.056C64.0935 29.888 63.6455 30.432 62.9575 30.432C62.2935 30.432 61.8135 29.888 61.8135 29.056C61.8135 28.224 62.2935 27.704 62.9575 27.704C63.6535 27.704 64.0935 28.224 64.0935 29.056ZM66.3077 28.68C66.3397 28.184 66.7237 27.696 67.3557 27.696C68.0357 27.696 68.3957 28.128 68.4117 28.68H66.3077ZM68.5237 29.68C68.3797 30.112 68.0677 30.456 67.4437 30.456C66.7957 30.456 66.2997 29.976 66.2837 29.288H69.1797C69.1877 29.24 69.1957 29.144 69.1957 29.048C69.1957 27.848 68.5317 27.032 67.3477 27.032C66.3797 27.032 65.5077 27.856 65.5077 29.064C65.5077 30.368 66.4117 31.12 67.4437 31.12C68.3397 31.12 68.9557 30.584 69.1717 29.904L68.5237 29.68ZM72.2916 27.112C72.2516 27.104 72.1476 27.088 72.0436 27.088C71.6516 27.088 71.1716 27.232 70.8916 27.824V27.152H70.1556V31H70.9076V29.072C70.9076 28.224 71.3316 27.888 71.9636 27.888C72.0676 27.888 72.1796 27.896 72.2916 27.912V27.112Z" fill="#262A3C" fill-opacity="0.5"/>
<path d="M25.448 50.494C25.56 51.922 26.904 53.224 28.864 53.224C30.964 53.224 32.28 51.796 32.28 50.088C32.28 48.184 30.978 47.064 29.172 47.064C28.528 47.064 27.828 47.288 27.436 47.694L27.996 45.398H31.832V43.928H26.862L25.742 48.506L27.324 49.08C27.646 48.716 28.192 48.45 28.836 48.45C29.76 48.45 30.586 49.01 30.586 50.13C30.586 51.138 29.816 51.782 28.864 51.782C27.814 51.782 27.1 51.054 27.03 50.088L25.448 50.494ZM33.1729 51.012H37.5409V53H39.1929V51.012H40.7189V49.528H39.1929V43.928H37.0369L33.1729 49.192V51.012ZM37.5409 49.528H34.6849L37.5409 45.622V49.528ZM45.0604 53V43.928H43.6044C43.4084 44.88 42.5124 45.608 41.2104 45.636V46.784H43.4084V53H45.0604ZM48.4308 47.33C48.4168 47.176 48.3888 47.008 48.3888 46.868C48.3888 45.93 48.9068 45.188 49.9708 45.188C50.9928 45.188 51.4968 45.86 51.4968 46.602C51.4968 47.26 51.1468 47.806 50.3347 48.31L48.8368 49.248C47.2548 50.228 46.7088 51.446 46.6807 53H53.2468V51.516H48.7528C48.8788 51.068 49.2428 50.746 49.6768 50.48L51.4408 49.388C52.5328 48.716 53.1908 47.75 53.1908 46.574C53.1908 45.02 52.0008 43.718 49.9988 43.718C47.9408 43.718 46.7648 45.132 46.7648 46.7C46.7648 46.882 46.7928 47.092 46.8068 47.218L48.4308 47.33ZM64.0569 43.928H57.2809V45.398H62.1529C62.1529 45.398 58.9889 47.932 58.5969 53H60.3329C60.7389 48.324 63.3009 46.028 64.0569 45.398V43.928ZM64.4128 50.494C64.5248 51.922 65.8688 53.224 67.8288 53.224C69.9288 53.224 71.2448 51.796 71.2448 50.088C71.2448 48.184 69.9428 47.064 68.1368 47.064C67.4928 47.064 66.7928 47.288 66.4008 47.694L66.9608 45.398H70.7968V43.928H65.8268L64.7068 48.506L66.2888 49.08C66.6108 48.716 67.1568 48.45 67.8008 48.45C68.7248 48.45 69.5508 49.01 69.5508 50.13C69.5508 51.138 68.7808 51.782 67.8288 51.782C66.7788 51.782 66.0648 51.054 65.9948 50.088L64.4128 50.494ZM75.8494 53V43.928H74.3934C74.1974 44.88 73.3014 45.608 71.9994 45.636V46.784H74.1974V53H75.8494ZM79.2198 47.33C79.2058 47.176 79.1778 47.008 79.1778 46.868C79.1778 45.93 79.6958 45.188 80.7598 45.188C81.7818 45.188 82.2858 45.86 82.2858 46.602C82.2858 47.26 81.9358 47.806 81.1238 48.31L79.6258 49.248C78.0438 50.228 77.4978 51.446 77.4698 53H84.0358V51.516H79.5418C79.6678 51.068 80.0318 50.746 80.4658 50.48L82.2298 49.388C83.3218 48.716 83.9798 47.75 83.9798 46.574C83.9798 45.02 82.7898 43.718 80.7878 43.718C78.7298 43.718 77.5538 45.132 77.5538 46.7C77.5538 46.882 77.5818 47.092 77.5958 47.218L79.2198 47.33ZM91.066 48.884C91.206 48.814 91.486 48.73 91.92 48.73C92.69 48.73 93.53 49.178 93.53 50.228C93.53 51.054 92.914 51.768 91.808 51.768C90.8 51.768 90.044 51.054 90.002 50.004L88.364 50.34C88.476 51.852 89.722 53.21 91.822 53.21C93.978 53.21 95.224 51.796 95.224 50.242C95.224 48.492 93.866 47.512 92.508 47.484L94.972 45.328V43.928H88.672V45.398H92.802L90.296 47.638L91.066 48.884ZM96.1729 51.012H100.541V53H102.193V51.012H103.719V49.528H102.193V43.928H100.037L96.1729 49.192V51.012ZM100.541 49.528H97.6849L100.541 45.622V49.528ZM108.06 53V43.928H106.604C106.408 44.88 105.512 45.608 104.21 45.636V46.784H106.408V53H108.06ZM111.431 47.33C111.417 47.176 111.389 47.008 111.389 46.868C111.389 45.93 111.907 45.188 112.971 45.188C113.993 45.188 114.497 45.86 114.497 46.602C114.497 47.26 114.147 47.806 113.335 48.31L111.837 49.248C110.255 50.228 109.709 51.446 109.681 53H116.247V51.516H111.753C111.879 51.068 112.243 50.746 112.677 50.48L114.441 49.388C115.533 48.716 116.191 47.75 116.191 46.574C116.191 45.02 115.001 43.718 112.999 43.718C110.941 43.718 109.765 45.132 109.765 46.7C109.765 46.882 109.793 47.092 109.807 47.218L111.431 47.33ZM123.277 48.884C123.417 48.814 123.697 48.73 124.131 48.73C124.901 48.73 125.741 49.178 125.741 50.228C125.741 51.054 125.125 51.768 124.019 51.768C123.011 51.768 122.255 51.054 122.213 50.004L120.575 50.34C120.687 51.852 121.933 53.21 124.033 53.21C126.189 53.21 127.435 51.796 127.435 50.242C127.435 48.492 126.077 47.512 124.719 47.484L127.183 45.328V43.928H120.883V45.398H125.013L122.507 47.638L123.277 48.884ZM128.384 51.012H132.752V53H134.404V51.012H135.93V49.528H134.404V43.928H132.248L128.384 49.192V51.012ZM132.752 49.528H129.896L132.752 45.622V49.528ZM136.587 50.494C136.699 51.922 138.043 53.224 140.003 53.224C142.103 53.224 143.419 51.796 143.419 50.088C143.419 48.184 142.117 47.064 140.311 47.064C139.667 47.064 138.967 47.288 138.575 47.694L139.135 45.398H142.971V43.928H138.001L136.881 48.506L138.463 49.08C138.785 48.716 139.331 48.45 139.975 48.45C140.899 48.45 141.725 49.01 141.725 50.13C141.725 51.138 140.955 51.782 140.003 51.782C138.953 51.782 138.239 51.054 138.169 50.088L136.587 50.494ZM151.27 44.166C150.878 43.914 150.178 43.718 149.338 43.718C146.524 43.718 144.466 45.706 144.466 48.996C144.466 51.32 145.782 53.21 148.092 53.21C149.996 53.21 151.536 51.95 151.536 50.06C151.536 48.198 150.262 46.994 148.456 46.994C147.49 46.994 146.622 47.344 146.146 48.072C146.3 46.308 147.532 45.174 149.24 45.174C149.982 45.174 150.458 45.356 150.794 45.538L151.27 44.166ZM146.328 50.088C146.328 49.024 147.14 48.394 148.092 48.394C149.044 48.394 149.856 49.024 149.856 50.088C149.856 51.138 149.044 51.782 148.092 51.782C147.168 51.782 146.328 51.124 146.328 50.088Z" fill="#262A3C"/>
<line x1="25" y1="62.75" x2="182" y2="62.75" stroke="#262A3C" stroke-width="0.5"/>
<path d="M210.176 31.12C211.48 31.12 212.376 30.36 212.68 29.296L211.984 29.04C211.752 29.816 211.144 30.4 210.176 30.4C209.144 30.4 208.16 29.64 208.16 28.16C208.16 26.68 209.144 25.928 210.176 25.928C211.104 25.928 211.728 26.408 211.944 27.264L212.672 27.008C212.384 25.912 211.472 25.208 210.176 25.208C208.768 25.208 207.36 26.264 207.36 28.16C207.36 30.056 208.712 31.12 210.176 31.12ZM215.546 29.992L213.834 25.328H213.002L215.138 31H215.914L218.098 25.328H217.274L215.546 29.992ZM220.882 29.992L219.17 25.328H218.338L220.474 31H221.25L223.434 25.328H222.61L220.882 29.992ZM226.511 25.328H225.783L223.039 31H223.767L226.511 25.328ZM229.403 31.12C230.707 31.12 231.603 30.36 231.907 29.296L231.211 29.04C230.979 29.816 230.371 30.4 229.403 30.4C228.371 30.4 227.387 29.64 227.387 28.16C227.387 26.68 228.371 25.928 229.403 25.928C230.331 25.928 230.955 26.408 231.171 27.264L231.899 27.008C231.611 25.912 230.699 25.208 229.403 25.208C227.995 25.208 226.587 26.264 226.587 28.16C226.587 30.056 227.939 31.12 229.403 31.12ZM234.772 29.992L233.06 25.328H232.228L234.364 31H235.14L237.324 25.328H236.5L234.772 29.992ZM240.379 31.12C241.683 31.12 242.579 30.36 242.883 29.296L242.187 29.04C241.955 29.816 241.347 30.4 240.379 30.4C239.347 30.4 238.363 29.64 238.363 28.16C238.363 26.68 239.347 25.928 240.379 25.928C241.307 25.928 241.931 26.408 242.147 27.264L242.875 27.008C242.587 25.912 241.675 25.208 240.379 25.208C238.971 25.208 237.563 26.264 237.563 28.16C237.563 30.056 238.915 31.12 240.379 31.12Z" fill="#262A3C" fill-opacity="0.5"/>
<path d="M207.756 47.472C207.756 48.828 208.884 49.956 210.252 49.956C211.62 49.956 212.748 48.828 212.748 47.472C212.748 46.08 211.62 44.964 210.252 44.964C208.884 44.964 207.756 46.08 207.756 47.472ZM214.26 47.472C214.26 48.828 215.388 49.956 216.756 49.956C218.124 49.956 219.252 48.828 219.252 47.472C219.252 46.08 218.124 44.964 216.756 44.964C215.388 44.964 214.26 46.08 214.26 47.472ZM220.764 47.472C220.764 48.828 221.892 49.956 223.26 49.956C224.628 49.956 225.756 48.828 225.756 47.472C225.756 46.08 224.628 44.964 223.26 44.964C221.892 44.964 220.764 46.08 220.764 47.472Z" fill="#262A3C"/>
<line x1="207" y1="62.75" x2="286" y2="62.75" stroke="#262A3C" stroke-width="0.5"/>
<path d="M28.176 88.12C29.48 88.12 30.376 87.36 30.68 86.296L29.984 86.04C29.752 86.816 29.144 87.4 28.176 87.4C27.144 87.4 26.16 86.64 26.16 85.16C26.16 83.68 27.144 82.928 28.176 82.928C29.104 82.928 29.728 83.408 29.944 84.264L30.672 84.008C30.384 82.912 29.472 82.208 28.176 82.208C26.768 82.208 25.36 83.264 25.36 85.16C25.36 87.056 26.712 88.12 28.176 88.12ZM31.2438 86.968C31.2438 87.576 31.7478 88.12 32.5318 88.12C33.2198 88.12 33.6038 87.752 33.7718 87.48C33.7718 87.76 33.7958 87.904 33.8118 88H34.5478C34.5318 87.904 34.4998 87.704 34.4998 87.368V85.44C34.4998 84.688 34.0518 84.032 32.8997 84.032C32.0678 84.032 31.4038 84.544 31.3238 85.28L32.0438 85.448C32.0918 85 32.3878 84.672 32.9158 84.672C33.4998 84.672 33.7478 84.984 33.7478 85.36C33.7478 85.496 33.6838 85.616 33.4518 85.648L32.4118 85.8C31.7478 85.896 31.2438 86.28 31.2438 86.968ZM32.6358 87.488C32.2518 87.488 32.0118 87.216 32.0118 86.928C32.0118 86.584 32.2518 86.4 32.5718 86.352L33.7478 86.176V86.352C33.7478 87.192 33.2518 87.488 32.6358 87.488ZM37.8073 84.112C37.7673 84.104 37.6633 84.088 37.5593 84.088C37.1673 84.088 36.6873 84.232 36.4073 84.824V84.152H35.6713V88H36.4233V86.072C36.4233 85.224 36.8473 84.888 37.4793 84.888C37.5833 84.888 37.6953 84.896 37.8073 84.912V84.112ZM39.0177 86.064C39.0177 85.272 39.4657 84.712 40.1537 84.712C40.8417 84.712 41.2577 85.256 41.2577 86.048C41.2577 86.84 40.8337 87.44 40.1457 87.44C39.4257 87.44 39.0177 86.856 39.0177 86.064ZM41.2657 87.48C41.2657 87.712 41.2897 87.912 41.3057 88H42.0337C42.0257 87.936 41.9937 87.656 41.9937 87.288V82.208H41.2497V84.696C41.1217 84.384 40.7537 84.048 40.0737 84.048C38.9857 84.048 38.2497 84.976 38.2497 86.064C38.2497 87.208 38.9457 88.104 40.0737 88.104C40.6737 88.104 41.0817 87.784 41.2657 87.416V87.48ZM44.0248 85.736C44.0408 85.168 44.3448 84.72 44.9208 84.72C45.5928 84.72 45.8168 85.152 45.8168 85.688V88H46.5688V85.56C46.5688 84.704 46.1128 84.04 45.1928 84.04C44.7528 84.04 44.3048 84.192 44.0248 84.6V82.208H43.2728V88H44.0248V85.736ZM49.413 87.448C48.773 87.448 48.213 86.968 48.213 86.072C48.213 85.184 48.773 84.704 49.413 84.704C50.053 84.704 50.613 85.184 50.613 86.072C50.613 86.968 50.053 87.448 49.413 87.448ZM49.413 84.032C48.261 84.032 47.445 84.904 47.445 86.072C47.445 87.248 48.261 88.12 49.413 88.12C50.565 88.12 51.381 87.248 51.381 86.072C51.381 84.904 50.565 84.032 49.413 84.032ZM53.0951 88V82.208H52.3431V88H53.0951ZM54.8224 86.064C54.8224 85.272 55.2704 84.712 55.9584 84.712C56.6464 84.712 57.0624 85.256 57.0624 86.048C57.0624 86.84 56.6384 87.44 55.9504 87.44C55.2304 87.44 54.8224 86.856 54.8224 86.064ZM57.0704 87.48C57.0704 87.712 57.0944 87.912 57.1104 88H57.8384C57.8304 87.936 57.7984 87.656 57.7984 87.288V82.208H57.0544V84.696C56.9264 84.384 56.5584 84.048 55.8784 84.048C54.7904 84.048 54.0544 84.976 54.0544 86.064C54.0544 87.208 54.7504 88.104 55.8784 88.104C56.4784 88.104 56.8864 87.784 57.0704 87.416V87.48ZM59.5655 85.68C59.5975 85.184 59.9815 84.696 60.6135 84.696C61.2935 84.696 61.6535 85.128 61.6695 85.68H59.5655ZM61.7815 86.68C61.6375 87.112 61.3255 87.456 60.7015 87.456C60.0535 87.456 59.5575 86.976 59.5415 86.288H62.4375C62.4455 86.24 62.4535 86.144 62.4535 86.048C62.4535 84.848 61.7895 84.032 60.6055 84.032C59.6375 84.032 58.7655 84.856 58.7655 86.064C58.7655 87.368 59.6695 88.12 60.7015 88.12C61.5975 88.12 62.2135 87.584 62.4295 86.904L61.7815 86.68ZM65.5494 84.112C65.5094 84.104 65.4054 84.088 65.3014 84.088C64.9094 84.088 64.4294 84.232 64.1494 84.824V84.152H63.4134V88H64.1654V86.072C64.1654 85.224 64.5894 84.888 65.2214 84.888C65.3254 84.888 65.4374 84.896 65.5494 84.912V84.112ZM69.1029 85.776C69.1029 85.192 69.4069 84.72 69.9989 84.72C70.6709 84.72 70.8949 85.152 70.8949 85.688V88H71.6469V85.56C71.6469 84.704 71.1909 84.04 70.2709 84.04C69.8229 84.04 69.3669 84.224 69.0869 84.704V84.152H68.3509V88H69.1029V85.776ZM72.6031 86.968C72.6031 87.576 73.1071 88.12 73.8911 88.12C74.5791 88.12 74.9631 87.752 75.1311 87.48C75.1311 87.76 75.1551 87.904 75.1711 88H75.9071C75.8911 87.904 75.8591 87.704 75.8591 87.368V85.44C75.8591 84.688 75.4111 84.032 74.2591 84.032C73.4271 84.032 72.7631 84.544 72.6831 85.28L73.4031 85.448C73.4511 85 73.7471 84.672 74.2751 84.672C74.8591 84.672 75.1071 84.984 75.1071 85.36C75.1071 85.496 75.0431 85.616 74.8111 85.648L73.7711 85.8C73.1071 85.896 72.6031 86.28 72.6031 86.968ZM73.9951 87.488C73.6111 87.488 73.3711 87.216 73.3711 86.928C73.3711 86.584 73.6111 86.4 73.9311 86.352L75.1071 86.176V86.352C75.1071 87.192 74.6111 87.488 73.9951 87.488ZM77.7746 88V85.68C77.7746 85.104 78.1346 84.704 78.6706 84.704C79.2466 84.704 79.4866 85.088 79.4866 85.584V88H80.2386V85.672C80.2386 85.12 80.5986 84.704 81.1266 84.704C81.6946 84.704 81.9426 85.08 81.9426 85.584V88H82.6866V85.504C82.6866 84.496 82.0306 84.04 81.3586 84.04C80.8706 84.04 80.3746 84.216 80.0706 84.768C79.8626 84.272 79.3986 84.04 78.9186 84.04C78.4706 84.04 77.9906 84.24 77.7506 84.664V84.152H77.0306V88H77.7746ZM84.378 85.68C84.41 85.184 84.794 84.696 85.426 84.696C86.106 84.696 86.466 85.128 86.482 85.68H84.378ZM86.594 86.68C86.45 87.112 86.138 87.456 85.514 87.456C84.866 87.456 84.37 86.976 84.354 86.288H87.25C87.258 86.24 87.266 86.144 87.266 86.048C87.266 84.848 86.602 84.032 85.418 84.032C84.45 84.032 83.578 84.856 83.578 86.064C83.578 87.368 84.482 88.12 85.514 88.12C86.41 88.12 87.026 87.584 87.242 86.904L86.594 86.68Z" fill="#262A3C" fill-opacity="0.5"/>
<path d="M31.714 102.398C31.49 101.292 30.58 99.864 28.242 99.864C26.394 99.864 24.868 101.236 24.868 102.902C24.868 104.386 25.876 105.38 27.388 105.688L28.788 105.982C29.642 106.164 30.118 106.682 30.118 107.326C30.118 108.096 29.502 108.698 28.312 108.698C26.884 108.698 26.142 107.746 26.044 106.71L24.476 107.158C24.63 108.586 25.792 110.21 28.312 110.21C30.58 110.21 31.826 108.74 31.826 107.2C31.826 105.8 30.888 104.694 29.138 104.344L27.71 104.05C26.94 103.882 26.548 103.406 26.548 102.776C26.548 102.02 27.248 101.348 28.256 101.348C29.586 101.348 30.104 102.258 30.202 102.874L31.714 102.398ZM32.9698 108.152C32.9698 109.23 33.8518 110.21 35.2798 110.21C36.3858 110.21 37.0578 109.65 37.3798 109.132C37.3798 109.678 37.4358 109.958 37.4498 110H38.9618C38.9478 109.93 38.8778 109.524 38.8778 108.908V105.52C38.8778 104.162 38.0798 102.972 35.9798 102.972C34.2998 102.972 33.2358 104.022 33.1098 105.198L34.5938 105.534C34.6638 104.848 35.1398 104.302 35.9938 104.302C36.8898 104.302 37.2818 104.764 37.2818 105.338C37.2818 105.576 37.1698 105.772 36.7778 105.828L35.0278 106.094C33.8658 106.262 32.9698 106.934 32.9698 108.152ZM35.5878 108.936C34.9438 108.936 34.5938 108.516 34.5938 108.054C34.5938 107.494 34.9998 107.214 35.5038 107.13L37.2818 106.864V107.172C37.2818 108.502 36.4978 108.936 35.5878 108.936ZM42.8717 101.096H41.4017V102.118C41.4017 102.72 41.0797 103.182 40.3517 103.182H40.0017V104.624H41.2617V108.054C41.2617 109.328 42.0457 110.084 43.3057 110.084C43.8937 110.084 44.2017 109.972 44.2997 109.93V108.586C44.2297 108.6 43.9637 108.642 43.7397 108.642C43.1377 108.642 42.8717 108.39 42.8717 107.788V104.624H44.2857V103.182H42.8717V101.096ZM48.8819 108.754C47.8879 108.754 46.9779 107.998 46.9779 106.584C46.9779 105.17 47.8879 104.442 48.8819 104.442C49.8899 104.442 50.7859 105.17 50.7859 106.584C50.7859 108.012 49.8899 108.754 48.8819 108.754ZM48.8819 102.972C46.8519 102.972 45.3539 104.498 45.3539 106.584C45.3539 108.684 46.8519 110.21 48.8819 110.21C50.9259 110.21 52.4239 108.684 52.4239 106.584C52.4239 104.498 50.9259 102.972 48.8819 102.972ZM53.3914 108.152C53.4754 108.922 54.2314 110.21 56.2054 110.21C57.9414 110.21 58.7814 109.062 58.7814 108.026C58.7814 107.018 58.1094 106.234 56.8214 105.954L55.7854 105.744C55.3654 105.66 55.0994 105.394 55.0994 105.03C55.0994 104.61 55.5054 104.246 56.0794 104.246C56.9894 104.246 57.2834 104.876 57.3394 105.268L58.7114 104.876C58.5994 104.204 57.9834 102.972 56.0794 102.972C54.6654 102.972 53.5734 103.98 53.5734 105.17C53.5734 106.108 54.2034 106.892 55.4074 107.158L56.4154 107.382C56.9614 107.494 57.2134 107.774 57.2134 108.138C57.2134 108.558 56.8634 108.922 56.1914 108.922C55.3234 108.922 54.8614 108.376 54.8054 107.76L53.3914 108.152ZM62.0158 105.996C62.0438 105.128 62.5338 104.456 63.4298 104.456C64.4518 104.456 64.8298 105.128 64.8298 105.968V110H66.4538V105.688C66.4538 104.19 65.6418 102.986 63.9618 102.986C63.2478 102.986 62.4778 103.238 62.0158 103.84V99.864H60.3918V110H62.0158V105.996ZM70.0409 110V103.182H68.4309V110H70.0409ZM68.1789 100.788C68.1789 101.376 68.6549 101.838 69.2289 101.838C69.8169 101.838 70.2929 101.376 70.2929 100.788C70.2929 100.2 69.8169 99.724 69.2289 99.724C68.6549 99.724 68.1789 100.2 68.1789 100.788ZM84.0786 110V100.074H82.3986V107.116L77.8906 100.074H75.7486V110H77.4286V102.482L82.3286 110H84.0786ZM85.8527 108.152C85.8527 109.23 86.7347 110.21 88.1627 110.21C89.2687 110.21 89.9407 109.65 90.2627 109.132C90.2627 109.678 90.3187 109.958 90.3327 110H91.8447C91.8307 109.93 91.7607 109.524 91.7607 108.908V105.52C91.7607 104.162 90.9627 102.972 88.8627 102.972C87.1827 102.972 86.1187 104.022 85.9927 105.198L87.4767 105.534C87.5467 104.848 88.0227 104.302 88.8767 104.302C89.7727 104.302 90.1647 104.764 90.1647 105.338C90.1647 105.576 90.0527 105.772 89.6607 105.828L87.9107 106.094C86.7487 106.262 85.8527 106.934 85.8527 108.152ZM88.4707 108.936C87.8267 108.936 87.4767 108.516 87.4767 108.054C87.4767 107.494 87.8827 107.214 88.3867 107.13L90.1647 106.864V107.172C90.1647 108.502 89.3807 108.936 88.4707 108.936ZM100.108 103.182H97.9518L95.3338 105.94V99.864H93.7238V110H95.3338V108.096L96.1738 107.214L98.1758 110H100.164L97.3078 106.066L100.108 103.182ZM100.741 108.152C100.741 109.23 101.623 110.21 103.051 110.21C104.157 110.21 104.829 109.65 105.151 109.132C105.151 109.678 105.207 109.958 105.221 110H106.733C106.719 109.93 106.649 109.524 106.649 108.908V105.52C106.649 104.162 105.851 102.972 103.751 102.972C102.071 102.972 101.007 104.022 100.881 105.198L102.365 105.534C102.435 104.848 102.911 104.302 103.765 104.302C104.661 104.302 105.053 104.764 105.053 105.338C105.053 105.576 104.941 105.772 104.549 105.828L102.799 106.094C101.637 106.262 100.741 106.934 100.741 108.152ZM103.359 108.936C102.715 108.936 102.365 108.516 102.365 108.054C102.365 107.494 102.771 107.214 103.275 107.13L105.053 106.864V107.172C105.053 108.502 104.269 108.936 103.359 108.936ZM110.223 110V105.954C110.223 105.086 110.769 104.442 111.637 104.442C112.561 104.442 112.953 105.058 112.953 105.842V110H114.549V105.954C114.549 105.114 115.109 104.442 115.963 104.442C116.873 104.442 117.279 105.044 117.279 105.842V110H118.847V105.576C118.847 103.77 117.671 102.986 116.439 102.986C115.557 102.986 114.758 103.294 114.227 104.19C113.863 103.392 113.079 102.986 112.183 102.986C111.413 102.986 110.559 103.35 110.167 104.05V103.182H108.613V110H110.223ZM123.831 108.754C122.837 108.754 121.927 107.998 121.927 106.584C121.927 105.17 122.837 104.442 123.831 104.442C124.839 104.442 125.735 105.17 125.735 106.584C125.735 108.012 124.839 108.754 123.831 108.754ZM123.831 102.972C121.801 102.972 120.303 104.498 120.303 106.584C120.303 108.684 121.801 110.21 123.831 110.21C125.875 110.21 127.373 108.684 127.373 106.584C127.373 104.498 125.875 102.972 123.831 102.972ZM130.96 101.096H129.49V102.118C129.49 102.72 129.168 103.182 128.44 103.182H128.09V104.624H129.35V108.054C129.35 109.328 130.134 110.084 131.394 110.084C131.982 110.084 132.29 109.972 132.388 109.93V108.586C132.318 108.6 132.052 108.642 131.828 108.642C131.226 108.642 130.96 108.39 130.96 107.788V104.624H132.374V103.182H130.96V101.096ZM136.97 108.754C135.976 108.754 135.066 107.998 135.066 106.584C135.066 105.17 135.976 104.442 136.97 104.442C137.978 104.442 138.874 105.17 138.874 106.584C138.874 108.012 137.978 108.754 136.97 108.754ZM136.97 102.972C134.94 102.972 133.442 104.498 133.442 106.584C133.442 108.684 134.94 110.21 136.97 110.21C139.014 110.21 140.512 108.684 140.512 106.584C140.512 104.498 139.014 102.972 136.97 102.972Z" fill="#262A3C"/>
<line x1="25" y1="119.75" x2="182" y2="119.75" stroke="#262A3C" stroke-width="0.5"/>
<path d="M27.08 160.576V163H27.864V160.576L29.864 157.328H28.968L27.496 159.856L26.024 157.328H25.08L27.08 160.576ZM31.5146 162.448C30.8746 162.448 30.3146 161.968 30.3146 161.072C30.3146 160.184 30.8746 159.704 31.5146 159.704C32.1546 159.704 32.7146 160.184 32.7146 161.072C32.7146 161.968 32.1546 162.448 31.5146 162.448ZM31.5146 159.032C30.3626 159.032 29.5466 159.904 29.5466 161.072C29.5466 162.248 30.3626 163.12 31.5146 163.12C32.6666 163.12 33.4826 162.248 33.4826 161.072C33.4826 159.904 32.6666 159.032 31.5146 159.032ZM36.9416 162.536C36.9416 162.696 36.9576 162.912 36.9736 163H37.6936C37.6776 162.864 37.6536 162.592 37.6536 162.288V159.152H36.9016V161.472C36.9016 162.056 36.5976 162.456 35.9896 162.456C35.3576 162.456 35.1176 161.992 35.1176 161.464V159.152H34.3656V161.576C34.3656 162.448 34.9096 163.12 35.8056 163.12C36.2536 163.12 36.7336 162.936 36.9416 162.536ZM41.6809 164.52V162.48C41.8889 162.824 42.3369 163.104 42.9289 163.104C44.0569 163.104 44.7209 162.216 44.7209 161.072C44.7209 159.952 44.1049 159.064 42.9529 159.064C42.3289 159.064 41.8729 159.368 41.6649 159.752V159.152H40.9369V164.52H41.6809ZM43.9529 161.072C43.9529 161.864 43.5129 162.432 42.8169 162.432C42.1289 162.432 41.6729 161.864 41.6729 161.072C41.6729 160.304 42.1289 159.728 42.8169 159.728C43.5209 159.728 43.9529 160.304 43.9529 161.072ZM45.4391 161.968C45.4391 162.576 45.9431 163.12 46.7271 163.12C47.4151 163.12 47.7991 162.752 47.9671 162.48C47.9671 162.76 47.9911 162.904 48.0071 163H48.7431C48.7271 162.904 48.6951 162.704 48.6951 162.368V160.44C48.6951 159.688 48.2471 159.032 47.0951 159.032C46.2631 159.032 45.5991 159.544 45.5191 160.28L46.2391 160.448C46.2871 160 46.5831 159.672 47.1111 159.672C47.6951 159.672 47.9431 159.984 47.9431 160.36C47.9431 160.496 47.8791 160.616 47.6471 160.648L46.6071 160.8C45.9431 160.896 45.4391 161.28 45.4391 161.968ZM46.8311 162.488C46.4471 162.488 46.2071 162.216 46.2071 161.928C46.2071 161.584 46.4471 161.4 46.7671 161.352L47.9431 161.176V161.352C47.9431 162.192 47.4471 162.488 46.8311 162.488ZM50.7484 164.608L53.2524 159.152H52.4444L51.2924 161.808L50.0924 159.152H49.2284L50.8844 162.576L49.9244 164.608H50.7484Z" fill="#262A3C" fill-opacity="0.5"/>
<path d="M26.296 180.464C26.296 179.316 26.492 178.434 26.94 177.874C27.248 177.468 27.682 177.202 28.34 177.202C28.998 177.202 29.418 177.468 29.74 177.874C30.174 178.434 30.37 179.316 30.37 180.464C30.37 181.612 30.174 182.494 29.74 183.054C29.418 183.46 28.998 183.726 28.34 183.726C27.682 183.726 27.248 183.46 26.94 183.054C26.506 182.494 26.296 181.612 26.296 180.464ZM24.63 180.464C24.63 181.668 24.826 182.802 25.442 183.726C26.03 184.608 26.982 185.21 28.34 185.21C29.698 185.21 30.636 184.608 31.224 183.726C31.84 182.802 32.036 181.668 32.036 180.464C32.036 179.26 31.84 178.126 31.224 177.202C30.636 176.32 29.698 175.718 28.34 175.718C26.982 175.718 26.03 176.32 25.442 177.202C24.826 178.126 24.63 179.26 24.63 180.464ZM33.0454 183.95C33.0454 184.58 33.5494 185.084 34.1794 185.084C34.8094 185.084 35.3274 184.58 35.3274 183.95C35.3274 183.32 34.8094 182.802 34.1794 182.802C33.5494 182.802 33.0454 183.32 33.0454 183.95ZM38.2726 180.464C38.2726 179.316 38.4686 178.434 38.9166 177.874C39.2246 177.468 39.6586 177.202 40.3166 177.202C40.9746 177.202 41.3946 177.468 41.7166 177.874C42.1506 178.434 42.3466 179.316 42.3466 180.464C42.3466 181.612 42.1506 182.494 41.7166 183.054C41.3946 183.46 40.9746 183.726 40.3166 183.726C39.6586 183.726 39.2246 183.46 38.9166 183.054C38.4826 182.494 38.2726 181.612 38.2726 180.464ZM36.6066 180.464C36.6066 181.668 36.8026 182.802 37.4186 183.726C38.0066 184.608 38.9586 185.21 40.3166 185.21C41.6746 185.21 42.6126 184.608 43.2006 183.726C43.8166 182.802 44.0126 181.668 44.0126 180.464C44.0126 179.26 43.8166 178.126 43.2006 177.202C42.6126 176.32 41.6746 175.718 40.3166 175.718C38.9586 175.718 38.0066 176.32 37.4186 177.202C36.8026 178.126 36.6066 179.26 36.6066 180.464ZM47.6695 180.884C47.8095 180.814 48.0895 180.73 48.5235 180.73C49.2935 180.73 50.1335 181.178 50.1335 182.228C50.1335 183.054 49.5175 183.768 48.4115 183.768C47.4035 183.768 46.6475 183.054 46.6055 182.004L44.9675 182.34C45.0795 183.852 46.3255 185.21 48.4255 185.21C50.5815 185.21 51.8275 183.796 51.8275 182.242C51.8275 180.492 50.4695 179.512 49.1115 179.484L51.5755 177.328V175.928H45.2755V177.398H49.4055L46.8995 179.638L47.6695 180.884Z" fill="#262A3C"/>
<path d="M109.19 175.074V185H112.858C114.706 185 115.938 183.852 115.938 182.256C115.938 181.08 115.21 180.17 114.16 179.89C115.014 179.582 115.63 178.798 115.63 177.748C115.63 176.194 114.51 175.074 112.606 175.074H109.19ZM110.856 179.274V176.502H112.34C113.362 176.502 113.95 177.048 113.95 177.888C113.95 178.714 113.362 179.274 112.382 179.274H110.856ZM110.856 183.572V180.688H112.62C113.656 180.688 114.23 181.29 114.23 182.144C114.23 183.026 113.572 183.572 112.564 183.572H110.856ZM124.847 176.656V175.074H116.713V176.656H119.933V185H121.613V176.656H124.847ZM130.321 185.21C132.855 185.21 134.367 183.6 134.815 181.92L133.275 181.416C132.939 182.536 131.987 183.6 130.321 183.6C128.627 183.6 127.031 182.368 127.031 180.044C127.031 177.636 128.669 176.446 130.307 176.446C131.973 176.446 132.897 177.412 133.191 178.616L134.773 178.084C134.325 176.348 132.827 174.864 130.307 174.864C127.731 174.864 125.309 176.81 125.309 180.044C125.309 183.278 127.647 185.21 130.321 185.21Z" fill="#262A3C"/>
<path d="M261.774 185.21C263.86 185.21 265.484 183.936 265.484 181.542V175.074H263.804V181.444C263.804 182.844 263.048 183.614 261.774 183.614C260.514 183.614 259.744 182.844 259.744 181.444V175.074H258.078V181.542C258.078 183.936 259.702 185.21 261.774 185.21ZM274.271 177.398C274.047 176.292 273.137 174.864 270.799 174.864C268.951 174.864 267.425 176.236 267.425 177.902C267.425 179.386 268.433 180.38 269.945 180.688L271.345 180.982C272.199 181.164 272.675 181.682 272.675 182.326C272.675 183.096 272.059 183.698 270.869 183.698C269.441 183.698 268.699 182.746 268.601 181.71L267.033 182.158C267.187 183.586 268.349 185.21 270.869 185.21C273.137 185.21 274.383 183.74 274.383 182.2C274.383 180.8 273.445 179.694 271.695 179.344L270.267 179.05C269.497 178.882 269.105 178.406 269.105 177.776C269.105 177.02 269.805 176.348 270.813 176.348C272.143 176.348 272.661 177.258 272.759 177.874L274.271 177.398ZM277.808 183.46V176.614H279.586C281.308 176.614 282.722 177.734 282.722 180.058C282.722 182.354 281.294 183.46 279.572 183.46H277.808ZM279.628 185C282.316 185 284.472 183.236 284.472 180.058C284.472 176.866 282.344 175.074 279.642 175.074H276.128V185H279.628Z" fill="#262A3C"/>
<line x1="25" y1="194.75" x2="137" y2="194.75" stroke="#262A3C" stroke-width="0.5"/>
<path d="M176.08 160.576V163H176.864V160.576L178.864 157.328H177.968L176.496 159.856L175.024 157.328H174.08L176.08 160.576ZM180.515 162.448C179.875 162.448 179.315 161.968 179.315 161.072C179.315 160.184 179.875 159.704 180.515 159.704C181.155 159.704 181.715 160.184 181.715 161.072C181.715 161.968 181.155 162.448 180.515 162.448ZM180.515 159.032C179.363 159.032 178.547 159.904 178.547 161.072C178.547 162.248 179.363 163.12 180.515 163.12C181.667 163.12 182.483 162.248 182.483 161.072C182.483 159.904 181.667 159.032 180.515 159.032ZM185.942 162.536C185.942 162.696 185.958 162.912 185.974 163H186.694C186.678 162.864 186.654 162.592 186.654 162.288V159.152H185.902V161.472C185.902 162.056 185.598 162.456 184.99 162.456C184.358 162.456 184.118 161.992 184.118 161.464V159.152H183.366V161.576C183.366 162.448 183.91 163.12 184.806 163.12C185.254 163.12 185.734 162.936 185.942 162.536ZM189.657 163.208C189.753 164.032 190.473 164.64 191.433 164.64C192.881 164.64 193.361 163.688 193.361 162.712V159.152H192.617V159.688C192.425 159.304 192.025 159.08 191.433 159.08C190.377 159.08 189.665 159.912 189.665 160.952C189.665 162.04 190.409 162.816 191.433 162.816C192.009 162.816 192.425 162.536 192.609 162.184V162.736C192.609 163.568 192.241 163.984 191.433 163.984C190.849 163.984 190.441 163.576 190.385 163.04L189.657 163.208ZM191.545 162.184C190.865 162.184 190.433 161.704 190.433 160.952C190.433 160.208 190.881 159.72 191.545 159.72C192.193 159.72 192.641 160.208 192.641 160.952C192.641 161.696 192.193 162.184 191.545 162.184ZM195.05 160.68C195.082 160.184 195.466 159.696 196.098 159.696C196.778 159.696 197.138 160.128 197.154 160.68H195.05ZM197.266 161.68C197.122 162.112 196.81 162.456 196.186 162.456C195.538 162.456 195.042 161.976 195.026 161.288H197.922C197.93 161.24 197.938 161.144 197.938 161.048C197.938 159.848 197.274 159.032 196.09 159.032C195.122 159.032 194.25 159.856 194.25 161.064C194.25 162.368 195.154 163.12 196.186 163.12C197.082 163.12 197.698 162.584 197.914 161.904L197.266 161.68ZM199.906 157.936H199.218V158.56C199.218 158.896 199.042 159.152 198.626 159.152H198.418V159.832H199.154V161.944C199.154 162.64 199.57 163.04 200.226 163.04C200.482 163.04 200.674 162.992 200.738 162.968V162.328C200.674 162.344 200.538 162.36 200.442 162.36C200.05 162.36 199.906 162.184 199.906 161.832V159.832H200.738V159.152H199.906V157.936Z" fill="#262A3C" fill-opacity="0.5"/>
<path d="M176.066 180.884C176.206 180.814 176.486 180.73 176.92 180.73C177.69 180.73 178.53 181.178 178.53 182.228C178.53 183.054 177.914 183.768 176.808 183.768C175.8 183.768 175.044 183.054 175.002 182.004L173.364 182.34C173.476 183.852 174.722 185.21 176.822 185.21C178.978 185.21 180.224 183.796 180.224 182.242C180.224 180.492 178.866 179.512 177.508 179.484L179.972 177.328V175.928H173.672V177.398H177.802L175.296 179.638L176.066 180.884ZM182.98 180.464C182.98 179.316 183.176 178.434 183.624 177.874C183.932 177.468 184.366 177.202 185.024 177.202C185.682 177.202 186.102 177.468 186.424 177.874C186.858 178.434 187.054 179.316 187.054 180.464C187.054 181.612 186.858 182.494 186.424 183.054C186.102 183.46 185.682 183.726 185.024 183.726C184.366 183.726 183.932 183.46 183.624 183.054C183.19 182.494 182.98 181.612 182.98 180.464ZM181.314 180.464C181.314 181.668 181.51 182.802 182.126 183.726C182.714 184.608 183.666 185.21 185.024 185.21C186.382 185.21 187.32 184.608 187.908 183.726C188.524 182.802 188.72 181.668 188.72 180.464C188.72 179.26 188.524 178.126 187.908 177.202C187.32 176.32 186.382 175.718 185.024 175.718C183.666 175.718 182.714 176.32 182.126 177.202C181.51 178.126 181.314 179.26 181.314 180.464ZM191.607 180.464C191.607 179.316 191.803 178.434 192.251 177.874C192.559 177.468 192.993 177.202 193.651 177.202C194.309 177.202 194.729 177.468 195.051 177.874C195.485 178.434 195.681 179.316 195.681 180.464C195.681 181.612 195.485 182.494 195.051 183.054C194.729 183.46 194.309 183.726 193.651 183.726C192.993 183.726 192.559 183.46 192.251 183.054C191.817 182.494 191.607 181.612 191.607 180.464ZM189.941 180.464C189.941 181.668 190.137 182.802 190.753 183.726C191.341 184.608 192.293 185.21 193.651 185.21C195.009 185.21 195.947 184.608 196.535 183.726C197.151 182.802 197.347 181.668 197.347 180.464C197.347 179.26 197.151 178.126 196.535 177.202C195.947 176.32 195.009 175.718 193.651 175.718C192.293 175.718 191.341 176.32 190.753 177.202C190.137 178.126 189.941 179.26 189.941 180.464Z" fill="#262A3C"/>
<line x1="174" y1="194.75" x2="286" y2="194.75" stroke="#262A3C" stroke-width="0.5"/>
<path d="M211.168 88V87.272H208.504V85.536H210.92V84.8H208.504V83.056H211.168V82.328H207.72V88H211.168ZM211.728 88H212.624L213.6 86.584L214.592 88H215.496C215.264 87.688 214.312 86.352 214.08 86.04L215.448 84.152H214.56L213.632 85.504L212.688 84.152H211.776L213.16 86.04L211.728 88ZM216.962 89.52V87.48C217.17 87.824 217.618 88.104 218.21 88.104C219.338 88.104 220.002 87.216 220.002 86.072C220.002 84.952 219.386 84.064 218.234 84.064C217.61 84.064 217.154 84.368 216.946 84.752V84.152H216.218V89.52H216.962ZM219.234 86.072C219.234 86.864 218.794 87.432 218.098 87.432C217.41 87.432 216.954 86.864 216.954 86.072C216.954 85.304 217.41 84.728 218.098 84.728C218.802 84.728 219.234 85.304 219.234 86.072ZM221.704 88V84.152H220.96V88H221.704ZM220.792 82.696C220.792 82.992 221.032 83.232 221.328 83.232C221.632 83.232 221.872 82.992 221.872 82.696C221.872 82.392 221.632 82.152 221.328 82.152C221.032 82.152 220.792 82.392 220.792 82.696ZM225.12 84.112C225.08 84.104 224.976 84.088 224.872 84.088C224.48 84.088 224 84.232 223.72 84.824V84.152H222.984V88H223.736V86.072C223.736 85.224 224.16 84.888 224.792 84.888C224.896 84.888 225.008 84.896 225.12 84.912V84.112ZM225.681 86.968C225.681 87.576 226.185 88.12 226.969 88.12C227.657 88.12 228.041 87.752 228.209 87.48C228.209 87.76 228.233 87.904 228.249 88H228.985C228.969 87.904 228.937 87.704 228.937 87.368V85.44C228.937 84.688 228.489 84.032 227.337 84.032C226.505 84.032 225.841 84.544 225.761 85.28L226.481 85.448C226.529 85 226.825 84.672 227.353 84.672C227.937 84.672 228.185 84.984 228.185 85.36C228.185 85.496 228.121 85.616 227.889 85.648L226.849 85.8C226.185 85.896 225.681 86.28 225.681 86.968ZM227.073 87.488C226.689 87.488 226.449 87.216 226.449 86.928C226.449 86.584 226.689 86.4 227.009 86.352L228.185 86.176V86.352C228.185 87.192 227.689 87.488 227.073 87.488ZM231.117 82.936H230.429V83.56C230.429 83.896 230.253 84.152 229.837 84.152H229.629V84.832H230.365V86.944C230.365 87.64 230.781 88.04 231.437 88.04C231.693 88.04 231.885 87.992 231.949 87.968V87.328C231.885 87.344 231.749 87.36 231.653 87.36C231.261 87.36 231.117 87.184 231.117 86.832V84.832H231.949V84.152H231.117V82.936ZM233.697 88V84.152H232.953V88H233.697ZM232.785 82.696C232.785 82.992 233.025 83.232 233.321 83.232C233.625 83.232 233.865 82.992 233.865 82.696C233.865 82.392 233.625 82.152 233.321 82.152C233.025 82.152 232.785 82.392 232.785 82.696ZM236.624 87.448C235.984 87.448 235.424 86.968 235.424 86.072C235.424 85.184 235.984 84.704 236.624 84.704C237.264 84.704 237.824 85.184 237.824 86.072C237.824 86.968 237.264 87.448 236.624 87.448ZM236.624 84.032C235.472 84.032 234.656 84.904 234.656 86.072C234.656 87.248 235.472 88.12 236.624 88.12C237.776 88.12 238.592 87.248 238.592 86.072C238.592 84.904 237.776 84.032 236.624 84.032ZM240.306 85.776C240.306 85.192 240.61 84.72 241.202 84.72C241.874 84.72 242.098 85.152 242.098 85.688V88H242.85V85.56C242.85 84.704 242.394 84.04 241.474 84.04C241.026 84.04 240.57 84.224 240.29 84.704V84.152H239.554V88H240.306V85.776ZM246.494 86.064C246.494 85.272 246.942 84.712 247.63 84.712C248.318 84.712 248.734 85.256 248.734 86.048C248.734 86.84 248.31 87.44 247.622 87.44C246.902 87.44 246.494 86.856 246.494 86.064ZM248.742 87.48C248.742 87.712 248.766 87.912 248.782 88H249.51C249.502 87.936 249.47 87.656 249.47 87.288V82.208H248.726V84.696C248.598 84.384 248.23 84.048 247.55 84.048C246.462 84.048 245.726 84.976 245.726 86.064C245.726 87.208 246.422 88.104 247.55 88.104C248.15 88.104 248.558 87.784 248.742 87.416V87.48ZM250.509 86.968C250.509 87.576 251.013 88.12 251.797 88.12C252.485 88.12 252.869 87.752 253.037 87.48C253.037 87.76 253.061 87.904 253.077 88H253.813C253.797 87.904 253.765 87.704 253.765 87.368V85.44C253.765 84.688 253.317 84.032 252.165 84.032C251.333 84.032 250.669 84.544 250.589 85.28L251.309 85.448C251.357 85 251.653 84.672 252.181 84.672C252.765 84.672 253.013 84.984 253.013 85.36C253.013 85.496 252.949 85.616 252.717 85.648L251.677 85.8C251.013 85.896 250.509 86.28 250.509 86.968ZM251.901 87.488C251.517 87.488 251.277 87.216 251.277 86.928C251.277 86.584 251.517 86.4 251.837 86.352L253.013 86.176V86.352C253.013 87.192 252.517 87.488 251.901 87.488ZM255.945 82.936H255.257V83.56C255.257 83.896 255.081 84.152 254.665 84.152H254.457V84.832H255.193V86.944C255.193 87.64 255.609 88.04 256.265 88.04C256.521 88.04 256.713 87.992 256.777 87.968V87.328C256.713 87.344 256.577 87.36 256.481 87.36C256.089 87.36 255.945 87.184 255.945 86.832V84.832H256.777V84.152H255.945V82.936ZM258.23 85.68C258.262 85.184 258.646 84.696 259.278 84.696C259.958 84.696 260.318 85.128 260.334 85.68H258.23ZM260.446 86.68C260.302 87.112 259.99 87.456 259.366 87.456C258.718 87.456 258.222 86.976 258.206 86.288H261.102C261.11 86.24 261.118 86.144 261.118 86.048C261.118 84.848 260.454 84.032 259.27 84.032C258.302 84.032 257.43 84.856 257.43 86.064C257.43 87.368 258.334 88.12 259.366 88.12C260.262 88.12 260.878 87.584 261.094 86.904L260.446 86.68Z" fill="#262A3C" fill-opacity="0.5"/>
<path d="M211.242 110V100.928H209.786C209.59 101.88 208.694 102.608 207.392 102.636V103.784H209.59V110H211.242ZM214.612 104.33C214.598 104.176 214.57 104.008 214.57 103.868C214.57 102.93 215.088 102.188 216.152 102.188C217.174 102.188 217.678 102.86 217.678 103.602C217.678 104.26 217.328 104.806 216.516 105.31L215.018 106.248C213.436 107.228 212.89 108.446 212.862 110H219.428V108.516H214.934C215.06 108.068 215.424 107.746 215.858 107.48L217.622 106.388C218.714 105.716 219.372 104.75 219.372 103.574C219.372 102.02 218.182 100.718 216.18 100.718C214.122 100.718 212.946 102.132 212.946 103.7C212.946 103.882 212.974 104.092 212.988 104.218L214.612 104.33ZM226.345 100.004H224.847L219.961 110.07H221.459L226.345 100.004ZM229.412 105.884C229.552 105.814 229.832 105.73 230.266 105.73C231.036 105.73 231.876 106.178 231.876 107.228C231.876 108.054 231.26 108.768 230.154 108.768C229.146 108.768 228.39 108.054 228.348 107.004L226.71 107.34C226.822 108.852 228.068 110.21 230.168 110.21C232.324 110.21 233.57 108.796 233.57 107.242C233.57 105.492 232.212 104.512 230.854 104.484L233.318 102.328V100.928H227.018V102.398H231.148L228.642 104.638L229.412 105.884ZM237.123 105.884C237.263 105.814 237.543 105.73 237.977 105.73C238.747 105.73 239.587 106.178 239.587 107.228C239.587 108.054 238.971 108.768 237.865 108.768C236.857 108.768 236.101 108.054 236.059 107.004L234.421 107.34C234.533 108.852 235.779 110.21 237.879 110.21C240.035 110.21 241.281 108.796 241.281 107.242C241.281 105.492 239.923 104.512 238.565 104.484L241.029 102.328V100.928H234.729V102.398H238.859L236.353 104.638L237.123 105.884Z" fill="#262A3C"/>
<line x1="207" y1="119.75" x2="286" y2="119.75" stroke="#262A3C" stroke-width="0.5"/>
</svg>
