<svg width="25" height="17" viewBox="0 0 25 17" fill="none" xmlns="http://www.w3.org/2000/svg">
<path d="M25 17H0V0H25V16.554C25 16.8023 25 16.554 25 17Z" fill="#F5F5F5"/>
<path d="M14.8925 4.77459C12.9101 3.40608 10.2343 3.96362 8.91595 6.01639C8.25188 7.04024 8.52532 8.4341 9.51165 9.11836C10.5029 9.80262 11.8359 9.52384 12.4999 8.49492C13.1591 7.466 14.497 7.1923 15.4882 7.87149C16.4794 8.55575 16.748 9.9496 16.0839 10.9735C17.4072 8.92575 16.87 6.14818 14.8925 4.77459Z" fill="#FF4B55"/>
<path d="M8.91597 6.01639C8.2519 7.04024 8.52534 8.4341 9.51167 9.11835C10.5029 9.80261 11.8359 9.52384 12.5 8.49492C13.1591 7.466 14.497 7.1923 15.4882 7.87149C16.4795 8.55574 16.748 9.9496 16.0839 10.9734C14.7656 13.0313 12.0898 13.5838 10.1123 12.2152C8.13472 10.8518 7.59761 8.07423 8.91597 6.01639Z" fill="#41479B"/>
<path d="M17.0849 3.08675L17.8661 4.30828C17.9296 4.40965 17.9052 4.55157 17.8075 4.61746L17.6073 4.75431C17.5097 4.82527 17.373 4.79486 17.3095 4.69349L16.5233 3.47196C16.455 3.37059 16.4843 3.22867 16.5819 3.16278L16.7821 3.02593C16.8847 2.95497 17.0214 2.98538 17.0849 3.08675Z" fill="#464655"/>
<path d="M18.2958 4.97226L19.0819 6.19378C19.1503 6.29516 19.121 6.43708 19.0233 6.50297L18.8231 6.63982C18.7255 6.70571 18.5888 6.68037 18.5253 6.579L17.7343 5.35747C17.6659 5.2561 17.6952 5.11418 17.7929 5.04829L17.9931 4.91144C18.0956 4.84048 18.2274 4.86582 18.2958 4.97226Z" fill="#464655"/>
<path d="M17.9247 2.50387L19.9169 5.6109C19.9852 5.71227 19.956 5.85419 19.8583 5.92008L19.6581 6.05693C19.5604 6.12789 19.4237 6.09748 19.3603 5.99611L17.3681 2.88908C17.2997 2.78771 17.329 2.64579 17.4267 2.57989L17.6269 2.44304C17.7245 2.37715 17.8563 2.40249 17.9247 2.50387Z" fill="#464655"/>
<path d="M18.7597 1.92605L19.5458 3.14757C19.6141 3.24895 19.5849 3.39087 19.4872 3.45676L19.287 3.59361C19.1893 3.6595 19.0526 3.63416 18.9892 3.53279L18.203 2.31126C18.1347 2.20989 18.164 2.06797 18.2616 2.00208L18.4618 1.86523C18.5595 1.79427 18.6962 1.82468 18.7597 1.92605Z" fill="#464655"/>
<path d="M19.9707 3.81155L20.7519 5.03308C20.8203 5.13445 20.791 5.27637 20.6933 5.34226L20.4931 5.47911C20.3955 5.55007 20.2587 5.51966 20.1953 5.41829L19.414 4.19677C19.3505 4.0954 19.3749 3.95347 19.4726 3.88758L19.6728 3.75073C19.7705 3.68484 19.9023 3.71018 19.9707 3.81155Z" fill="#464655"/>
<path d="M6.47939 10.426L8.47158 13.528C8.53994 13.6294 8.51065 13.7713 8.41299 13.8372L8.2128 13.974C8.11514 14.045 7.97842 14.0146 7.91494 13.9132L5.92275 10.8113C5.85439 10.7099 5.88369 10.568 5.98135 10.5021L6.18154 10.3652C6.2792 10.2943 6.41592 10.3247 6.47939 10.426Z" fill="#464655"/>
<path d="M5.64443 11.0039L6.42568 12.2203C6.49404 12.3217 6.46474 12.4636 6.36709 12.5295L6.16689 12.6663C6.06924 12.7373 5.93252 12.7069 5.86904 12.6055L5.08779 11.3891C5.01943 11.2877 5.04873 11.1458 5.14639 11.0799L5.34658 10.943C5.44424 10.8771 5.57607 10.9025 5.64443 11.0039Z" fill="#464655"/>
<path d="M6.85537 12.8894L7.63662 14.1109C7.70498 14.2123 7.67568 14.3542 7.57803 14.4201L7.37783 14.5569C7.28017 14.6279 7.14346 14.5975 7.07998 14.4961L6.29385 13.2746C6.22549 13.1732 6.25479 13.0313 6.35244 12.9654L6.55264 12.8285C6.65518 12.7576 6.78701 12.788 6.85537 12.8894Z" fill="#464655"/>
<path d="M4.80459 11.5867L6.79678 14.6887C6.86514 14.7901 6.83584 14.932 6.73819 14.9979L6.53799 15.1347C6.44033 15.2057 6.30362 15.1753 6.24014 15.0739L4.24795 11.972C4.17959 11.8706 4.20889 11.7287 4.30654 11.6628L4.50674 11.5259C4.60439 11.455 4.74111 11.4803 4.80459 11.5867Z" fill="#464655"/>
<path d="M5.92275 6.18871L7.91494 3.08168C7.9833 2.98031 8.11514 2.9499 8.2128 3.02086L8.41299 3.15771C8.51065 3.22867 8.53994 3.36552 8.47158 3.46689L6.47939 6.57393C6.41104 6.6753 6.2792 6.70571 6.18154 6.63475L5.98135 6.4979C5.88369 6.43201 5.85439 6.29515 5.92275 6.18871Z" fill="#464655"/>
<path d="M5.08296 5.6109L7.07514 2.50386C7.1435 2.40249 7.27534 2.37208 7.37299 2.44304L7.57319 2.57989C7.67084 2.65085 7.70014 2.78771 7.63178 2.88908L5.6396 5.99611C5.57124 6.09748 5.4394 6.12789 5.34175 6.05693L5.14155 5.92008C5.0439 5.85419 5.01948 5.71227 5.08296 5.6109Z" fill="#464655"/>
<path d="M4.24795 5.03308L6.24014 1.92605C6.3085 1.82468 6.44033 1.79427 6.53799 1.86523L6.73819 2.00208C6.83584 2.07304 6.86514 2.20989 6.79678 2.31126L4.80459 5.41829C4.73623 5.51967 4.60439 5.55008 4.50674 5.47912L4.30654 5.34227C4.20889 5.27637 4.17959 5.13952 4.24795 5.03308Z" fill="#464655"/>
<path d="M16.5282 13.528L17.3095 12.3115C17.3778 12.2102 17.5097 12.1798 17.6073 12.2507L17.8075 12.3876C17.9052 12.4585 17.9345 12.5954 17.8661 12.6968L17.0849 13.9132C17.0165 14.0146 16.8847 14.045 16.787 13.974L16.5868 13.8372C16.4892 13.7713 16.4599 13.6294 16.5282 13.528Z" fill="#464655"/>
<path d="M17.7343 11.6476L18.5205 10.421C18.5888 10.3196 18.7207 10.2892 18.8183 10.3602L19.0185 10.497C19.1162 10.568 19.1455 10.7048 19.0771 10.8062L18.291 12.0277C18.2226 12.1291 18.0908 12.1595 17.9931 12.0885L17.7929 11.9517C17.6953 11.8909 17.6708 11.754 17.7343 11.6476Z" fill="#464655"/>
<path d="M17.3632 14.1109L18.1494 12.8894C18.2177 12.788 18.3496 12.7576 18.4472 12.8285L18.6474 12.9654C18.7451 13.0364 18.7744 13.1732 18.706 13.2746L17.9248 14.4961C17.8564 14.5975 17.7246 14.6279 17.6269 14.5569L17.4267 14.4201C17.3242 14.3542 17.2998 14.2123 17.3632 14.1109Z" fill="#464655"/>
<path d="M18.5741 12.2254L19.3602 11.0089C19.4286 10.9076 19.5604 10.8771 19.6581 10.9481L19.8583 11.085C19.9559 11.1559 19.9852 11.2928 19.9169 11.3941L19.1308 12.6106C19.0624 12.712 18.9306 12.7424 18.8329 12.6714L18.6327 12.5346C18.5351 12.4636 18.5058 12.3268 18.5741 12.2254Z" fill="#464655"/>
<path d="M18.203 14.6887L18.9892 13.4672C19.0575 13.3658 19.1893 13.3354 19.287 13.4064L19.4872 13.5432C19.5849 13.6091 19.6141 13.751 19.5458 13.8524L18.7597 15.0739C18.6913 15.1753 18.5595 15.2057 18.4618 15.1347L18.2616 14.9979C18.164 14.932 18.1347 14.7901 18.203 14.6887Z" fill="#464655"/>
<path d="M19.414 12.8083L20.1952 11.5867C20.2636 11.4854 20.3954 11.455 20.4931 11.5259L20.6933 11.6628C20.7909 11.7337 20.8202 11.8706 20.7518 11.972L19.9706 13.1935C19.9071 13.2949 19.7704 13.3253 19.6728 13.2543L19.4726 13.1175C19.3749 13.0465 19.3456 12.9096 19.414 12.8083Z" fill="#464655"/>
</svg>
