<svg width="25" height="25" viewBox="0 0 25 25" fill="none" xmlns="http://www.w3.org/2000/svg">
<path d="M25 20.6885H0V4.31152H25V20.2588C25 20.4981 25 20.459 25 20.6885Z" fill="#FF4B55"/>
<path d="M9.05273 4.31152H0V20.6885H9.05273V4.31152Z" fill="#73AF00"/>
<path d="M9.05273 16.377C11.1939 16.377 12.9297 14.6412 12.9297 12.5C12.9297 10.3588 11.1939 8.62305 9.05273 8.62305C6.91155 8.62305 5.17578 10.3588 5.17578 12.5C5.17578 14.6412 6.91155 16.377 9.05273 16.377Z" fill="#FFE15A"/>
<path d="M10.3467 11.2061V12.9297C10.3467 13.6426 9.76563 14.2236 9.05273 14.2236C8.33984 14.2236 7.76367 13.6426 7.76367 12.9297V11.2061H10.3467ZM10.7813 10.3467H7.33398C7.09473 10.3467 6.9043 10.542 6.9043 10.7764V12.9297C6.9043 14.1211 7.87109 15.083 9.05762 15.083C10.2441 15.083 11.2109 14.1162 11.2109 12.9297V10.7764C11.2109 10.5371 11.0156 10.3467 10.7813 10.3467Z" fill="#FF4B55"/>
<path d="M10.3467 11.2061V12.9297C10.3467 13.6426 9.76563 14.2236 9.05273 14.2236C8.33984 14.2236 7.76367 13.6426 7.76367 12.9297V11.2061H10.3467Z" fill="#F5F5F5"/>
<path d="M7.3291 10.9912C7.44776 10.9912 7.54394 10.895 7.54394 10.7764C7.54394 10.6577 7.44776 10.5615 7.3291 10.5615C7.21045 10.5615 7.11426 10.6577 7.11426 10.7764C7.11426 10.895 7.21045 10.9912 7.3291 10.9912Z" fill="#FFE15A"/>
<path d="M10.7764 10.9912C10.895 10.9912 10.9912 10.895 10.9912 10.7764C10.9912 10.6577 10.895 10.5615 10.7764 10.5615C10.6577 10.5615 10.5615 10.6577 10.5615 10.7764C10.5615 10.895 10.6577 10.9912 10.7764 10.9912Z" fill="#FFE15A"/>
<path d="M7.3291 12.7148C7.44776 12.7148 7.54394 12.6187 7.54394 12.5C7.54394 12.3813 7.44776 12.2852 7.3291 12.2852C7.21045 12.2852 7.11426 12.3813 7.11426 12.5C7.11426 12.6187 7.21045 12.7148 7.3291 12.7148Z" fill="#FFE15A"/>
<path d="M10.7764 12.7148C10.895 12.7148 10.9912 12.6187 10.9912 12.5C10.9912 12.3813 10.895 12.2852 10.7764 12.2852C10.6577 12.2852 10.5615 12.3813 10.5615 12.5C10.5615 12.6187 10.6577 12.7148 10.7764 12.7148Z" fill="#FFE15A"/>
<path d="M9.05273 10.9912C9.17139 10.9912 9.26758 10.895 9.26758 10.7764C9.26758 10.6577 9.17139 10.5615 9.05273 10.5615C8.93408 10.5615 8.83789 10.6577 8.83789 10.7764C8.83789 10.895 8.93408 10.9912 9.05273 10.9912Z" fill="#FFE15A"/>
<path d="M10.3467 14.3066C10.4653 14.3066 10.5615 14.2105 10.5615 14.0918C10.5615 13.9731 10.4653 13.877 10.3467 13.877C10.228 13.877 10.1318 13.9731 10.1318 14.0918C10.1318 14.2105 10.228 14.3066 10.3467 14.3066Z" fill="#FFE15A"/>
<path d="M7.7832 14.3066C7.90186 14.3066 7.99805 14.2105 7.99805 14.0918C7.99805 13.9731 7.90186 13.877 7.7832 13.877C7.66455 13.877 7.56836 13.9731 7.56836 14.0918C7.56836 14.2105 7.66455 14.3066 7.7832 14.3066Z" fill="#FFE15A"/>
<path d="M9.33105 12.3926V12.7637C9.33105 12.915 9.2041 13.042 9.05273 13.042C8.90137 13.042 8.77441 12.915 8.77441 12.7637V12.3926H9.33105Z" fill="#41479B"/>
<path d="M9.33105 11.5088V11.8799C9.33105 12.0313 9.2041 12.1582 9.05273 12.1582C8.90137 12.1582 8.77441 12.0313 8.77441 11.8799V11.5088H9.33105Z" fill="#41479B"/>
<path d="M9.33105 13.2812V13.6523C9.33105 13.8037 9.2041 13.9307 9.05273 13.9307C8.90137 13.9307 8.77441 13.8037 8.77441 13.6523V13.2812H9.33105Z" fill="#41479B"/>
<path d="M10.083 12.3926V12.7637C10.083 12.915 9.95605 13.042 9.80469 13.042C9.65332 13.042 9.52637 12.915 9.52637 12.7637V12.3926H10.083Z" fill="#41479B"/>
<path d="M8.58399 12.3926V12.7637C8.58399 12.915 8.45703 13.042 8.30566 13.042C8.1543 13.042 8.02734 12.915 8.02734 12.7637V12.3926H8.58399Z" fill="#41479B"/>
</svg>
