<svg width="25" height="19" viewBox="0 0 25 19" fill="none" xmlns="http://www.w3.org/2000/svg">
<path d="M0.430945 19H24.5627C24.8007 19 24.7984 19 24.9937 19V3.64612e-07C25.0424 -1.43401e-07 24.8007 1.48546e-07 24.5627 1.48546e-07H0.430945C0.192968 5.67891e-05 0.268486 2.97091e-07 0 0V19C0.317302 19 0.192968 19 0.430945 19Z" fill="#C8414B"/>
<path d="M24.9936 4.00023H0V15.0004H24.9936V4.00023Z" fill="#FFD250"/>
<path d="M10.5578 9.50003L10.9231 7.59232C10.9568 7.41662 10.8416 7.24998 10.6864 7.24998H10.4291C10.274 7.24998 10.1588 7.41662 10.1924 7.59232L10.5578 9.50003Z" fill="#C8414B"/>
<path d="M10.9888 8.49976H10.127V12.7495H10.9888V8.49976Z" fill="#F5F5F5"/>
<path d="M11.2039 8.00018H9.91113V8.50021H11.2039V8.00018Z" fill="#FAB446"/>
<path d="M11.2043 9.50003H9.04956V10.0001H11.2043V9.50003Z" fill="#C8414B"/>
<path d="M11.2039 11.5L9.91113 11V10.5L11.2039 11V11.5Z" fill="#C8414B"/>
<path d="M4.09389 9.50003L4.45928 7.59232C4.49296 7.41662 4.37771 7.24998 4.22257 7.24998H3.96522C3.81013 7.24998 3.69492 7.41662 3.72851 7.59232L4.09389 9.50003Z" fill="#C8414B"/>
<path d="M5.60209 8.00002C5.36411 8.00002 5.17114 8.22391 5.17114 8.50004V11.75C5.17114 12.3575 5.65979 13.5 7.32577 13.5C8.99175 13.5 9.4804 12.3575 9.4804 11.75V8.50004C9.4804 8.22391 9.28743 8.00002 9.04945 8.00002H5.60209V8.00002Z" fill="#F5F5F5"/>
<path d="M7.32577 10.5H5.17114V8.50004C5.17114 8.22391 5.36411 8.00002 5.60209 8.00002H7.32577V10.5Z" fill="#C8414B"/>
<path d="M7.32568 10.5H9.48031V11.75C9.48031 12.4404 8.99801 13 8.403 13C7.80798 13 7.32568 12.4404 7.32568 11.75V10.5V10.5Z" fill="#C8414B"/>
<path d="M5.17114 10.5H7.32577V11.75C7.32577 12.4404 6.84347 13 6.24846 13C5.65344 13 5.17114 12.4404 5.17114 11.75V10.5V10.5Z" fill="#FAB446"/>
<path d="M6.89481 12.7444V10.5H6.46387V12.9748C6.62418 12.9371 6.76901 12.8547 6.89481 12.7444Z" fill="#C8414B"/>
<path d="M6.033 12.9748V10.5H5.60205V12.7444C5.7279 12.8547 5.87273 12.9371 6.033 12.9748Z" fill="#C8414B"/>
<path d="M6.89484 9.50003H5.60205V10.0001H6.89484V9.50003Z" fill="#FFB441"/>
<path d="M6.89484 8.49976H5.60205V8.99978H6.89484V8.49976Z" fill="#FAB446"/>
<path d="M6.67922 8.79712H5.81738V9.70291H6.67922V8.79712Z" fill="#FAB446"/>
<path d="M4.52444 8.49976H3.6626V12.7495H4.52444V8.49976Z" fill="#F5F5F5"/>
<path d="M4.74029 12.5003H3.44751V13.0003H4.74029V12.5003Z" fill="#FAB446"/>
<path d="M4.7403 8.00018H3.44751V8.50021H4.7403V8.00018Z" fill="#FAB446"/>
<path d="M4.95586 12.9998H3.23218V13.4999H4.95586V12.9998Z" fill="#5064AA"/>
<path d="M11.4197 12.5003H10.127V13.0003H11.4197V12.5003Z" fill="#FAB446"/>
<path d="M11.4195 12.9998H9.6958V13.4999H11.4195V12.9998Z" fill="#5064AA"/>
<path d="M8.61877 7.50005H6.0332V8.00007H8.61877V7.50005Z" fill="#FAB446"/>
<path d="M7.54154 6.00021H7.1106V7.50022H7.54154V6.00021Z" fill="#FFB441"/>
<path d="M6.89466 6.75002C6.53821 6.75002 6.24829 6.41357 6.24829 6.00004C6.24829 5.58645 6.53826 5.25006 6.89466 5.25006C7.25111 5.25006 7.54103 5.58651 7.54103 6.00004C7.54108 6.41357 7.25111 6.75002 6.89466 6.75002ZM6.89466 5.75003C6.77579 5.75003 6.67919 5.86206 6.67919 6.00004C6.67919 6.13796 6.77574 6.25005 6.89466 6.25005C7.01357 6.25005 7.11013 6.13801 7.11013 6.00004C7.11013 5.86212 7.01357 5.75003 6.89466 5.75003Z" fill="#F5F5F5"/>
<path d="M7.75648 6.75002C7.40002 6.75002 7.11011 6.41357 7.11011 6.00004C7.11011 5.58645 7.40007 5.25006 7.75648 5.25006C8.11293 5.25006 8.40284 5.58651 8.40284 6.00004C8.40284 6.41357 8.11288 6.75002 7.75648 6.75002ZM7.75648 5.75003C7.63761 5.75003 7.541 5.86206 7.541 6.00004C7.541 6.13796 7.63756 6.25005 7.75648 6.25005C7.87534 6.25005 7.97195 6.13801 7.97195 6.00004C7.9719 5.86212 7.87534 5.75003 7.75648 5.75003Z" fill="#F5F5F5"/>
<path d="M8.61829 7.25003C8.26184 7.25003 7.97192 6.91359 7.97192 6.50005C7.97192 6.08646 8.26189 5.75008 8.61829 5.75008C8.97474 5.75008 9.26466 6.08652 9.26466 6.50005C9.26466 6.91359 8.9747 7.25003 8.61829 7.25003ZM8.61829 6.25004C8.49943 6.25004 8.40282 6.36208 8.40282 6.50005C8.40282 6.63797 8.49938 6.75006 8.61829 6.75006C8.73716 6.75006 8.83376 6.63803 8.83376 6.50005C8.83376 6.36208 8.73716 6.25004 8.61829 6.25004Z" fill="#F5F5F5"/>
<path d="M6.03284 7.25003C5.67639 7.25003 5.38647 6.91359 5.38647 6.50005C5.38647 6.08646 5.67644 5.75008 6.03284 5.75008C6.38929 5.75008 6.67921 6.08652 6.67921 6.50005C6.67926 6.91359 6.38929 7.25003 6.03284 7.25003ZM6.03284 6.25004C5.91398 6.25004 5.81737 6.36208 5.81737 6.50005C5.81737 6.63797 5.91393 6.75006 6.03284 6.75006C6.15176 6.75006 6.24832 6.63797 6.24832 6.5C6.24832 6.36208 6.15176 6.25004 6.03284 6.25004Z" fill="#F5F5F5"/>
<path d="M8.61848 11.5V11.75C8.61848 11.8879 8.52183 12 8.40301 12C8.28419 12 8.18754 11.8879 8.18754 11.75V11.5H8.61848ZM9.04938 11H7.75659V11.75C7.75659 12.1636 8.04656 12.5 8.40296 12.5C8.75941 12.5 9.04933 12.1636 9.04933 11.75V11H9.04938Z" fill="#FAB446"/>
<path d="M8.40311 10.0001C8.16514 10.0001 7.97217 9.77615 7.97217 9.50003V9.00001C7.97217 8.72388 8.16514 8.49998 8.40311 8.49998C8.64109 8.49998 8.83406 8.72388 8.83406 9.00001V9.50003C8.83406 9.77615 8.64109 10.0001 8.40311 10.0001Z" fill="#FFA0D2"/>
<path d="M7.32581 11.2497C7.68279 11.2497 7.97218 10.9139 7.97218 10.4997C7.97218 10.0855 7.68279 9.74976 7.32581 9.74976C6.96883 9.74976 6.67944 10.0855 6.67944 10.4997C6.67944 10.9139 6.96883 11.2497 7.32581 11.2497Z" fill="#5064AA"/>
<path d="M7.54154 4.99994H7.1106V6.49995H7.54154V4.99994Z" fill="#FAB446"/>
<path d="M6.033 7.50006L5.60205 7.00003L5.85448 6.70715C6.24466 6.25442 6.77392 6.00005 7.32578 6.00005C7.87764 6.00005 8.40685 6.25442 8.79709 6.70715L9.04951 7.00003L8.61857 7.50006H6.033Z" fill="#C8414B"/>
<path d="M7.32582 7.24993C7.44483 7.24993 7.5413 7.138 7.5413 6.99992C7.5413 6.86184 7.44483 6.74991 7.32582 6.74991C7.20682 6.74991 7.11035 6.86184 7.11035 6.99992C7.11035 7.138 7.20682 7.24993 7.32582 7.24993Z" fill="#FFD250"/>
<path d="M6.46376 7.24993C6.58277 7.24993 6.67924 7.138 6.67924 6.99992C6.67924 6.86184 6.58277 6.74991 6.46376 6.74991C6.34476 6.74991 6.24829 6.86184 6.24829 6.99992C6.24829 7.138 6.34476 7.24993 6.46376 7.24993Z" fill="#FFD250"/>
<path d="M8.1874 7.24993C8.3064 7.24993 8.40287 7.138 8.40287 6.99992C8.40287 6.86184 8.3064 6.74991 8.1874 6.74991C8.06839 6.74991 7.97192 6.86184 7.97192 6.99992C7.97192 7.138 8.06839 7.24993 8.1874 7.24993Z" fill="#FFD250"/>
<path d="M5.60199 9.50003H3.44727V10.0001H5.60199V9.50003Z" fill="#C8414B"/>
<path d="M3.44727 11.5L4.74 11V10.5L3.44727 11V11.5Z" fill="#C8414B"/>
</svg>
