<svg width="25" height="25" viewBox="0 0 25 25" fill="none" xmlns="http://www.w3.org/2000/svg">
<path d="M25 4.16685H0V20.8332H25V4.16685Z" fill="#D80027"/>
<path d="M12.0707 10.5853L12.9298 11.7692L14.3211 11.3181L13.4606 12.5009L14.3196 13.6847L12.9288 13.2318L12.0684 14.4147L12.0693 12.9521L10.6785 12.4992L12.0698 12.048L12.0707 10.5853Z" fill="#F0F0F0"/>
<path d="M9.72651 15.4591C8.09228 15.4591 6.76743 14.1342 6.76743 12.5C6.76743 10.8658 8.09228 9.54092 9.72651 9.54092C10.2361 9.54092 10.7155 9.66977 11.1341 9.89658C10.4774 9.25439 9.57939 8.85806 8.58843 8.85806C6.57705 8.85806 4.94653 10.4886 4.94653 12.4999C4.94653 14.5113 6.5771 16.1418 8.58843 16.1418C9.57939 16.1418 10.4774 15.7455 11.1341 15.1033C10.7155 15.3302 10.2361 15.4591 9.72651 15.4591Z" fill="#F0F0F0"/>
</svg>
