<svg width="28" height="28" viewBox="0 0 28 28" fill="none" xmlns="http://www.w3.org/2000/svg">
<g clip-path="url(#clip0)">
<path d="M28 4.66675H0V23.3336H28V4.66675Z" fill="#F0F0F0"/>
<path d="M15.75 4.6665H12.25V12.2498H0V15.7498H12.25V23.3331H15.75V15.7498H28V12.2498H15.75V4.6665Z" fill="#D80027"/>
<path d="M21.5356 17.2463L28.0005 20.838V17.2463H21.5356Z" fill="#0052B4"/>
<path d="M17.0439 17.2463L28.0005 23.3333V21.612L20.1423 17.2463H17.0439Z" fill="#0052B4"/>
<path d="M25.082 23.3332L17.0439 18.8672V23.3332H25.082Z" fill="#0052B4"/>
<path d="M17.0439 17.2463L28.0005 23.3333V21.612L20.1423 17.2463H17.0439Z" fill="#F0F0F0"/>
<path d="M17.0439 17.2463L28.0005 23.3333V21.612L20.1423 17.2463H17.0439Z" fill="#D80027"/>
<path d="M4.94052 17.2461L0 19.9909V17.2461H4.94052Z" fill="#0052B4"/>
<path d="M10.9565 18.02V23.333H1.39404L10.9565 18.02Z" fill="#0052B4"/>
<path d="M7.85821 17.2463L0 21.612V23.3333L10.9565 17.2463H7.85821Z" fill="#D80027"/>
<path d="M6.46488 10.7535L0 7.16187V10.7535H6.46488Z" fill="#0052B4"/>
<path d="M10.9565 10.7534L0 4.6665V6.38774L7.85821 10.7534H10.9565Z" fill="#0052B4"/>
<path d="M2.91846 4.6665L10.9565 9.1325V4.6665H2.91846Z" fill="#0052B4"/>
<path d="M10.9565 10.7534L0 4.6665V6.38774L7.85821 10.7534H10.9565Z" fill="#F0F0F0"/>
<path d="M10.9565 10.7534L0 4.6665V6.38774L7.85821 10.7534H10.9565Z" fill="#D80027"/>
<path d="M23.0601 10.7536L28.0006 8.00879V10.7536H23.0601Z" fill="#0052B4"/>
<path d="M17.0439 9.97944V4.6665H26.6064L17.0439 9.97944Z" fill="#0052B4"/>
<path d="M20.1423 10.7534L28.0005 6.38774V4.6665L17.0439 10.7534H20.1423Z" fill="#D80027"/>
</g>
<defs>
<clipPath id="clip0">
<rect width="28" height="28" fill="white"/>
</clipPath>
</defs>
</svg>
