<svg width="31" height="31" viewBox="0 0 31 31" fill="none" xmlns="http://www.w3.org/2000/svg">
<rect y="0.118652" width="30.5085" height="30.5085" rx="7" fill="white"/>
<g clip-path="url(#clip0)">
<path d="M13.1556 15.8083L9.12939 19.8582L14.2213 24.9501C15.0503 25.7791 16.3529 25.7791 17.1818 24.9501L22.2501 19.8582L18.2002 15.8083L15.6897 13.2742L13.1556 15.8083Z" fill="#00AEE6"/>
<path d="M9.12946 11.7585L6.54796 14.3163C5.71904 15.1452 5.71904 16.4478 6.54796 17.2768L9.12946 19.8583L13.1793 15.8084L15.6898 13.2979L11.6399 9.24805L9.12946 11.7585Z" fill="#123962"/>
<path d="M19.7397 17.3477L22.2502 19.8582L24.8317 17.2767C25.6606 16.4478 25.6606 15.1452 24.8317 14.3162L23.7896 13.2742L19.7397 17.3477Z" fill="#B1D4E5"/>
<path d="M18.2004 15.8081L15.6899 13.274L19.7398 9.22412L15.6899 13.274L18.2004 15.8081Z" fill="#B1D4E5"/>
<path d="M15.6899 13.274L18.2004 15.8081L19.7398 17.3476L23.7897 13.274L22.2503 11.7583L19.7398 9.22412L15.6899 13.274Z" fill="#2754BA"/>
<path d="M19.7399 9.24787L17.1584 6.66637C16.3295 5.83745 15.0269 5.83745 14.198 6.66637L11.6401 9.24787L15.69 13.2978L19.7399 9.24787Z" fill="#799EB2"/>
</g>
<defs>
<clipPath id="clip0">
<rect width="19.4915" height="19.4915" fill="white" transform="translate(5.93213 6.05078)"/>
</clipPath>
</defs>
</svg>
