<svg width="31" height="31" viewBox="0 0 31 31" fill="none" xmlns="http://www.w3.org/2000/svg">
<rect y="0.372803" width="30.5085" height="30.5085" rx="7" fill="#1652F0"/>
<g clip-path="url(#clip0)">
<path d="M15.7568 10.3516C17.4178 10.103 18.8911 10.545 20.0864 11.6983C21.0315 10.7522 21.9419 9.82678 22.8801 8.88757C22.8384 8.83923 22.762 8.75635 22.6786 8.68039C20.0933 6.43596 17.1467 5.75918 13.8666 6.74673C9.14087 8.17626 6.45835 13.4248 8.11929 18.031C9.32851 21.3942 11.7539 23.4315 15.2982 23.984C18.1266 24.4259 20.6285 23.5903 22.7481 21.6636C22.9149 21.5116 22.9149 21.4011 22.7481 21.2423C21.928 20.4412 21.1219 19.6332 20.3088 18.8321C20.2532 18.7769 20.1837 18.7423 20.1211 18.694C17.8347 20.8625 14.5824 20.3238 12.9423 18.549C11.3091 16.7742 11.184 14.0394 12.7407 12.1057C13.5191 11.1458 14.5337 10.5312 15.7568 10.3516Z" fill="white"/>
</g>
<defs>
<clipPath id="clip0">
<rect width="15.2542" height="17.7966" fill="white" transform="translate(7.62695 6.30493)"/>
</clipPath>
</defs>
</svg>
