<svg width="131" height="36" viewBox="0 0 131 36" fill="none" xmlns="http://www.w3.org/2000/svg">
<path fill-rule="evenodd" clip-rule="evenodd" d="M53.3589 23.9819C50.6455 23.9819 48 22.0439 48 17.6499C48 13.2558 50.6455 11.3403 53.3589 11.3403C54.693 11.3403 55.7332 11.6785 56.4793 12.1742L55.6652 13.9543C55.1678 13.5938 54.4217 13.3685 53.6755 13.3685C52.0475 13.3685 50.5551 14.6529 50.5551 17.6273C50.5551 20.6018 52.0927 21.9088 53.6755 21.9088C54.4217 21.9088 55.1678 21.6833 55.6652 21.3229L56.4793 23.148C55.7105 23.6663 54.693 23.9819 53.3589 23.9819Z" fill="white"/>
<path fill-rule="evenodd" clip-rule="evenodd" d="M62.6977 23.9819C59.2383 23.9819 57.3389 21.2552 57.3389 17.6499C57.3389 14.0445 59.2383 11.3403 62.6977 11.3403C66.1574 11.3403 68.0568 14.0445 68.0568 17.6499C68.0568 21.2552 66.1574 23.9819 62.6977 23.9819ZM62.6977 13.3008C60.7758 13.3008 59.8261 15.0133 59.8261 17.6273C59.8261 20.2412 60.7758 21.9763 62.6977 21.9763C64.6198 21.9763 65.5695 20.2412 65.5695 17.6273C65.5695 15.0133 64.6198 13.3008 62.6977 13.3008Z" fill="white"/>
<path fill-rule="evenodd" clip-rule="evenodd" d="M71.3804 9.37984C70.5665 9.37984 69.9106 8.74898 69.9106 7.98284C69.9106 7.21669 70.5665 6.58569 71.3804 6.58569C72.1944 6.58569 72.8502 7.21669 72.8502 7.98284C72.8502 8.74898 72.1944 9.37984 71.3804 9.37984ZM70.1369 11.5883H72.6241V23.734H70.1369V11.5883Z" fill="white"/>
<path fill-rule="evenodd" clip-rule="evenodd" d="M82.415 23.7339V15.6218C82.415 14.2022 81.5558 13.3233 79.8599 13.3233C78.9555 13.3233 78.1188 13.481 77.6214 13.6839V23.7339H75.1567V12.1966C76.3778 11.7009 77.938 11.3403 79.8373 11.3403C83.2518 11.3403 84.9023 12.8276 84.9023 15.3965V23.7339H82.415Z" fill="white"/>
<path fill-rule="evenodd" clip-rule="evenodd" d="M91.4594 23.9819C89.8765 23.9819 88.3164 23.5988 87.3667 23.1256V6.04492H89.8313V11.9038C90.4192 11.6334 91.3689 11.4081 92.2055 11.4081C95.3486 11.4081 97.4741 13.6614 97.4741 17.3795C97.4741 21.9538 95.0997 23.9819 91.4594 23.9819ZM91.7759 13.3234C91.0975 13.3234 90.3061 13.4811 89.8313 13.7291V21.7059C90.1931 21.8636 90.8941 22.0214 91.595 22.0214C93.5622 22.0214 95.0094 20.6694 95.0094 17.5598C95.0094 14.9008 93.7431 13.3234 91.7759 13.3234Z" fill="white"/>
<path fill-rule="evenodd" clip-rule="evenodd" d="M104.189 23.9819C100.685 23.9819 98.9209 22.5622 98.9209 20.1736C98.9209 16.7936 102.539 16.1852 106.224 15.9823V15.2162C106.224 13.6839 105.207 13.143 103.647 13.143C102.493 13.143 101.092 13.5036 100.278 13.8868L99.6444 12.1966C100.617 11.7685 102.267 11.3403 103.895 11.3403C106.812 11.3403 108.576 12.467 108.576 15.464V23.1256C107.694 23.5988 105.908 23.9819 104.189 23.9819ZM106.224 17.6273C103.737 17.7625 101.25 17.9653 101.25 20.1286C101.25 21.4129 102.245 22.2016 104.122 22.2016C104.913 22.2016 105.84 22.0665 106.224 21.8862V17.6273Z" fill="white"/>
<path fill-rule="evenodd" clip-rule="evenodd" d="M114.138 23.9819C112.714 23.9819 111.222 23.5988 110.34 23.1256L111.176 21.2328C111.809 21.6158 113.144 22.0213 114.071 22.0213C115.405 22.0213 116.287 21.3679 116.287 20.3539C116.287 19.2498 115.36 18.8216 114.116 18.3709C112.488 17.7625 110.656 17.0189 110.656 14.743C110.656 12.7375 112.217 11.3403 114.93 11.3403C116.4 11.3403 117.621 11.7009 118.48 12.1966L117.711 13.9092C117.169 13.5712 116.083 13.1882 115.201 13.1882C113.912 13.1882 113.189 13.8642 113.189 14.743C113.189 15.8472 114.093 16.2302 115.292 16.6809C116.988 17.3119 118.864 18.0103 118.864 20.3765C118.864 22.5622 117.191 23.9819 114.138 23.9819Z" fill="white"/>
<path fill-rule="evenodd" clip-rule="evenodd" d="M130.893 17.6048L122.798 18.7315C123.047 20.9172 124.472 22.0213 126.529 22.0213C127.75 22.0213 129.062 21.7285 129.898 21.2778L130.622 23.1256C129.672 23.6213 128.044 23.9819 126.371 23.9819C122.527 23.9819 120.379 21.5256 120.379 17.6499C120.379 13.9318 122.459 11.3403 125.874 11.3403C129.039 11.3403 130.916 13.4135 130.916 16.6809C130.916 16.9738 130.916 17.2893 130.893 17.6048ZM125.828 13.143C123.929 13.143 122.685 14.5853 122.64 17.109L128.542 16.2978C128.519 14.1796 127.456 13.143 125.828 13.143Z" fill="white"/>
<rect width="36" height="36" rx="7" fill="#1652F0"/>
<g clip-path="url(#clip0)">
<path d="M18.5935 11.7751C20.5534 11.4818 22.2919 12.0033 23.7024 13.3642C24.8177 12.2478 25.8919 11.1558 26.999 10.0476C26.9498 9.99051 26.8596 9.89272 26.7612 9.80308C23.7106 7.15466 20.2336 6.35605 16.363 7.52136C10.7867 9.20821 7.62131 15.4015 9.58122 20.8368C11.0081 24.8054 13.8701 27.2094 18.0523 27.8613C21.3899 28.3828 24.342 27.3968 26.8432 25.1232C27.04 24.9439 27.04 24.8136 26.8432 24.6261C25.8755 23.6808 24.9243 22.7274 23.9648 21.7821C23.8992 21.7169 23.8172 21.6762 23.7434 21.6191C21.0455 24.1779 17.2076 23.5423 15.2723 21.448C13.3452 19.3537 13.1976 16.1267 15.0345 13.845C15.953 12.7123 17.1502 11.987 18.5935 11.7751Z" fill="white"/>
</g>
<defs>
<clipPath id="clip0">
<rect width="18" height="21" fill="white" transform="translate(9 7)"/>
</clipPath>
</defs>
</svg>
