<svg width="31" height="31" viewBox="0 0 31 31" fill="none" xmlns="http://www.w3.org/2000/svg">
<rect width="30.5085" height="30.5085" rx="7" fill="#FCD846"/>
<path d="M21.3904 8.86547C21.3832 8.86186 21.3764 8.85743 21.3701 8.85233C19.7732 7.54632 17.8871 6.89331 15.9287 6.89331C13.7483 6.89331 11.6406 7.69457 10.1144 9.22424C8.51547 10.7539 7.57065 12.7206 7.42529 14.9059C7.42529 15.0266 7.52313 15.1244 7.64382 15.1244H8.22427C8.34495 15.1244 8.44279 15.0266 8.44279 14.9059C8.7335 10.9724 12.004 7.91309 15.9287 7.91309C17.6729 7.91309 19.3445 8.49582 20.7254 9.58845C20.7655 9.62865 20.8307 9.62865 20.8708 9.58845L21.4186 9.03938C21.4709 8.98694 21.4566 8.89866 21.3904 8.86547Z" fill="black"/>
<path d="M20.368 18.603C20.3641 18.6149 20.3584 18.6262 20.3511 18.6365C19.3326 20.0835 17.6665 20.879 15.856 20.879C12.8035 20.879 10.3324 18.4024 10.3324 15.3431C10.3324 12.3566 12.8035 9.87998 15.856 9.87998C17.6003 9.87998 19.2719 10.7541 20.362 12.1381C20.4022 12.1783 20.4673 12.1783 20.5074 12.1381L21.0888 11.5553C21.129 11.5151 21.129 11.4499 21.0888 11.4096C19.8533 9.80713 17.891 8.78735 15.856 8.78735C12.2948 8.78735 9.31494 11.701 9.31494 15.2703C9.31494 18.8395 12.2221 21.826 15.856 21.826C17.8886 21.826 19.8488 20.8812 21.0846 19.2095C21.0874 19.2056 21.0905 19.202 21.0939 19.1986C21.1313 19.1612 21.1313 19.1005 21.0939 19.0631L20.584 18.5521C20.5155 18.4834 20.3986 18.5109 20.368 18.603Z" fill="black"/>
<path d="M22.5487 10.0323C22.5443 10.0279 22.5404 10.0231 22.537 10.018C22.395 9.8046 22.2523 9.59206 22.041 9.44814C22.0359 9.44468 22.0312 9.44076 22.0268 9.43641C21.9903 9.39982 21.931 9.39982 21.8945 9.43641L21.3066 10.0257C21.2664 10.0659 21.2664 10.1311 21.3066 10.1714C21.522 10.3873 21.6665 10.5321 21.8102 10.7464C21.8136 10.7515 21.8175 10.7563 21.8218 10.7606C21.8584 10.7972 21.9176 10.7972 21.9541 10.7606L22.5487 10.1648C22.5852 10.1282 22.5852 10.0689 22.5487 10.0323Z" fill="black"/>
<path d="M20.7185 21.1764C20.6832 21.134 20.619 21.1311 20.58 21.1701C19.1991 22.2628 17.6002 22.9183 15.7832 22.9183C11.8586 22.9183 8.58807 19.859 8.29736 15.9256C8.29736 15.8049 8.19952 15.707 8.07883 15.707H7.64391C7.48299 15.707 7.35254 15.8375 7.35254 15.9984C7.4979 18.1836 8.44271 20.2232 10.0416 21.68C11.6406 23.1369 13.6756 24.011 15.8559 24.011C17.8182 24.011 19.7805 23.2825 21.3068 22.0442C21.348 22.003 21.3509 21.9371 21.3137 21.8923L20.7185 21.1764Z" fill="black"/>
<path d="M21.9541 19.9984C21.9176 19.9618 21.8584 19.9618 21.8218 19.9984C21.8175 20.0028 21.8136 20.0076 21.8102 20.0127C21.6665 20.227 21.522 20.3718 21.3066 20.5877C21.2664 20.628 21.2664 20.6931 21.3066 20.7334L21.888 21.3161C21.9281 21.3563 21.9932 21.3563 22.0333 21.3161C22.2514 21.0976 22.3967 20.8791 22.5421 20.7334C22.5823 20.6931 22.5823 20.628 22.5421 20.5877L21.9541 19.9984Z" fill="black"/>
<path d="M23.1238 21.3889C21.3795 23.5742 18.7631 24.8125 15.9286 24.8125C10.7685 24.8125 6.55314 20.5877 6.55314 15.4159C6.55314 10.2442 10.6958 5.94654 15.9286 5.94654C18.7631 5.94654 21.3795 7.18485 23.1238 9.37009C23.1639 9.41029 23.229 9.41029 23.2691 9.37009L23.8804 8.7575C23.8962 8.74163 23.885 8.71452 23.8625 8.71452C23.855 8.71452 23.8478 8.7111 23.843 8.70524C21.8808 6.30719 18.9772 4.92676 15.9286 4.92676C10.1871 4.92676 5.53564 9.58862 5.53564 15.3431C5.53564 21.0976 10.1871 25.7594 15.9286 25.7594C18.9811 25.7594 21.8883 24.3754 23.9233 22.0445C23.9634 22.0043 23.9634 21.9391 23.9233 21.8988L23.4145 21.3889C23.3343 21.3085 23.204 21.3085 23.1238 21.3889Z" fill="black"/>
</svg>
