<svg width="169" height="36" viewBox="0 0 169 36" fill="none" xmlns="http://www.w3.org/2000/svg">
<path d="M53.2999 17.2221H53.4623V16.9785C53.4623 16.7349 53.4623 16.5725 53.4623 16.3289C53.4623 16.0854 53.5435 15.8418 53.6247 15.6794C53.7059 15.4358 53.7871 15.2734 53.8683 15.111C53.9495 14.9486 54.1119 14.7863 54.1931 14.6239C54.3555 14.4615 54.5178 14.3803 54.6802 14.2991C54.8426 14.2179 55.0862 14.2179 55.3298 14.2179C55.5734 14.2179 55.8169 14.2991 56.0605 14.3803C56.2229 14.4615 56.3853 14.6239 56.5477 14.7051C56.7101 14.8675 56.7913 15.0298 56.8725 15.2734C56.9536 15.517 57.0348 15.7606 57.0348 16.0042V16.1666H58.4963V16.0042C58.4151 15.5982 58.3339 15.1922 58.1716 14.7863C58.0092 14.4615 57.8468 14.1367 57.522 13.8119C57.2784 13.5684 56.9536 13.3248 56.5477 13.2436C56.2229 13.0812 55.7357 13 55.3298 13C54.9238 13 54.599 13.0812 54.2743 13.1624C53.9495 13.2436 53.7059 13.406 53.4623 13.6495C53.2187 13.8119 52.9752 14.0555 52.8128 14.2991C52.6504 14.5427 52.488 14.8675 52.4068 15.111C52.3256 15.4358 52.2444 15.7606 52.1632 16.0854C52.082 16.4101 52.082 16.7349 52.082 17.0597V17.3033L53.2999 17.2221Z" fill="white"/>
<path d="M57.034 19.1708V19.3332C57.034 19.5768 56.9528 19.8203 56.8716 20.0639C56.7904 20.3075 56.7092 20.4699 56.5468 20.6323C56.3845 20.7947 56.2221 20.8759 56.0597 20.957C55.8973 21.0382 55.6537 21.0382 55.3289 21.0382C55.0854 21.0382 54.8418 20.957 54.6794 20.957C54.517 20.8759 54.3546 20.7947 54.1922 20.6323C54.0298 20.4699 53.9486 20.3075 53.8675 20.1451C53.7863 19.9827 53.7051 19.7391 53.6239 19.5768C53.5427 19.3332 53.4615 19.0896 53.4615 18.846C53.4615 18.6024 53.4615 18.3588 53.4615 18.1965V17.9529H52V18.1965C52 18.5212 52 18.846 52.0812 19.1708C52.1624 19.4956 52.2436 19.8203 52.3248 20.1451C52.406 20.4699 52.5684 20.7135 52.7307 20.957C52.8931 21.2006 53.1367 21.4442 53.3803 21.6066C53.6239 21.769 53.9486 21.9314 54.1922 22.0938C54.517 22.1749 54.8418 22.2561 55.2477 22.2561C55.6537 22.2561 56.0597 22.1749 56.4656 22.0126C56.7904 21.8502 57.1152 21.6878 57.44 21.4442C57.6836 21.2006 57.9271 20.8759 58.0895 20.5511C58.2519 20.2263 58.3331 19.8203 58.4143 19.4144V19.252L57.034 19.1708Z" fill="white"/>
<path d="M66.1276 19.252H64.585V22.2561H66.1276V19.252Z" fill="white"/>
<path d="M68.9696 18.2777C69.132 18.1965 69.3756 18.0341 69.538 17.9529C69.7816 17.7905 69.9439 17.6281 70.1063 17.3846C70.2687 17.141 70.3499 16.9786 70.4311 16.6538C70.5123 16.4102 70.5935 16.0855 70.5935 15.8419C70.5935 15.3547 70.5123 14.9488 70.3499 14.624C70.1875 14.2992 69.9439 13.9744 69.7004 13.7308C69.3756 13.4873 69.0508 13.3249 68.726 13.2437C68.4013 13.1625 67.9141 13.0813 67.5081 13.0813H64.7476V18.6025H67.6705L69.3756 22.175H70.8371H70.9995L68.9696 18.2777ZM68.9696 16.4914C68.8884 16.6538 68.726 16.8162 68.6449 16.9786C68.4825 17.0598 68.3201 17.2222 68.0765 17.3034C67.8329 17.3846 67.6705 17.3846 67.4269 17.3846H66.0467V14.218H67.3458C67.5893 14.218 67.8329 14.2992 68.0765 14.2992C68.3201 14.2992 68.4825 14.4616 68.6449 14.624C68.8072 14.7052 68.8884 14.9488 68.9696 15.1111C69.0508 15.2735 69.0508 15.5171 69.0508 15.7607C69.132 16.0855 69.0508 16.2478 68.9696 16.4914Z" fill="white"/>
<path d="M81.2297 18.8459L84.1527 13H82.5288L80.5802 17.2221L78.7127 13H77.0889L80.0118 18.8459H81.2297Z" fill="white"/>
<path d="M79.9307 22.175H81.311V19.658H79.9307V22.175Z" fill="white"/>
<path d="M109.81 13H102.827V14.2991H109.81V13Z" fill="white"/>
<path d="M105.506 22.1748H107.049V15.0298H105.506V22.1748Z" fill="white"/>
<path d="M129.621 19.3333H128.159V22.175H129.621V19.3333Z" fill="white"/>
<path d="M132.463 18.2777C132.626 18.1965 132.869 18.0341 133.032 17.9529C133.275 17.7905 133.438 17.6281 133.6 17.3846C133.762 17.141 133.844 16.9786 133.925 16.6538C134.006 16.4102 134.087 16.0855 134.087 15.8419C134.087 15.3547 134.006 14.9488 133.844 14.624C133.681 14.2992 133.438 13.9744 133.194 13.7308C132.869 13.4873 132.544 13.3249 132.22 13.2437C131.814 13.1625 131.408 13.0813 131.002 13.0813H128.241V18.6025H131.164L132.869 22.175H134.331H134.493L132.463 18.2777ZM132.544 16.4914C132.463 16.6538 132.301 16.8162 132.22 16.9786C132.057 17.0598 131.895 17.2222 131.651 17.3034C131.408 17.3846 131.245 17.3846 131.002 17.3846H129.622V14.218H130.921C131.164 14.218 131.408 14.2992 131.651 14.2992C131.895 14.2992 132.057 14.4616 132.22 14.624C132.382 14.7052 132.463 14.9488 132.544 15.1111C132.626 15.2735 132.626 15.5171 132.626 15.7607C132.626 16.0855 132.626 16.2478 132.544 16.4914Z" fill="white"/>
<path d="M140.583 13V14.3803H142.694V22.1749H144.236V13H140.583Z" fill="white"/>
<path d="M156.578 13H155.198V19.1707C155.198 19.4143 155.117 19.6579 155.117 19.9015C155.035 20.145 154.954 20.3074 154.792 20.4698C154.63 20.6322 154.467 20.7946 154.305 20.8758C154.142 20.957 153.899 21.0382 153.574 21.0382C153.33 21.0382 153.087 20.957 152.843 20.8758C152.681 20.7946 152.518 20.6322 152.356 20.4698C152.194 20.3074 152.112 20.0638 152.031 19.9015C151.95 19.6579 151.95 19.4143 151.95 19.1707V17.9528H150.57V19.1707C150.57 19.5767 150.651 19.9827 150.813 20.3886C150.976 20.7946 151.138 21.1194 151.463 21.3629C151.707 21.6877 152.031 21.8501 152.437 22.0125C152.762 22.1749 153.249 22.2561 153.655 22.2561C154.061 22.2561 154.467 22.1749 154.873 22.0125C155.198 21.8501 155.604 21.6065 155.847 21.3629C156.091 21.0382 156.335 20.7134 156.497 20.3886C156.659 19.9827 156.741 19.5767 156.741 19.1707L156.578 13Z" fill="white"/>
<path d="M151.868 13H150.488V17.2221H151.868V13Z" fill="white"/>
<path d="M167.376 13L165.915 17.1409L164.535 13H162.911V22.1749H164.291V18.5212L164.21 16.0042L165.428 19.7391H166.321L167.62 15.7606V17.2221H169V13H167.376Z" fill="white"/>
<path d="M167.62 18.5211V22.1748H169V18.0339H167.62V18.5211Z" fill="white"/>
<path d="M96.3316 14.6239C96.1693 14.2991 95.9257 13.9743 95.6821 13.7307C95.3573 13.4872 95.1137 13.3248 94.7078 13.1624C94.383 13.0812 93.977 13 93.5711 13H90.5669V16.6537H92.0284V14.2179H93.6523C93.8958 14.2179 94.1394 14.2991 94.3018 14.2991C94.4642 14.3803 94.7078 14.4615 94.789 14.6239C94.9514 14.7863 95.0325 14.9486 95.1137 15.111C95.1949 15.2734 95.1949 15.517 95.1949 15.7606C95.1949 16.0042 95.1137 16.2477 95.1137 16.4101C95.0325 16.5725 94.9514 16.7349 94.789 16.8973C94.6266 17.0597 94.4642 17.1409 94.3018 17.2221C94.1394 17.3033 93.8958 17.3033 93.6523 17.3033H90.6481V22.0937H92.1096V18.5212H93.7334C94.1394 18.5212 94.5454 18.44 94.8702 18.3588C95.2761 18.2776 95.6009 18.034 95.8445 17.7904C96.0881 17.5468 96.3316 17.2221 96.494 16.8973C96.6564 16.5725 96.7376 16.1666 96.7376 15.6794C96.5752 15.3546 96.494 14.9486 96.3316 14.6239Z" fill="white"/>
<path d="M121.259 18.1152V16.8161H117.605V14.2991H121.827V13H116.144V18.1152H117.443H121.259Z" fill="white"/>
<path d="M117.605 20.957V18.8459H116.143V22.1749H121.908V20.957H117.605Z" fill="white"/>
<rect width="36" height="36" rx="7" fill="#FCD846"/>
<path d="M25.24 10.4614C25.2315 10.4572 25.2235 10.4519 25.2161 10.4459C23.3318 8.90482 21.1062 8.13428 18.7952 8.13428C16.2224 8.13428 13.7353 9.07976 11.9344 10.8848C10.0476 12.6898 8.93275 15.0105 8.76123 17.5891C8.76123 17.7315 8.87668 17.847 9.01909 17.847H9.70402C9.84643 17.847 9.96188 17.7315 9.96188 17.5891C10.3049 12.9476 14.1641 9.33762 18.7952 9.33762C20.8534 9.33762 22.8259 10.0252 24.4554 11.3145C24.5027 11.362 24.5796 11.362 24.6269 11.3145L25.2733 10.6666C25.3351 10.6048 25.3182 10.5006 25.24 10.4614Z" fill="black"/>
<path d="M24.0338 21.9516C24.0292 21.9657 24.0225 21.979 24.0139 21.9911C22.8121 23.6986 20.846 24.6373 18.7096 24.6373C15.1077 24.6373 12.1919 21.7149 12.1919 18.1049C12.1919 14.5808 15.1077 11.6584 18.7096 11.6584C20.7679 11.6584 22.7404 12.6899 24.0268 14.323C24.0741 14.3704 24.151 14.3704 24.1983 14.323L24.8844 13.6354C24.9318 13.5879 24.9318 13.511 24.8844 13.4634C23.4265 11.5725 21.1109 10.3691 18.7096 10.3691C14.5074 10.3691 10.9912 13.8073 10.9912 18.019C10.9912 22.2307 14.4216 25.7547 18.7096 25.7547C21.1082 25.7547 23.4212 24.6399 24.8794 22.6672C24.8827 22.6627 24.8864 22.6584 24.8904 22.6544C24.9345 22.6102 24.9345 22.5387 24.8904 22.4945L24.2887 21.8915C24.2079 21.8104 24.07 21.843 24.0338 21.9516Z" fill="black"/>
<path d="M26.6076 11.838C26.6024 11.8328 26.5978 11.8272 26.5938 11.8211C26.4263 11.5693 26.2578 11.3185 26.0086 11.1487C26.0026 11.1446 25.9969 11.14 25.9918 11.1349C25.9487 11.0917 25.8788 11.0917 25.8357 11.1349L25.1419 11.8302C25.0945 11.8777 25.0945 11.9546 25.1419 12.0021C25.3962 12.2569 25.5666 12.4278 25.7362 12.6806C25.7402 12.6867 25.7448 12.6923 25.7499 12.6975C25.793 12.7406 25.863 12.7406 25.906 12.6975L26.6076 11.9944C26.6507 11.9511 26.6507 11.8812 26.6076 11.838Z" fill="black"/>
<path d="M24.4476 24.9883C24.4059 24.9382 24.3302 24.9348 24.2842 24.9809C22.6547 26.2702 20.768 27.0438 18.624 27.0438C13.9929 27.0438 10.1337 23.4337 9.79067 18.7923C9.79067 18.6499 9.67522 18.5344 9.53281 18.5344H9.01959C8.82971 18.5344 8.67578 18.6884 8.67578 18.8782C8.8473 21.4568 9.96219 23.8635 11.8489 25.5826C13.7356 27.3016 16.1369 28.3331 18.7097 28.3331C21.0253 28.3331 23.3408 27.4735 25.1418 26.0123C25.1904 25.9636 25.1939 25.8859 25.1499 25.833L24.4476 24.9883Z" fill="black"/>
<path d="M25.906 23.5982C25.863 23.5551 25.793 23.5551 25.7499 23.5982C25.7448 23.6034 25.7402 23.6091 25.7362 23.6151C25.5666 23.8679 25.3962 24.0388 25.1419 24.2936C25.0945 24.3411 25.0945 24.418 25.1419 24.4655L25.828 25.1531C25.8753 25.2006 25.9522 25.2006 25.9995 25.1531C26.2568 24.8953 26.4283 24.6374 26.5998 24.4655C26.6472 24.418 26.6472 24.3411 26.5998 24.2936L25.906 23.5982Z" fill="black"/>
<path d="M27.2858 25.2389C25.2275 27.8174 22.1401 29.2786 18.7955 29.2786C12.7065 29.2786 7.73238 24.2934 7.73238 18.1907C7.73238 12.088 12.6207 7.01682 18.7955 7.01682C22.1401 7.01682 25.2275 8.47802 27.2858 11.0566C27.3331 11.1041 27.4099 11.104 27.4573 11.0566L28.1785 10.3338C28.1972 10.315 28.1839 10.283 28.1575 10.283C28.1485 10.283 28.1401 10.279 28.1344 10.2721C25.819 7.44238 22.3928 5.81348 18.7955 5.81348C12.0204 5.81348 6.53174 11.3145 6.53174 18.1048C6.53174 24.895 12.0204 30.396 18.7955 30.396C22.3974 30.396 25.8278 28.7629 28.2291 26.0124C28.2765 25.9649 28.2765 25.888 28.2291 25.8405L27.6288 25.2389C27.5341 25.144 27.3804 25.144 27.2858 25.2389Z" fill="black"/>
</svg>
