<svg width="106" height="36" viewBox="0 0 106 36" fill="none" xmlns="http://www.w3.org/2000/svg">
<path d="M6.83467 35.5756C6.5652 35.5756 6.29573 35.5756 6.02626 35.5756C5.48731 35.5756 4.85855 35.4842 4.31961 35.3929C3.78066 35.3016 3.33155 35.1189 2.7926 34.9363C2.34348 34.6624 1.89436 34.3884 1.53506 34.0231C1.17577 33.6578 0.816472 33.2011 0.636824 32.7446C0.367352 32.2879 0.277529 31.7399 0.187704 31.1921C0.0978805 30.6441 0.00805664 30.0961 0.00805664 29.5483C0.00805664 29.3656 0.00805664 28.7263 0.00805664 28.7263V7.63053C0.00805664 7.63053 0.00805664 6.99127 0.00805664 6.80862C0.00805664 6.16936 0.0978805 5.62142 0.187704 5.07348C0.277529 4.52553 0.457176 4.06892 0.636824 3.52098C0.906295 3.06435 1.17577 2.60774 1.53506 2.24244C1.89436 1.87715 2.34348 1.51185 2.7926 1.32921C3.24171 1.05524 3.78066 0.963912 4.31961 0.872589C4.85855 0.781265 5.39749 0.689941 6.02626 0.689941H6.83467H99.1735H99.9819C100.521 0.689941 101.06 0.781265 101.689 0.872589C102.228 0.963912 102.677 1.14656 103.215 1.32921C104.114 1.78583 104.922 2.60774 105.371 3.52098C105.641 3.97759 105.731 4.52553 105.821 4.98216C105.91 5.53009 106 6.16936 106 6.7173C106 6.99127 106 7.26524 106 7.53921C106 7.90451 106 8.17848 106 8.54377V27.6304C106 27.9957 106 28.2696 106 28.635C106 28.909 106 29.1829 106 29.4569C106 30.0048 105.91 30.5528 105.821 31.1921C105.731 31.7399 105.551 32.1966 105.371 32.7446C105.102 33.2011 104.833 33.6578 104.473 34.0231C104.114 34.3884 103.665 34.7537 103.215 34.9363C102.766 35.2102 102.228 35.3929 101.689 35.3929C101.15 35.4842 100.61 35.5756 99.9819 35.5756C99.7127 35.5756 99.4436 35.5756 99.1735 35.5756H98.1854H6.83467Z" fill="#F5F5F5"/>
<path d="M21.4762 18.4068C21.4762 16.8543 22.2847 15.3932 23.632 14.5712C22.8236 13.384 21.4762 12.6534 20.0391 12.5622C18.512 12.3795 17.0749 13.4754 16.2664 13.4754C15.4581 13.4754 14.2903 12.5622 13.0328 12.5622C11.3261 12.6534 9.79919 13.5667 8.99073 15.0278C7.28408 18.0415 8.54161 22.6077 10.2483 25.0734C11.0567 26.2607 12.0447 27.6305 13.3022 27.6305C14.5598 27.5392 15.0089 26.8086 16.5359 26.8086C18.063 26.8086 18.4223 27.6305 19.7696 27.6305C21.117 27.6305 21.9254 26.4433 22.7338 25.1647C23.3626 24.3429 23.8116 23.3383 24.0812 22.3337C22.4643 21.7858 21.4762 20.142 21.4762 18.4068Z" fill="black"/>
<path d="M19.0512 11.0096C19.7698 10.0963 20.1291 9.00045 20.0393 7.81323C18.8716 7.99588 17.8836 8.54382 17.1649 9.36573C16.4463 10.1877 16.087 11.2835 16.1769 12.4708C17.2548 12.4708 18.3327 11.9228 19.0512 11.0096Z" fill="black"/>
<path d="M39.9318 19.1578H35.7806L34.809 22.0648H33.0425L36.9288 11.3774H38.7837L42.7583 21.9793H40.9917L39.9318 19.1578ZM36.2222 17.7898H39.5785L37.9887 13.1729H37.8121L36.2222 17.7898Z" fill="black"/>
<path d="M50.5306 18.355C50.5306 20.8281 49.3304 22.4179 47.4901 22.4179C46.53 22.5062 45.6498 21.888 45.2497 21.0047V24.9794H43.7295V14.3803H45.1697V15.7052C45.6498 14.822 46.53 14.292 47.4901 14.292C49.3304 14.292 50.5306 15.8818 50.5306 18.355ZM49.0104 18.355C49.0104 16.7651 48.2902 15.7052 47.09 15.7052C45.9698 15.7052 45.1697 16.7651 45.1697 18.355C45.1697 19.9448 45.9698 21.0047 47.09 21.0047C48.2102 21.0047 49.0104 19.9448 49.0104 18.355Z" fill="black"/>
<path d="M59.2746 18.355C59.2746 20.8281 57.9029 22.4179 55.7997 22.4179C54.7024 22.5062 53.6965 21.888 53.2394 21.0047V24.9794H51.502V14.3803H53.1479V15.7052C53.6965 14.822 54.7024 14.292 55.7997 14.292C57.8114 14.292 59.2746 15.8818 59.2746 18.355ZM57.4457 18.355C57.4457 16.7651 56.6228 15.7052 55.2511 15.7052C53.9709 15.7052 53.0565 16.7651 53.0565 18.355C53.0565 19.9448 53.9709 21.0047 55.2511 21.0047C56.6228 21.0047 57.4457 19.9448 57.4457 18.355Z" fill="black"/>
<path d="M64.5523 18.9754C64.6341 19.9774 65.6159 20.6453 67.0068 20.6453C68.3158 20.6453 69.2159 19.9774 69.2159 19.0589C69.2159 18.224 68.6431 17.8065 67.334 17.4725L66.025 17.1386C64.1432 16.6376 63.325 15.8026 63.325 14.3832C63.325 12.6298 64.8796 11.3774 67.0068 11.3774C69.134 11.3774 70.6068 12.6298 70.6885 14.3832H69.134C69.0522 13.3813 68.2341 12.7133 67.0068 12.7133C65.7796 12.7133 64.9613 13.3813 64.9613 14.2997C64.9613 15.0512 65.5341 15.4687 66.8431 15.8026L67.9886 16.0531C70.034 16.5541 70.934 17.389 70.934 18.892C70.934 20.8123 69.3795 22.0648 67.0068 22.0648C64.7159 22.0648 63.2432 20.8958 63.1614 18.9754H64.5523Z" fill="black"/>
<path d="M74.4152 12.3488V14.1543H75.7916V15.4441H74.4152V19.7431C74.4152 20.431 74.6581 20.6888 75.3058 20.6888C75.4677 20.6888 75.6297 20.6888 75.7916 20.6888V21.9786C75.5487 22.0646 75.2249 22.0646 74.9819 22.0646C73.5246 22.0646 72.9578 21.4627 72.9578 20.001V15.4441H71.9053V14.1543H72.9578V12.3488H74.4152Z" fill="black"/>
<path d="M76.7632 18.1784C76.7632 15.8127 78.1075 14.292 80.1637 14.292C82.2198 14.292 83.5643 15.8127 83.5643 18.1784C83.5643 20.6284 82.2198 22.0646 80.1637 22.0646C78.1075 22.0646 76.7632 20.6284 76.7632 18.1784ZM82.0617 18.1784C82.0617 16.4886 81.3499 15.5593 80.1637 15.5593C78.9775 15.5593 78.2657 16.5731 78.2657 18.1784C78.2657 19.8681 78.9775 20.7974 80.1637 20.7974C81.3499 20.7974 82.0617 19.8681 82.0617 18.1784Z" fill="black"/>
<path d="M84.5359 14.3844H86.0566V15.6504C86.2256 14.8064 87.0704 14.2156 87.9153 14.3C88.0843 14.3 88.2532 14.3 88.4222 14.3844V15.8192C88.1688 15.7348 87.9153 15.7348 87.7463 15.7348C86.9015 15.7348 86.1412 16.41 86.1412 17.254C86.1412 17.3384 86.1412 17.4227 86.1412 17.5071V22.0646H84.5359V14.3844Z" fill="black"/>
<path d="M96.1133 19.7245C95.9494 21.0618 94.5562 22.0646 92.9174 22.0646C90.7868 22.0646 89.3938 20.5603 89.3938 18.2202C89.3938 15.88 90.7049 14.292 92.8354 14.292C94.884 14.292 96.1949 15.7128 96.1949 18.053V18.5545H90.9507V18.638C90.8688 19.7245 91.6062 20.6438 92.6715 20.811C92.7535 20.811 92.8354 20.811 92.9174 20.811C93.6548 20.8946 94.3923 20.4767 94.6381 19.7245H96.1133ZM90.9507 17.4679H94.6381C94.7201 16.465 93.9007 15.6292 92.9174 15.5456C92.8354 15.5456 92.8354 15.5456 92.7535 15.5456C91.8521 15.5456 90.9507 16.3814 90.9507 17.4679C90.9507 17.3843 90.9507 17.4679 90.9507 17.4679Z" fill="black"/>
</svg>
