<svg width="35" height="35" viewBox="0 0 35 35" fill="none" xmlns="http://www.w3.org/2000/svg">
<rect width="34.8856" height="34.8856" rx="7" fill="#FCD846"/>
<path d="M24.459 10.1374C24.4508 10.1333 24.443 10.1282 24.4359 10.1224C22.6098 8.62902 20.4532 7.88232 18.2137 7.88232C15.7206 7.88232 13.3105 8.79854 11.5653 10.5477C9.73694 12.2968 8.65657 14.5457 8.49036 17.0445C8.49036 17.1825 8.60223 17.2944 8.74023 17.2944H9.40396C9.54196 17.2944 9.65384 17.1825 9.65384 17.0445C9.98626 12.5467 13.726 9.04842 18.2137 9.04842C20.2083 9.04842 22.1197 9.71476 23.6987 10.9641C23.7446 11.0101 23.819 11.0101 23.8649 10.9641L24.4913 10.3363C24.5512 10.2763 24.5348 10.1754 24.459 10.1374Z" fill="black"/>
<path d="M23.2901 21.272C23.2856 21.2856 23.2791 21.2986 23.2708 21.3103C22.1062 22.9649 20.201 23.8746 18.1308 23.8746C14.6403 23.8746 11.8147 21.0427 11.8147 17.5444C11.8147 14.1294 14.6403 11.2975 18.1308 11.2975C20.1253 11.2975 22.0367 12.297 23.2833 13.8795C23.3292 13.9255 23.4037 13.9255 23.4495 13.8795L24.1144 13.2132C24.1603 13.1672 24.1603 13.0926 24.1144 13.0466C22.7016 11.2142 20.4577 10.0481 18.1308 10.0481C14.0586 10.0481 10.6512 13.3798 10.6512 17.4611C10.6512 21.5424 13.9755 24.9574 18.1308 24.9574C20.455 24.9574 22.6964 23.8771 24.1095 21.9655C24.1127 21.9611 24.1163 21.957 24.1201 21.9531C24.1629 21.9103 24.1629 21.8409 24.1201 21.7981L23.5371 21.2138C23.4588 21.1352 23.3252 21.1667 23.2901 21.272Z" fill="black"/>
<path d="M25.7839 11.4715C25.7789 11.4665 25.7745 11.461 25.7705 11.4551C25.6082 11.2112 25.445 10.9681 25.2035 10.8036C25.1976 10.7996 25.1922 10.7951 25.1872 10.7902C25.1455 10.7483 25.0777 10.7483 25.0359 10.7902L24.3636 11.464C24.3177 11.51 24.3177 11.5845 24.3636 11.6306C24.61 11.8775 24.7752 12.0431 24.9395 12.2881C24.9434 12.2939 24.9479 12.2994 24.9528 12.3044C24.9946 12.3462 25.0624 12.3462 25.1041 12.3044L25.7839 11.6231C25.8257 11.5812 25.8257 11.5134 25.7839 11.4715Z" fill="black"/>
<path d="M23.6909 24.2148C23.6505 24.1662 23.5772 24.1629 23.5326 24.2076C21.9536 25.457 20.1253 26.2066 18.0476 26.2066C13.5599 26.2066 9.82015 22.7084 9.48772 18.2106C9.48772 18.0726 9.37585 17.9607 9.23784 17.9607H8.74052C8.55651 17.9607 8.40735 18.1099 8.40735 18.2939C8.57356 20.7926 9.65393 23.1248 11.4823 24.7907C13.3106 26.4565 15.6375 27.456 18.1307 27.456C20.3746 27.456 22.6184 26.6231 24.3636 25.2071C24.4107 25.1599 24.4142 25.0846 24.3715 25.0334L23.6909 24.2148Z" fill="black"/>
<path d="M25.1041 22.8676C25.0624 22.8257 24.9946 22.8257 24.9528 22.8676C24.9479 22.8725 24.9434 22.878 24.9395 22.8839C24.7752 23.1289 24.61 23.2945 24.3636 23.5414C24.3177 23.5874 24.3177 23.6619 24.3636 23.708L25.0285 24.3743C25.0743 24.4203 25.1488 24.4203 25.1947 24.3743C25.444 24.1244 25.6102 23.8746 25.7764 23.708C25.8223 23.6619 25.8223 23.5874 25.7764 23.5414L25.1041 22.8676Z" fill="black"/>
<path d="M26.4412 24.4576C24.4466 26.9564 21.4548 28.3723 18.2137 28.3723C12.3132 28.3723 7.49307 23.5414 7.49307 17.6276C7.49307 11.7139 12.2301 6.79964 18.2137 6.79964C21.4548 6.79964 24.4466 8.21561 26.4412 10.7144C26.487 10.7603 26.5615 10.7603 26.6074 10.7144L27.3063 10.0139C27.3244 9.99574 27.3115 9.96474 27.2859 9.96474C27.2772 9.96474 27.269 9.96083 27.2635 9.95414C25.0198 7.21203 21.6996 5.63354 18.2137 5.63354C11.6484 5.63354 6.32959 10.9643 6.32959 17.5443C6.32959 24.1244 11.6484 29.4551 18.2137 29.4551C21.7041 29.4551 25.0284 27.8726 27.3553 25.2072C27.4013 25.1612 27.4013 25.0867 27.3553 25.0406L26.7736 24.4576C26.6818 24.3657 26.5329 24.3657 26.4412 24.4576Z" fill="black"/>
</svg>
