<svg width="13" height="13" viewBox="0 0 13 13" fill="none" xmlns="http://www.w3.org/2000/svg">
<path d="M11.8391 11.6072C12.1314 11.6072 12.3846 11.5107 12.5998 11.3202L8.9167 7.63698C8.82834 7.70025 8.74268 7.76179 8.66178 7.8203C8.38615 8.02337 8.16245 8.18183 7.99067 8.29539C7.81892 8.4092 7.5904 8.5252 7.30514 8.64364C7.0197 8.76221 6.75377 8.82131 6.50708 8.82131H6.49986H6.49263C6.24592 8.82131 5.97999 8.76224 5.69457 8.64364C5.40915 8.5252 5.18063 8.4092 5.00904 8.29539C4.83729 8.18183 4.61371 8.02339 4.33794 7.8203C4.26109 7.76396 4.17586 7.70214 4.08372 7.63599L0.399902 11.3202C0.615131 11.5107 0.868501 11.6072 1.1607 11.6072H11.8391Z" fill="#262A3C"/>
<path d="M0.732779 5.31762C0.457176 5.13388 0.212774 4.92344 0 4.6864V10.2902L3.24628 7.04389C2.59684 6.59049 1.76007 6.01573 0.732779 5.31762Z" fill="#262A3C"/>
<path d="M12.2747 5.31762C11.2866 5.98641 10.4467 6.56217 9.75513 7.04519L13.0001 10.2903V4.6864C12.7921 4.91867 12.5503 5.12897 12.2747 5.31762Z" fill="#262A3C"/>
<path d="M11.8393 1.39282H1.16088C0.788347 1.39282 0.501934 1.51862 0.301291 1.76996C0.100483 2.02142 0.000244141 2.3359 0.000244141 2.71304C0.000244141 3.01767 0.133266 3.34775 0.399193 3.70336C0.665119 4.05884 0.948087 4.33805 1.24795 4.54115C1.41234 4.65729 1.90808 5.00193 2.73518 5.57495C3.18166 5.88435 3.56994 6.15403 3.90361 6.38675C4.18801 6.58491 4.43329 6.75652 4.6358 6.89894C4.65904 6.91525 4.6956 6.9414 4.74413 6.9761C4.79641 7.01365 4.86257 7.0613 4.94418 7.12023C5.10135 7.2339 5.23192 7.32579 5.33591 7.39598C5.43976 7.4662 5.56558 7.54463 5.71319 7.63172C5.86068 7.71869 5.99979 7.78409 6.13036 7.82759C6.26095 7.87107 6.38184 7.89288 6.49306 7.89288H6.50028H6.5075C6.61869 7.89288 6.73961 7.87107 6.87022 7.82759C7.00076 7.78409 7.13976 7.71883 7.28737 7.63172C7.43483 7.54463 7.56049 7.46603 7.66467 7.39598C7.76866 7.32579 7.89923 7.23393 8.05642 7.12023C8.13787 7.0613 8.20403 7.01362 8.25631 6.97621C8.30486 6.94138 8.3414 6.91539 8.36479 6.89894C8.52254 6.78917 8.76838 6.61826 9.09891 6.38875C9.70034 5.97088 10.5861 5.35583 11.7599 4.54115C12.1129 4.29458 12.4078 3.99702 12.6449 3.64891C12.8815 3.3008 13.0001 2.93565 13.0001 2.55358C13.0001 2.23436 12.8851 1.96121 12.6556 1.73371C12.4258 1.50649 12.1537 1.39282 11.8393 1.39282Z" fill="#262A3C"/>
</svg>
