<svg width="118" height="36" viewBox="0 0 118 36" fill="none" xmlns="http://www.w3.org/2000/svg">
<path d="M112.825 35.5756H5.15281C2.74097 35.5756 0.845947 33.6568 0.845947 31.2149V5.05064C0.845947 2.60865 2.74097 0.689941 5.15281 0.689941H112.825C115.236 0.689941 117.131 2.60865 117.131 5.05064V31.2149C117.131 33.6568 115.236 35.5756 112.825 35.5756Z" fill="#F5F5F5"/>
<path d="M58.6589 15.1227C56.7071 15.1227 55.1619 16.5677 55.1619 18.5746C55.1619 20.5012 56.7071 22.0264 58.6589 22.0264C60.6108 22.0264 62.156 20.5815 62.156 18.5746C62.156 16.4874 60.6108 15.1227 58.6589 15.1227ZM58.6589 20.5815C57.6017 20.5815 56.7071 19.6984 56.7071 18.4943C56.7071 17.2901 57.6017 16.4071 58.6589 16.4071C59.7162 16.4071 60.6108 17.2099 60.6108 18.4943C60.6108 19.6984 59.7162 20.5815 58.6589 20.5815ZM51.0956 15.1227C49.1437 15.1227 47.5985 16.5677 47.5985 18.5746C47.5985 20.5012 49.1437 22.0264 51.0956 22.0264C53.0474 22.0264 54.5926 20.5815 54.5926 18.5746C54.5926 16.4874 53.0474 15.1227 51.0956 15.1227ZM51.0956 20.5815C50.0383 20.5815 49.1437 19.6984 49.1437 18.4943C49.1437 17.2901 50.0383 16.4071 51.0956 16.4071C52.1528 16.4071 53.0474 17.2099 53.0474 18.4943C53.0474 19.6984 52.1528 20.5815 51.0956 20.5815ZM42.0683 16.1663V17.6113H45.5653C45.484 18.414 45.1587 19.0562 44.752 19.4576C44.2641 19.9393 43.4508 20.5012 42.0683 20.5012C39.8725 20.5012 38.2459 18.8154 38.2459 16.6479C38.2459 14.4805 39.9538 12.7947 42.0683 12.7947C43.2068 12.7947 44.1014 13.2764 44.752 13.8383L45.8093 12.7947C44.9147 11.9919 43.7762 11.3497 42.1496 11.3497C39.2219 11.3497 36.7007 13.758 36.7007 16.6479C36.7007 19.5379 39.2219 21.9461 42.1496 21.9461C43.7762 21.9461 44.9147 21.4645 45.8907 20.4209C46.8665 19.4576 47.1919 18.0929 47.1919 17.0493C47.1919 16.7282 47.1919 16.4071 47.1105 16.1663H42.0683ZM78.9906 17.2901C78.6653 16.4874 77.852 15.1227 76.0628 15.1227C74.2737 15.1227 72.8098 16.4874 72.8098 18.5746C72.8098 20.5012 74.2737 22.0264 76.2255 22.0264C77.7707 22.0264 78.7467 21.0631 79.0719 20.5012L77.9334 19.6984C77.5268 20.2604 77.0388 20.6617 76.2255 20.6617C75.4122 20.6617 74.9243 20.3406 74.5177 19.6181L79.1533 17.6915L78.9906 17.2901ZM74.2737 18.414C74.2737 17.1296 75.331 16.4071 76.0628 16.4071C76.6322 16.4071 77.2014 16.7282 77.3641 17.1296L74.2737 18.414ZM70.4513 21.7053H71.9965V11.6708H70.4513V21.7053ZM68.0115 15.8452C67.6049 15.4438 66.9543 15.0424 66.141 15.0424C64.4331 15.0424 62.8066 16.5677 62.8066 18.4943C62.8066 20.4209 64.3519 21.8659 66.141 21.8659C66.9543 21.8659 67.6049 21.4645 67.9302 21.0631H68.0115V21.5448C68.0115 22.8292 67.2796 23.5517 66.141 23.5517C65.2464 23.5517 64.5958 22.9095 64.4331 22.3475L63.1319 22.9095C63.5386 23.7925 64.5144 24.9164 66.2223 24.9164C68.0116 24.9164 69.4753 23.8728 69.4753 21.3842V15.2832H68.0115V15.8452ZM66.2223 20.5815C65.165 20.5815 64.2705 19.6984 64.2705 18.4943C64.2705 17.2901 65.165 16.4071 66.2223 16.4071C67.2796 16.4071 68.0928 17.2901 68.0928 18.4943C68.0928 19.6984 67.2796 20.5815 66.2223 20.5815ZM86.0661 11.6708H82.4064V21.7053H83.9516V17.9324H86.0661C87.774 17.9324 89.4004 16.7282 89.4004 14.8016C89.4004 12.875 87.774 11.6708 86.0661 11.6708ZM86.1474 16.4874H83.9516V13.0355H86.1474C87.2859 13.0355 87.9365 13.9988 87.9365 14.7213C87.8552 15.6044 87.2046 16.4874 86.1474 16.4874ZM95.5 15.0424C94.3613 15.0424 93.2228 15.5241 92.8162 16.5677L94.1988 17.1296C94.524 16.5677 95.0123 16.4071 95.5814 16.4071C96.3948 16.4071 97.1267 16.8888 97.2081 17.6915V17.7718C96.9638 17.6113 96.3133 17.3704 95.6628 17.3704C94.1988 17.3704 92.7349 18.1732 92.7349 19.6181C92.7349 20.9828 93.9547 21.8659 95.2557 21.8659C96.3133 21.8659 96.801 21.3842 97.2081 20.9026H97.2896V21.7053H98.7534V17.8521C98.5906 16.086 97.2081 15.0424 95.5 15.0424ZM95.3371 20.5815C94.8494 20.5815 94.1174 20.3406 94.1174 19.6984C94.1174 18.8957 95.0123 18.6548 95.7443 18.6548C96.3948 18.6548 96.7196 18.8154 97.1267 18.9759C96.9639 19.9393 96.1505 20.5815 95.3371 20.5815ZM103.877 15.2832L102.169 19.6181H102.087L100.298 15.2832H98.672L101.355 21.3842L99.8102 24.7558H101.355L105.503 15.2832H103.877ZM90.2137 21.7053H91.7589V11.6708H90.2137V21.7053Z" fill="black"/>
<path d="M9.80414 7.23096C9.54572 7.4926 9.45959 7.92867 9.45959 8.45195V27.7263C9.45959 28.2495 9.63186 28.6856 9.89028 28.9472L9.97642 29.0345L20.6575 18.2199V18.1327V18.0455L9.80414 7.23096Z" fill="url(#paint0_linear)"/>
<path d="M24.1031 21.8833L20.5715 18.3075V18.1331V18.0459L24.1031 14.4701L24.1893 14.5573L28.41 16.9993C29.6159 17.697 29.6159 18.8308 28.41 19.5285L24.1031 21.8833Z" fill="url(#paint1_linear)"/>
<path d="M24.1892 21.7958L20.5713 18.1328L9.8042 29.0346C10.2349 29.4706 10.8379 29.4706 11.6131 29.1218L24.1892 21.7958Z" fill="url(#paint2_linear)"/>
<path d="M24.1892 14.4696L11.6131 7.23079C10.8379 6.79472 10.2349 6.88193 9.8042 7.318L20.5713 18.1326L24.1892 14.4696Z" fill="url(#paint3_linear)"/>
<path opacity="0.2" d="M24.103 21.7085L11.6131 28.86C10.924 29.2961 10.321 29.2089 9.89034 28.86L9.8042 28.9473L9.89034 29.0345C10.321 29.3833 10.924 29.4705 11.6131 29.0345L24.103 21.7085Z" fill="black"/>
<path opacity="0.12" d="M9.80414 28.8602C9.54572 28.5985 9.45959 28.1624 9.45959 27.6392V27.7264C9.45959 28.2497 9.63186 28.6857 9.89028 28.9474V28.8602H9.80414Z" fill="black"/>
<path opacity="0.12" d="M28.4099 19.2666L24.103 21.7086L24.1892 21.7958L28.4099 19.3538C29.0129 19.005 29.2712 18.5689 29.2712 18.1328C29.2712 18.5689 28.9267 18.9177 28.4099 19.2666Z" fill="black"/>
<path opacity="0.25" d="M11.613 7.31838L28.4098 16.9991C28.9266 17.348 29.2712 17.6968 29.2712 18.1329C29.2712 17.6968 29.0128 17.2608 28.4098 16.9119L11.613 7.23116C10.4071 6.53345 9.45959 7.05673 9.45959 8.45216V8.53937C9.45959 7.23116 10.4071 6.62066 11.613 7.31838Z" fill="white"/>
<defs>
<linearGradient id="paint0_linear" x1="19.6234" y1="8.28607" x2="4.98797" y2="22.7409" gradientUnits="userSpaceOnUse">
<stop stop-color="#00A0FF"/>
<stop offset="0.00657445" stop-color="#00A1FF"/>
<stop offset="0.2601" stop-color="#00BEFF"/>
<stop offset="0.5122" stop-color="#00D2FF"/>
<stop offset="0.7604" stop-color="#00DFFF"/>
<stop offset="1" stop-color="#00E3FF"/>
</linearGradient>
<linearGradient id="paint1_linear" x1="29.9901" y1="18.1343" x2="9.14748" y2="18.1343" gradientUnits="userSpaceOnUse">
<stop stop-color="#FFE000"/>
<stop offset="0.4087" stop-color="#FFBD00"/>
<stop offset="0.7754" stop-color="#FFA500"/>
<stop offset="1" stop-color="#FF9C00"/>
</linearGradient>
<linearGradient id="paint2_linear" x1="22.2311" y1="20.1354" x2="2.38425" y2="39.7373" gradientUnits="userSpaceOnUse">
<stop stop-color="#FF3A44"/>
<stop offset="1" stop-color="#C31162"/>
</linearGradient>
<linearGradient id="paint3_linear" x1="7.13153" y1="0.843489" x2="15.9941" y2="9.59651" gradientUnits="userSpaceOnUse">
<stop stop-color="#32A071"/>
<stop offset="0.0685" stop-color="#2DA771"/>
<stop offset="0.4762" stop-color="#15CF74"/>
<stop offset="0.8009" stop-color="#06E775"/>
<stop offset="1" stop-color="#00F076"/>
</linearGradient>
</defs>
</svg>
