<svg width="395" height="106" viewBox="0 0 395 106" fill="none" xmlns="http://www.w3.org/2000/svg">
<path d="M10.335 89.0905C10.335 80.5095 10.335 74.7048 10.335 71.9286L10.335 69.6572L10.335 34.0715C10.335 15.1429 25.7116 3.22842e-05 44.8692 3.06094e-05L360.214 3.04111e-06C379.371 1.36629e-06 395 15.1429 395 34.0714L395 71.6762C395 90.6048 379.371 105.748 360.214 105.748L44.8692 105.748C37.0549 105.748 29.9968 103.224 24.1991 98.9334C24.1991 98.9334 12.3516 107.262 9.24475e-06 105.748C9.24475e-06 105.748 10.335 101.71 10.335 89.0905Z" fill="#2992FA"/>
<path d="M45.002 43V36.9355L50.002 28.9082H48L44.1523 35.2363H44.0938L40.2461 28.9082H38.2441L43.2441 36.9355V43H45.002ZM53.7031 43.1758C56.5059 43.1758 58.4004 41.1543 58.4004 37.9219C58.4004 34.6797 56.5059 32.668 53.7031 32.668C50.8906 32.668 48.9961 34.6797 48.9961 37.9219C48.9961 41.1543 50.8906 43.1758 53.7031 43.1758ZM53.7031 41.6816C51.9062 41.6816 50.7246 40.3145 50.7246 37.9219C50.7246 35.5293 51.9062 34.1621 53.7031 34.1621C55.5 34.1621 56.6719 35.5293 56.6719 37.9219C56.6719 40.3145 55.5 41.6816 53.7031 41.6816ZM68.459 32.8438H66.7598V38.8105C66.7598 40.5391 65.7637 41.6719 64.1133 41.6719C62.541 41.6719 61.7695 40.7832 61.7695 39.1328V32.8438H60.0703V39.4355C60.0703 41.7402 61.3691 43.1758 63.5859 43.1758C65.1484 43.1758 66.2031 42.5215 66.8086 41.3496H66.8477V43H68.459V32.8438ZM74.7676 43H76.4668V36.6719C76.4668 35.2363 77.3262 34.2891 78.6445 34.2891C79.0547 34.2891 79.416 34.3379 79.5527 34.3867V32.7363C79.416 32.7168 79.1621 32.668 78.8691 32.668C77.6777 32.668 76.7402 33.3809 76.4082 34.5039H76.3691V32.8438H74.7676V43ZM84.5234 34.1426C86.125 34.1426 87.1895 35.3535 87.2285 37.0527H81.7109C81.8184 35.3633 82.9316 34.1426 84.5234 34.1426ZM87.1895 40.0898C86.9062 41.0469 85.959 41.7012 84.6699 41.7012C82.8438 41.7012 81.7012 40.4219 81.7012 38.4785V38.3809H88.9863V37.7363C88.9863 34.6602 87.2969 32.668 84.5527 32.668C81.75 32.668 79.9531 34.8066 79.9531 37.9609C79.9531 41.1543 81.7207 43.1758 84.6309 43.1758C86.8477 43.1758 88.5664 41.8672 88.8594 40.0898H87.1895ZM99.1426 36.1738C98.9277 34.3477 97.4141 32.668 94.875 32.668C92.0723 32.668 90.207 34.7188 90.207 37.9219C90.207 41.1934 92.082 43.1758 94.8945 43.1758C97.1992 43.1758 98.8984 41.75 99.1621 39.7285H97.4922C97.1992 40.9492 96.291 41.6816 94.9043 41.6816C93.1465 41.6816 91.9355 40.2852 91.9355 37.9219C91.9355 35.6172 93.127 34.1621 94.8848 34.1621C96.3789 34.1621 97.2383 35.0703 97.4824 36.1738H99.1426ZM104.797 34.1426C106.398 34.1426 107.463 35.3535 107.502 37.0527H101.984C102.092 35.3633 103.205 34.1426 104.797 34.1426ZM107.463 40.0898C107.18 41.0469 106.232 41.7012 104.943 41.7012C103.117 41.7012 101.975 40.4219 101.975 38.4785V38.3809H109.26V37.7363C109.26 34.6602 107.57 32.668 104.826 32.668C102.023 32.668 100.227 34.8066 100.227 37.9609C100.227 41.1543 101.994 43.1758 104.904 43.1758C107.121 43.1758 108.84 41.8672 109.133 40.0898H107.463ZM111.066 43H112.766V32.8438H111.066V43ZM111.916 31.0371C112.512 31.0371 112.98 30.5586 112.98 29.9727C112.98 29.377 112.512 28.9082 111.916 28.9082C111.33 28.9082 110.852 29.377 110.852 29.9727C110.852 30.5586 111.33 31.0371 111.916 31.0371ZM123.391 32.8438H121.623L118.811 41.1934H118.771L115.969 32.8438H114.182L117.922 43H119.66L123.391 32.8438ZM128.508 34.1426C130.109 34.1426 131.174 35.3535 131.213 37.0527H125.695C125.803 35.3633 126.916 34.1426 128.508 34.1426ZM131.174 40.0898C130.891 41.0469 129.943 41.7012 128.654 41.7012C126.828 41.7012 125.686 40.4219 125.686 38.4785V38.3809H132.971V37.7363C132.971 34.6602 131.281 32.668 128.537 32.668C125.734 32.668 123.938 34.8066 123.938 37.9609C123.938 41.1543 125.705 43.1758 128.615 43.1758C130.832 43.1758 132.551 41.8672 132.844 40.0898H131.174ZM138.537 43.1758C140.002 43.1758 141.164 42.4531 141.818 41.2812H141.848V43H143.469V28.9082H141.77V34.4941H141.73C141.125 33.3809 139.953 32.668 138.498 32.668C135.939 32.668 134.191 34.7383 134.191 37.9219C134.191 41.1055 135.949 43.1758 138.537 43.1758ZM138.859 34.1621C140.607 34.1621 141.779 35.6562 141.779 37.9219C141.779 40.1973 140.607 41.6816 138.859 41.6816C137.062 41.6816 135.93 40.2266 135.93 37.9219C135.93 35.627 137.062 34.1621 138.859 34.1621ZM153.498 43H155.197V28.9082H153.479L149.729 31.6035V33.3711L153.459 30.7734H153.498V43ZM163.703 43.2344C166.984 43.2344 168.879 40.3926 168.879 35.9395C168.879 31.5156 166.975 28.6738 163.703 28.6738C160.432 28.6738 158.508 31.5352 158.508 35.9492C158.508 40.4023 160.412 43.2344 163.703 43.2344ZM163.703 41.7012C161.496 41.7012 160.275 39.4551 160.275 35.9395C160.275 32.502 161.525 30.2168 163.703 30.2168C165.881 30.2168 167.111 32.4824 167.111 35.9492C167.111 39.4648 165.9 41.7012 163.703 41.7012ZM175.832 43.2344C179.113 43.2344 181.008 40.3926 181.008 35.9395C181.008 31.5156 179.104 28.6738 175.832 28.6738C172.561 28.6738 170.637 31.5352 170.637 35.9492C170.637 40.4023 172.541 43.2344 175.832 43.2344ZM175.832 41.7012C173.625 41.7012 172.404 39.4551 172.404 35.9395C172.404 32.502 173.654 30.2168 175.832 30.2168C178.01 30.2168 179.24 32.4824 179.24 35.9492C179.24 39.4648 178.029 41.7012 175.832 41.7012ZM187.961 43.2344C191.242 43.2344 193.137 40.3926 193.137 35.9395C193.137 31.5156 191.232 28.6738 187.961 28.6738C184.689 28.6738 182.766 31.5352 182.766 35.9492C182.766 40.4023 184.67 43.2344 187.961 43.2344ZM187.961 41.7012C185.754 41.7012 184.533 39.4551 184.533 35.9395C184.533 32.502 185.783 30.2168 187.961 30.2168C190.139 30.2168 191.369 32.4824 191.369 35.9492C191.369 39.4648 190.158 41.7012 187.961 41.7012ZM201.242 28.9082H199.484V38.0586C199.484 41.0664 201.584 43.2344 205.08 43.2344C208.576 43.2344 210.676 41.0664 210.676 38.0586V28.9082H208.918V37.9414C208.918 40.0703 207.521 41.6133 205.08 41.6133C202.639 41.6133 201.242 40.0703 201.242 37.9414V28.9082ZM212.727 39.2207C212.893 41.6523 214.943 43.2344 218.02 43.2344C221.174 43.2344 223.225 41.6035 223.225 38.9961C223.225 37.0039 222.062 35.832 219.123 35.1875L217.561 34.8457C215.637 34.4258 214.885 33.6641 214.885 32.5508C214.885 31.1152 216.242 30.2559 218 30.2559C219.836 30.2559 221.057 31.2031 221.213 32.7461H222.971C222.893 30.3535 220.861 28.6738 218.049 28.6738C215.129 28.6738 213.078 30.3047 213.078 32.6289C213.078 34.6309 214.299 35.9102 217.121 36.5254L218.684 36.8672C220.637 37.2969 221.418 38.0781 221.418 39.2598C221.418 40.6465 220.031 41.6523 218.117 41.6523C216.096 41.6523 214.689 40.7344 214.484 39.2207H212.727ZM225.285 28.9082V43H230.021C234.211 43 236.672 40.3926 236.672 35.9492C236.672 31.5156 234.201 28.9082 230.021 28.9082H225.285ZM227.043 30.4902H229.904C233.107 30.4902 234.875 32.4434 234.875 35.9688C234.875 39.4648 233.098 41.418 229.904 41.418H227.043V30.4902ZM244.66 43.2344C247.775 43.2344 249.865 41.6816 250.51 38.8984H248.732C248.225 40.6172 246.74 41.6133 244.67 41.6133C241.887 41.6133 240.119 39.4062 240.119 35.9492C240.119 32.5215 241.906 30.2949 244.66 30.2949C246.672 30.2949 248.283 31.5059 248.732 33.3516H250.51C250.061 30.5391 247.727 28.6738 244.66 28.6738C240.803 28.6738 238.312 31.5254 238.312 35.9492C238.312 40.4121 240.773 43.2344 244.66 43.2344ZM256.516 43H258.215V32.8438H256.516V43ZM257.365 31.0371C257.961 31.0371 258.43 30.5586 258.43 29.9727C258.43 29.377 257.961 28.9082 257.365 28.9082C256.779 28.9082 256.301 29.377 256.301 29.9727C256.301 30.5586 256.779 31.0371 257.365 31.0371ZM260.51 43H262.209V37.0234C262.209 35.3047 263.254 34.1719 264.855 34.1719C266.418 34.1719 267.189 35.0703 267.189 36.7109V43H268.889V36.4082C268.889 34.1035 267.6 32.668 265.373 32.668C263.801 32.668 262.717 33.3711 262.15 34.4648H262.111V32.8438H260.51V43ZM281.223 43.2344C284.338 43.2344 286.428 41.6816 287.072 38.8984H285.295C284.787 40.6172 283.303 41.6133 281.232 41.6133C278.449 41.6133 276.682 39.4062 276.682 35.9492C276.682 32.5215 278.469 30.2949 281.223 30.2949C283.234 30.2949 284.846 31.5059 285.295 33.3516H287.072C286.623 30.5391 284.289 28.6738 281.223 28.6738C277.365 28.6738 274.875 31.5254 274.875 35.9492C274.875 40.4121 277.336 43.2344 281.223 43.2344ZM288.889 43H290.588V36.6719C290.588 35.2363 291.447 34.2891 292.766 34.2891C293.176 34.2891 293.537 34.3379 293.674 34.3867V32.7363C293.537 32.7168 293.283 32.668 292.99 32.668C291.799 32.668 290.861 33.3809 290.529 34.5039H290.49V32.8438H288.889V43ZM295.91 46.7988C297.746 46.7988 298.586 46.0859 299.455 43.7129L303.449 32.8438H301.662L298.85 41.3008H298.82L296.008 32.8438H294.191L297.941 43.0098L297.707 43.7227C297.316 44.9043 296.789 45.3633 295.842 45.3633C295.627 45.3633 295.363 45.3535 295.178 45.3145V46.7402C295.363 46.7793 295.705 46.7988 295.91 46.7988ZM309.719 32.668C308.244 32.668 307.062 33.4199 306.438 34.5625H306.398V32.8438H304.787V46.3887H306.486V41.3496H306.525C307.131 42.4629 308.303 43.1758 309.758 43.1758C312.316 43.1758 314.064 41.1055 314.064 37.9219C314.064 34.7383 312.307 32.668 309.719 32.668ZM309.387 41.6816C307.648 41.6816 306.477 40.1875 306.477 37.9219C306.477 35.666 307.648 34.1621 309.387 34.1621C311.193 34.1621 312.326 35.627 312.326 37.9219C312.326 40.2266 311.193 41.6816 309.387 41.6816ZM316.33 30.3926V32.8438H314.816V34.2402H316.33V40.3633C316.33 42.3164 317.053 43.0781 318.918 43.0781C319.318 43.0781 319.787 43.0488 319.992 43V41.5742C319.875 41.5938 319.484 41.623 319.289 41.623C318.42 41.623 318.029 41.2031 318.029 40.2754V34.2402H320.002V32.8438H318.029V30.3926H316.33ZM325.598 34.1426C327.199 34.1426 328.264 35.3535 328.303 37.0527H322.785C322.893 35.3633 324.006 34.1426 325.598 34.1426ZM328.264 40.0898C327.98 41.0469 327.033 41.7012 325.744 41.7012C323.918 41.7012 322.775 40.4219 322.775 38.4785V38.3809H330.061V37.7363C330.061 34.6602 328.371 32.668 325.627 32.668C322.824 32.668 321.027 34.8066 321.027 37.9609C321.027 41.1543 322.795 43.1758 325.705 43.1758C327.922 43.1758 329.641 41.8672 329.934 40.0898H328.264ZM331.779 43H333.479V36.6719C333.479 35.2363 334.338 34.2891 335.656 34.2891C336.066 34.2891 336.428 34.3379 336.564 34.3867V32.7363C336.428 32.7168 336.174 32.668 335.881 32.668C334.689 32.668 333.752 33.3809 333.42 34.5039H333.381V32.8438H331.779V43ZM338.039 43H339.738V32.8438H338.039V43ZM338.889 31.0371C339.484 31.0371 339.953 30.5586 339.953 29.9727C339.953 29.377 339.484 28.9082 338.889 28.9082C338.303 28.9082 337.824 29.377 337.824 29.9727C337.824 30.5586 338.303 31.0371 338.889 31.0371ZM350.373 32.8438H348.674V38.8105C348.674 40.5391 347.678 41.6719 346.027 41.6719C344.455 41.6719 343.684 40.7832 343.684 39.1328V32.8438H341.984V39.4355C341.984 41.7402 343.283 43.1758 345.5 43.1758C347.062 43.1758 348.117 42.5215 348.723 41.3496H348.762V43H350.373V32.8438ZM352.58 43H354.279V36.6328C354.279 35.2266 355.256 34.1719 356.604 34.1719C357.863 34.1719 358.684 34.9727 358.684 36.1934V43H360.383V36.5449C360.383 35.168 361.33 34.1719 362.678 34.1719C364.016 34.1719 364.787 34.9922 364.787 36.3789V43H366.486V35.9883C366.486 33.9766 365.188 32.668 363.176 32.668C361.75 32.668 360.559 33.3906 359.992 34.6016H359.953C359.514 33.3711 358.488 32.668 357.102 32.668C355.734 32.668 354.699 33.3906 354.221 34.4648H354.182V32.8438H352.58V43ZM48.5273 67H50.373L45.1777 52.9082H43.4395L38.2441 67H40.0898L41.5059 62.9668H47.1113L48.5273 67ZM44.2793 55.0469H44.3379L46.5938 61.4727H42.0234L44.2793 55.0469ZM56.6523 56.668C55.1777 56.668 53.9961 57.4199 53.3711 58.5625H53.332V56.8438H51.7207V70.3887H53.4199V65.3496H53.459C54.0645 66.4629 55.2363 67.1758 56.6914 67.1758C59.25 67.1758 60.998 65.1055 60.998 61.9219C60.998 58.7383 59.2402 56.668 56.6523 56.668ZM56.3203 65.6816C54.582 65.6816 53.4102 64.1875 53.4102 61.9219C53.4102 59.666 54.582 58.1621 56.3203 58.1621C58.127 58.1621 59.2598 59.627 59.2598 61.9219C59.2598 64.2266 58.127 65.6816 56.3203 65.6816ZM67.6484 56.668C66.1738 56.668 64.9922 57.4199 64.3672 58.5625H64.3281V56.8438H62.7168V70.3887H64.416V65.3496H64.4551C65.0605 66.4629 66.2324 67.1758 67.6875 67.1758C70.2461 67.1758 71.9941 65.1055 71.9941 61.9219C71.9941 58.7383 70.2363 56.668 67.6484 56.668ZM67.3164 65.6816C65.5781 65.6816 64.4062 64.1875 64.4062 61.9219C64.4062 59.666 65.5781 58.1621 67.3164 58.1621C69.123 58.1621 70.2559 59.627 70.2559 61.9219C70.2559 64.2266 69.123 65.6816 67.3164 65.6816ZM74.5625 67.0977C75.1875 67.0977 75.6758 66.6094 75.6758 65.9844C75.6758 65.3594 75.1875 64.8711 74.5625 64.8711C73.9375 64.8711 73.4492 65.3594 73.4492 65.9844C73.4492 66.6094 73.9375 67.0977 74.5625 67.0977ZM81.5938 52.9082V67H86.3301C90.5195 67 92.9805 64.3926 92.9805 59.9492C92.9805 55.5156 90.5098 52.9082 86.3301 52.9082H81.5938ZM83.3516 54.4902H86.2129C89.416 54.4902 91.1836 56.4434 91.1836 59.9688C91.1836 63.4648 89.4062 65.418 86.2129 65.418H83.3516V54.4902ZM99.1133 67.1758C101.916 67.1758 103.811 65.1543 103.811 61.9219C103.811 58.6797 101.916 56.668 99.1133 56.668C96.3008 56.668 94.4062 58.6797 94.4062 61.9219C94.4062 65.1543 96.3008 67.1758 99.1133 67.1758ZM99.1133 65.6816C97.3164 65.6816 96.1348 64.3145 96.1348 61.9219C96.1348 59.5293 97.3164 58.1621 99.1133 58.1621C100.91 58.1621 102.082 59.5293 102.082 61.9219C102.082 64.3145 100.91 65.6816 99.1133 65.6816ZM118.449 56.8438H116.77L114.738 65.1055H114.699L112.395 56.8438H110.754L108.459 65.1055H108.42L106.389 56.8438H104.699L107.541 67H109.27L111.555 59.1387H111.594L113.889 67H115.617L118.449 56.8438ZM119.846 67H121.545V61.0234C121.545 59.3047 122.59 58.1719 124.191 58.1719C125.754 58.1719 126.525 59.0703 126.525 60.7109V67H128.225V60.4082C128.225 58.1035 126.936 56.668 124.709 56.668C123.137 56.668 122.053 57.3711 121.486 58.4648H121.447V56.8438H119.846V67ZM130.48 67H132.18V52.9082H130.48V67ZM138.684 67.1758C141.486 67.1758 143.381 65.1543 143.381 61.9219C143.381 58.6797 141.486 56.668 138.684 56.668C135.871 56.668 133.977 58.6797 133.977 61.9219C133.977 65.1543 135.871 67.1758 138.684 67.1758ZM138.684 65.6816C136.887 65.6816 135.705 64.3145 135.705 61.9219C135.705 59.5293 136.887 58.1621 138.684 58.1621C140.48 58.1621 141.652 59.5293 141.652 61.9219C141.652 64.3145 140.48 65.6816 138.684 65.6816ZM148.449 65.7305C147.229 65.7305 146.418 65.0957 146.418 64.1289C146.418 63.1719 147.199 62.5664 148.566 62.4785L151.281 62.3125V63.1426C151.281 64.6074 150.051 65.7305 148.449 65.7305ZM148.068 67.1758C149.436 67.1758 150.725 66.4141 151.33 65.252H151.369V67H152.98V59.9785C152.98 57.957 151.477 56.668 149.094 56.668C146.691 56.668 145.188 58.0156 145.07 59.7734H146.711C146.926 58.7773 147.746 58.1621 149.055 58.1621C150.461 58.1621 151.281 58.9043 151.281 60.1445V60.9941L148.371 61.1602C146.027 61.2969 144.689 62.3906 144.689 64.1289C144.689 65.9551 146.047 67.1758 148.068 67.1758ZM158.986 67.1758C160.451 67.1758 161.613 66.4531 162.268 65.2812H162.297V67H163.918V52.9082H162.219V58.4941H162.18C161.574 57.3809 160.402 56.668 158.947 56.668C156.389 56.668 154.641 58.7383 154.641 61.9219C154.641 65.1055 156.398 67.1758 158.986 67.1758ZM159.309 58.1621C161.057 58.1621 162.229 59.6562 162.229 61.9219C162.229 64.1973 161.057 65.6816 159.309 65.6816C157.512 65.6816 156.379 64.2266 156.379 61.9219C156.379 59.627 157.512 58.1621 159.309 58.1621ZM170.861 54.3926V56.8438H169.348V58.2402H170.861V64.3633C170.861 66.3164 171.584 67.0781 173.449 67.0781C173.85 67.0781 174.318 67.0488 174.523 67V65.5742C174.406 65.5938 174.016 65.623 173.82 65.623C172.951 65.623 172.561 65.2031 172.561 64.2754V58.2402H174.533V56.8438H172.561V54.3926H170.861ZM176.438 67H178.137V61.082C178.137 59.3242 179.182 58.1719 180.871 58.1719C182.463 58.1719 183.273 59.1387 183.273 60.75V67H184.973V60.4375C184.973 58.1719 183.625 56.668 181.398 56.668C179.855 56.668 178.742 57.332 178.176 58.4648H178.137V52.9082H176.438V67ZM191.203 58.1426C192.805 58.1426 193.869 59.3535 193.908 61.0527H188.391C188.498 59.3633 189.611 58.1426 191.203 58.1426ZM193.869 64.0898C193.586 65.0469 192.639 65.7012 191.35 65.7012C189.523 65.7012 188.381 64.4219 188.381 62.4785V62.3809H195.666V61.7363C195.666 58.6602 193.977 56.668 191.232 56.668C188.43 56.668 186.633 58.8066 186.633 61.9609C186.633 65.1543 188.4 67.1758 191.311 67.1758C193.527 67.1758 195.246 65.8672 195.539 64.0898H193.869ZM210.91 67H212.756L207.561 52.9082H205.822L200.627 67H202.473L203.889 62.9668H209.494L210.91 67ZM206.662 55.0469H206.721L208.977 61.4727H204.406L206.662 55.0469ZM219.035 56.668C217.561 56.668 216.379 57.4199 215.754 58.5625H215.715V56.8438H214.104V70.3887H215.803V65.3496H215.842C216.447 66.4629 217.619 67.1758 219.074 67.1758C221.633 67.1758 223.381 65.1055 223.381 61.9219C223.381 58.7383 221.623 56.668 219.035 56.668ZM218.703 65.6816C216.965 65.6816 215.793 64.1875 215.793 61.9219C215.793 59.666 216.965 58.1621 218.703 58.1621C220.51 58.1621 221.643 59.627 221.643 61.9219C221.643 64.2266 220.51 65.6816 218.703 65.6816ZM230.031 56.668C228.557 56.668 227.375 57.4199 226.75 58.5625H226.711V56.8438H225.1V70.3887H226.799V65.3496H226.838C227.443 66.4629 228.615 67.1758 230.07 67.1758C232.629 67.1758 234.377 65.1055 234.377 61.9219C234.377 58.7383 232.619 56.668 230.031 56.668ZM229.699 65.6816C227.961 65.6816 226.789 64.1875 226.789 61.9219C226.789 59.666 227.961 58.1621 229.699 58.1621C231.506 58.1621 232.639 59.627 232.639 61.9219C232.639 64.2266 231.506 65.6816 229.699 65.6816ZM248.527 56.8438H246.76L243.947 65.1934H243.908L241.105 56.8438H239.318L243.059 67H244.797L248.527 56.8438ZM249.953 67H251.652V56.8438H249.953V67ZM250.803 55.0371C251.398 55.0371 251.867 54.5586 251.867 53.9727C251.867 53.377 251.398 52.9082 250.803 52.9082C250.217 52.9082 249.738 53.377 249.738 53.9727C249.738 54.5586 250.217 55.0371 250.803 55.0371ZM257.297 65.7305C256.076 65.7305 255.266 65.0957 255.266 64.1289C255.266 63.1719 256.047 62.5664 257.414 62.4785L260.129 62.3125V63.1426C260.129 64.6074 258.898 65.7305 257.297 65.7305ZM256.916 67.1758C258.283 67.1758 259.572 66.4141 260.178 65.252H260.217V67H261.828V59.9785C261.828 57.957 260.324 56.668 257.941 56.668C255.539 56.668 254.035 58.0156 253.918 59.7734H255.559C255.773 58.7773 256.594 58.1621 257.902 58.1621C259.309 58.1621 260.129 58.9043 260.129 60.1445V60.9941L257.219 61.1602C254.875 61.2969 253.537 62.3906 253.537 64.1289C253.537 65.9551 254.895 67.1758 256.916 67.1758ZM268.635 67H270.334V58.2402H272.404V56.8438H270.324V55.7207C270.324 54.7148 270.764 54.2266 271.682 54.2266C271.965 54.2266 272.248 54.2559 272.453 54.2852V52.9082C272.209 52.8691 271.799 52.8301 271.418 52.8301C269.543 52.8301 268.635 53.7578 268.635 55.7109V56.8438H267.219V58.2402H268.635V67ZM277.883 67.1758C280.686 67.1758 282.58 65.1543 282.58 61.9219C282.58 58.6797 280.686 56.668 277.883 56.668C275.07 56.668 273.176 58.6797 273.176 61.9219C273.176 65.1543 275.07 67.1758 277.883 67.1758ZM277.883 65.6816C276.086 65.6816 274.904 64.3145 274.904 61.9219C274.904 59.5293 276.086 58.1621 277.883 58.1621C279.68 58.1621 280.852 59.5293 280.852 61.9219C280.852 64.3145 279.68 65.6816 277.883 65.6816ZM284.387 67H286.086V52.9082H284.387V67ZM288.469 67H290.168V52.9082H288.469V67ZM296.672 67.1758C299.475 67.1758 301.369 65.1543 301.369 61.9219C301.369 58.6797 299.475 56.668 296.672 56.668C293.859 56.668 291.965 58.6797 291.965 61.9219C291.965 65.1543 293.859 67.1758 296.672 67.1758ZM296.672 65.6816C294.875 65.6816 293.693 64.3145 293.693 61.9219C293.693 59.5293 294.875 58.1621 296.672 58.1621C298.469 58.1621 299.641 59.5293 299.641 61.9219C299.641 64.3145 298.469 65.6816 296.672 65.6816ZM316.008 56.8438H314.328L312.297 65.1055H312.258L309.953 56.8438H308.312L306.018 65.1055H305.979L303.947 56.8438H302.258L305.1 67H306.828L309.113 59.1387H309.152L311.447 67H313.176L316.008 56.8438ZM317.492 67H319.191V56.8438H317.492V67ZM318.342 55.0371C318.938 55.0371 319.406 54.5586 319.406 53.9727C319.406 53.377 318.938 52.9082 318.342 52.9082C317.756 52.9082 317.277 53.377 317.277 53.9727C317.277 54.5586 317.756 55.0371 318.342 55.0371ZM321.486 67H323.186V61.0234C323.186 59.3047 324.23 58.1719 325.832 58.1719C327.395 58.1719 328.166 59.0703 328.166 60.7109V67H329.865V60.4082C329.865 58.1035 328.576 56.668 326.35 56.668C324.777 56.668 323.693 57.3711 323.127 58.4648H323.088V56.8438H321.486V67ZM336.164 65.584C334.416 65.584 333.273 64.1582 333.273 61.8828C333.273 59.6074 334.416 58.1621 336.164 58.1621C337.932 58.1621 339.113 59.6465 339.113 61.8828C339.113 64.1191 337.932 65.584 336.164 65.584ZM336.223 70.8281C339.025 70.8281 340.812 69.2168 340.812 66.7949V56.8438H339.191V58.5527H339.162C338.488 57.3711 337.297 56.668 335.861 56.668C333.234 56.668 331.535 58.6992 331.535 61.8828C331.535 65.0371 333.234 67.0781 335.822 67.0781C337.248 67.0781 338.449 66.3555 339.074 65.252H339.113V66.8535C339.113 68.3672 338.049 69.3828 336.291 69.3828C335.021 69.3828 334.016 68.7676 333.684 67.8398H331.936C332.219 69.5684 333.986 70.8281 336.223 70.8281ZM347.219 67H348.918V52.9082H347.219V67ZM351.301 67H353V56.8438H351.301V67ZM352.15 55.0371C352.746 55.0371 353.215 54.5586 353.215 53.9727C353.215 53.377 352.746 52.9082 352.15 52.9082C351.564 52.9082 351.086 53.377 351.086 53.9727C351.086 54.5586 351.564 55.0371 352.15 55.0371ZM355.295 67H356.994V61.0234C356.994 59.3047 358.039 58.1719 359.641 58.1719C361.203 58.1719 361.975 59.0703 361.975 60.7109V67H363.674V60.4082C363.674 58.1035 362.385 56.668 360.158 56.668C358.586 56.668 357.502 57.3711 356.936 58.4648H356.896V56.8438H355.295V67ZM367.629 61.3555V52.9082H365.93V67H367.629V63.1719L368.576 62.2734L372.346 67H374.318L369.777 61.2285L374.182 56.8438H372.121L367.629 61.3555Z" fill="white"/>
</svg>
