<svg width="39" height="39" viewBox="0 0 39 39" fill="none" xmlns="http://www.w3.org/2000/svg">
<path d="M19.5164 38.4868C15.7716 38.4868 12.1107 37.3837 8.99587 35.3167C5.88106 33.2498 3.45197 30.3117 2.01523 26.8734C0.57849 23.435 0.198505 19.6506 0.923245 15.9977C1.64798 12.3448 3.44496 8.98727 6.08733 6.34893C8.7297 3.71059 12.099 1.90972 15.7699 1.17365C19.4409 0.437577 23.2488 0.799301 26.7132 2.21316C30.1775 3.62702 33.1429 6.02963 35.235 9.1177C37.327 12.2058 38.4521 15.8409 38.468 19.5641C38.4786 22.0453 37.9963 24.5041 37.0486 26.7994C36.101 29.0948 34.7067 31.1814 32.9458 32.9396C31.1849 34.6978 29.0921 36.0929 26.7875 37.0449C24.4829 37.9968 22.012 38.4868 19.5164 38.4868ZM18.3874 12.5723C17.3635 12.6391 16.4009 13.0811 15.6859 13.8128C14.9708 14.5444 14.5541 15.5138 14.5164 16.5333C14.5164 18.4736 15.7099 19.7405 18.2422 20.2697L20.0164 20.6866C21.7422 21.0875 22.4519 21.6648 22.4519 22.643C22.4519 23.6213 21.2099 24.5834 19.597 24.5834C19.0244 24.6338 18.449 24.5237 17.9359 24.2659C17.4228 24.008 16.9926 23.6125 16.6938 23.1241C16.6097 22.9151 16.4617 22.7377 16.2707 22.6169C16.0797 22.496 15.8553 22.4379 15.6293 22.4506H14.6777C14.6045 22.4641 14.5347 22.4918 14.4724 22.5322C14.41 22.5726 14.3563 22.6249 14.3143 22.686C14.2724 22.7471 14.2429 22.8158 14.2278 22.8883C14.2127 22.9607 14.2121 23.0354 14.2261 23.1081C14.4579 24.0487 14.9968 24.8864 15.7586 25.4899C16.5203 26.0935 17.4618 26.4289 18.4357 26.4436V27.7907C18.4357 28.0884 18.5547 28.3739 18.7664 28.5844C18.9782 28.7949 19.2653 28.9132 19.5648 28.9132C19.7144 28.9153 19.8629 28.8879 20.0018 28.8324C20.1406 28.7769 20.267 28.6946 20.3736 28.5901C20.4801 28.4857 20.5647 28.3612 20.6225 28.224C20.6802 28.0867 20.71 27.9394 20.7099 27.7907V26.4276C21.8112 26.4152 22.8641 25.9758 23.6444 25.203C24.4246 24.4302 24.8706 23.3851 24.8874 22.2902C24.8874 20.2537 23.7099 19.083 20.9196 18.4897L19.3067 18.1369C17.6938 17.736 16.9357 17.2068 16.9357 16.3088C16.9357 15.4107 17.9035 14.4325 19.5164 14.4325C20.0244 14.3798 20.5368 14.4744 20.9919 14.7049C21.447 14.9353 21.8252 15.2919 22.0809 15.7315C22.183 15.9522 22.3467 16.1391 22.5526 16.2698C22.7585 16.4006 22.9979 16.4698 23.2422 16.4691H24.0003C24.1705 16.4236 24.3169 16.3155 24.4098 16.1665C24.5026 16.0176 24.535 15.8391 24.5003 15.6673C24.2817 14.7988 23.793 14.0212 23.1036 13.4452C22.4143 12.8693 21.5596 12.5245 20.6616 12.4601V11.3856C20.6616 11.0837 20.5409 10.7941 20.3261 10.5806C20.1114 10.367 19.8201 10.2471 19.5164 10.2471C19.3668 10.2471 19.2186 10.2766 19.0806 10.334C18.9425 10.3914 18.8173 10.4756 18.7123 10.5815C18.6072 10.6875 18.5244 10.8131 18.4686 10.9511C18.4128 11.0892 18.3852 11.2369 18.3874 11.3856V12.5723ZM5.30671 19.5641C5.30856 22.5181 6.24377 25.3968 7.98024 27.7937C9.71671 30.1907 12.1667 31.9846 14.9841 32.9222H15.2099C15.4024 32.9222 15.587 32.8462 15.7232 32.7109C15.8593 32.5755 15.9357 32.392 15.9357 32.2006V31.8639C15.9363 31.5653 15.8477 31.2734 15.6811 31.025C15.5146 30.7766 15.2776 30.583 15.0003 30.4687C12.8061 29.5882 10.9266 28.0757 9.60314 26.1256C8.27966 24.1755 7.57254 21.8766 7.57254 19.524C7.57254 17.1714 8.27966 14.8726 9.60314 12.9224C10.9266 10.9723 12.8061 9.45987 15.0003 8.57931C15.2776 8.46965 15.5152 8.27937 15.6821 8.03334C15.849 7.78731 15.9374 7.49695 15.9357 7.2002V6.83137C15.9318 6.65245 15.8597 6.48169 15.7339 6.35366C15.6081 6.22563 15.4381 6.14991 15.2583 6.14181C15.184 6.12524 15.1069 6.12524 15.0325 6.14181C12.1942 7.07249 9.72486 8.87211 7.97788 11.2831C6.23091 13.694 5.2959 16.5927 5.30671 19.5641ZM33.7261 19.5641C33.7208 16.6129 32.7841 13.7377 31.0478 11.344C29.3116 8.95026 26.8635 7.15873 24.0486 6.222H23.8067C23.6057 6.222 23.4128 6.3014 23.2707 6.44275C23.1285 6.5841 23.0486 6.7758 23.0486 6.9757V7.21624C23.0552 7.52553 23.1515 7.82634 23.3261 8.08242C23.5006 8.3385 23.746 8.53891 24.0325 8.6595C26.2019 9.55269 28.0561 11.0655 29.3607 13.0065C30.6653 14.9475 31.3616 17.2296 31.3616 19.5641C31.3616 21.8986 30.6653 24.1807 29.3607 26.1217C28.0561 28.0627 26.2019 29.5755 24.0325 30.4687C23.7514 30.5905 23.5111 30.7895 23.3397 31.0423C23.1683 31.2951 23.073 31.5912 23.0648 31.8959V32.1685C23.0625 32.2674 23.0806 32.3657 23.1181 32.4573C23.1556 32.5489 23.2116 32.6319 23.2827 32.701C23.3538 32.7702 23.4384 32.8241 23.5313 32.8594C23.6243 32.8947 23.7235 32.9106 23.8228 32.9062H24.0648C26.8753 31.9646 29.3185 30.1714 31.0514 27.7784C32.7842 25.3854 33.7196 22.5128 33.7261 19.5641Z" fill="#2992FA"/>
</svg>
