<svg width="130" height="24" viewBox="0 0 130 24" fill="none" xmlns="http://www.w3.org/2000/svg">
<path d="M18.1398 4.43343C16.3481 2.98138 14.1372 2.17773 11.9017 2.17773C9.41752 2.17773 7.05001 3.09858 5.24444 4.7835C3.43887 6.46842 2.35338 8.75151 2.2106 11.2142L2.19678 11.4729H3.33447L3.36057 11.2401C3.67378 6.80632 7.42771 3.34363 11.9002 3.34363C13.9268 3.34363 15.8107 4.00421 17.3415 5.27512L17.4336 5.35275L18.2442 4.5491L18.1398 4.43343Z" fill="white"/>
<path d="M17.0023 15.4671C15.8124 17.0744 13.9024 18.047 11.9019 18.047C8.43659 18.047 5.61155 15.2464 5.61155 11.8111C5.61155 8.40166 8.43659 5.61325 11.9019 5.61325C13.9162 5.61325 15.8247 6.57215 17.0023 8.19314L17.0944 8.31034L17.9189 7.49299L17.8529 7.40167C16.4404 5.55998 14.2172 4.45801 11.9019 4.45801C7.79481 4.45801 4.44775 7.75174 4.44775 11.7959C4.44775 15.8674 7.79635 19.1855 11.9019 19.1855C14.2172 19.1855 16.4404 18.0835 17.8529 16.2418L17.9189 16.1505L17.0944 15.3331L17.0023 15.4671Z" fill="white"/>
<path d="M19.4605 5.79587C19.2778 5.57517 19.0936 5.3423 18.8725 5.1216L18.7804 5.03027L17.9697 5.83392L18.0618 5.92524C18.2845 6.14594 18.4672 6.36664 18.6376 6.58582L18.7297 6.70302L19.5404 5.89937L19.4605 5.79587Z" fill="white"/>
<path d="M17.3814 18.3077L17.2893 18.3853C15.7463 19.6425 13.8762 20.3168 11.848 20.3168C7.37553 20.3168 3.62161 16.8419 3.3084 12.4204L3.29458 12.1357H2.14307L2.15688 12.4341C2.31349 14.8968 3.3867 17.1798 5.19073 18.8648C6.9963 20.5375 9.36228 21.4705 11.848 21.4705C14.1234 21.4705 16.3466 20.6669 18.0861 19.2148L18.1905 19.1235L17.3814 18.3077Z" fill="white"/>
<path d="M18.7165 16.9453L18.6244 17.0625C18.454 17.2832 18.2713 17.5039 18.0487 17.7231L17.9565 17.8144L18.7672 18.6181L18.8593 18.5267C19.0942 18.2939 19.2785 18.0732 19.4474 17.8525L19.5257 17.7611L18.7165 16.9453Z" fill="white"/>
<path d="M20.1545 18.5798C18.154 21.0425 15.1462 22.4565 11.902 22.4565C5.97711 22.4565 1.16533 17.6848 1.16533 11.8127C1.16533 5.9406 5.97711 1.16742 11.902 1.16742C15.1063 1.16742 18.114 2.57989 20.1545 5.0441L20.2466 5.1613L21.0573 4.35765L20.979 4.26633C18.7282 1.54337 15.4057 0 11.902 0C5.33534 0 0 5.28915 0 11.799C0 18.3088 5.33534 23.598 11.902 23.598C15.4195 23.598 18.7297 22.0546 20.9913 19.3712L21.0696 19.2799L20.2589 18.4763L20.1545 18.5798Z" fill="white"/>
<path d="M30.2127 11.5785H30.3432V11.3699C30.3432 11.1888 30.3571 10.994 30.3693 10.8129C30.3954 10.618 30.4354 10.4232 30.4876 10.2421C30.5398 10.061 30.6058 9.89202 30.6841 9.72307C30.7624 9.56782 30.8668 9.42475 30.985 9.30755C31.1032 9.19035 31.246 9.10055 31.4042 9.0351C31.5608 8.96965 31.7573 8.9316 31.9661 8.9316C32.201 8.9316 32.4114 8.97117 32.568 9.0488C32.7384 9.12642 32.8812 9.22992 32.9994 9.3593C33.1176 9.50237 33.2082 9.65762 33.2865 9.83875C33.3648 10.0336 33.417 10.2284 33.4431 10.4476L33.4569 10.5648H34.6867L34.6729 10.4217C34.633 10.0457 34.5424 9.70785 34.3981 9.39735C34.2676 9.08685 34.0849 8.8144 33.8484 8.5937C33.6135 8.36083 33.3387 8.19188 33.024 8.07468C32.7107 7.9453 32.3438 7.89355 31.9523 7.89355C31.6253 7.89355 31.312 7.9453 31.0495 8.03663C30.7885 8.12795 30.5398 8.25733 30.3294 8.42628C30.1206 8.59522 29.9364 8.79005 29.7798 9.00922C29.6354 9.22992 29.5049 9.4628 29.4005 9.72307C29.3084 9.98182 29.2301 10.2543 29.1779 10.5267C29.1257 10.8113 29.1119 11.0975 29.0996 11.3821V11.5769L30.2127 11.5785Z" fill="white"/>
<path d="M33.456 13.289L33.4421 13.4062C33.416 13.6269 33.3638 13.8339 33.2855 14.0151C33.2195 14.1962 33.1151 14.3514 32.9984 14.4823C32.8802 14.6117 32.7374 14.7152 32.567 14.7807C32.3966 14.8583 32.1878 14.8842 31.9528 14.8842C31.7302 14.8842 31.5475 14.8446 31.3909 14.7807C31.2343 14.7152 31.09 14.6117 30.9718 14.5082C30.8535 14.391 30.7491 14.2495 30.6708 14.0927C30.5925 13.9374 30.5265 13.7563 30.4743 13.5737C30.4221 13.3925 30.3822 13.1977 30.3561 13.0029C30.33 12.8081 30.33 12.6133 30.33 12.4321V12.2373H29.0879V12.4321C29.0879 12.7168 29.114 13.0029 29.1662 13.2875C29.2184 13.5722 29.2967 13.8446 29.3888 14.0912C29.4932 14.3499 29.6114 14.5843 29.7681 14.805C29.9247 15.0257 30.1074 15.2205 30.3177 15.388C30.5265 15.5569 30.7752 15.6863 31.0378 15.7776C31.3126 15.8689 31.6135 15.9207 31.9406 15.9207C32.3198 15.9207 32.6729 15.8552 32.9861 15.7396C33.2993 15.6102 33.5742 15.4412 33.8106 15.2205C34.0455 14.9998 34.2298 14.7274 34.3726 14.4291C34.5169 14.1307 34.6075 13.7807 34.6597 13.4306L34.6735 13.2875L33.456 13.289Z" fill="white"/>
<path d="M41.3667 13.3408H40.0063V15.8948H41.3667V13.3408Z" fill="white"/>
<path d="M43.7206 12.4592C43.891 12.3816 44.0477 12.2781 44.2043 12.1746C44.387 12.0452 44.5436 11.8763 44.6879 11.7073C44.8184 11.5262 44.9228 11.3314 45.0011 11.1107C45.0794 10.89 45.1193 10.6571 45.1193 10.3968C45.1193 9.99499 45.041 9.64491 44.8967 9.34659C44.7524 9.04827 44.5574 8.78952 44.3087 8.59469C44.0599 8.39987 43.7728 8.24462 43.4458 8.1533C43.1188 8.06197 42.7656 8.01022 42.4002 7.99805H40.0327V12.7438H42.5706L44.0753 15.829H45.3051H45.4356L43.7206 12.4592ZM43.7605 10.9417C43.6822 11.097 43.5778 11.2263 43.4473 11.3435C43.3168 11.447 43.1602 11.5384 42.9898 11.6023C42.8071 11.654 42.6228 11.6936 42.414 11.6936H41.2502V9.04979H42.3879C42.6106 9.04979 42.8071 9.08936 42.9898 9.14111C43.1725 9.19286 43.3291 9.28419 43.4611 9.39986C43.5917 9.50336 43.6838 9.64644 43.7621 9.81539C43.8404 9.98433 43.8665 10.1792 43.8665 10.3983C43.8649 10.5916 43.8266 10.7865 43.7605 10.9417Z" fill="white"/>
<path d="M54.3406 13.0045L56.8386 8H55.4399L53.7909 11.6164L52.1312 8H50.731L53.2428 13.0045H54.3406Z" fill="white"/>
<path d="M53.2037 15.8309H54.3675L54.3813 13.665H53.1914L53.2037 15.8309Z" fill="white"/>
<path d="M78.9274 7.95996H72.938V9.10151H78.9274V7.95996Z" fill="white"/>
<path d="M75.2915 15.856H76.5735V9.70996H75.2915V15.856Z" fill="white"/>
<path d="M96.0492 13.4062H94.8193V15.8309H96.0492V13.4062Z" fill="white"/>
<path d="M98.5209 12.4592C98.6913 12.3816 98.848 12.2781 99.0046 12.1746C99.1873 12.0452 99.3439 11.8763 99.4882 11.7073C99.6187 11.5262 99.7231 11.3314 99.8014 11.1107C99.8797 10.89 99.9196 10.6571 99.9196 10.3968C99.9196 9.99499 99.8413 9.64491 99.697 9.34659C99.5527 9.04827 99.3577 8.78952 99.109 8.59469C98.8602 8.39987 98.5731 8.24462 98.2461 8.1533C97.9191 8.06197 97.5659 8.01022 97.2005 7.99805H94.833V12.7438H97.3709L98.8756 15.829H100.105H100.236L98.5209 12.4592ZM98.5593 10.9417C98.481 11.097 98.3766 11.2263 98.2461 11.3435C98.1156 11.447 97.959 11.5384 97.7886 11.6023C97.6059 11.654 97.4216 11.6936 97.2128 11.6936H96.049V9.04979H97.1867C97.4093 9.04979 97.6059 9.08936 97.7886 9.14111C97.9713 9.19286 98.1279 9.28419 98.2599 9.39986C98.3904 9.50336 98.4825 9.64644 98.5608 9.81539C98.6391 9.97064 98.6652 10.1792 98.6652 10.3983C98.6637 10.6053 98.6253 10.7865 98.5593 10.9417Z" fill="white"/>
<path d="M105.517 7.95996V9.12738H107.309V15.8564H108.629V7.95996H105.517Z" fill="white"/>
<path d="M119.289 8H118.085L118.071 13.2511C118.057 13.4581 118.031 13.6666 117.967 13.8599C117.901 14.0548 117.81 14.2237 117.692 14.3789C117.574 14.522 117.431 14.6377 117.261 14.729C117.09 14.8066 116.894 14.8584 116.659 14.8584C116.436 14.8584 116.227 14.8188 116.057 14.729C115.887 14.6377 115.744 14.522 115.626 14.3789C115.507 14.2359 115.417 14.0548 115.351 13.8736C115.285 13.6788 115.259 13.4718 115.246 13.2648V12.2526H114.03V13.2633C114.03 13.6271 114.096 13.9771 114.227 14.3135C114.357 14.6377 114.54 14.9223 114.763 15.1689C114.985 15.4155 115.272 15.5966 115.587 15.7397C115.9 15.8827 116.267 15.9467 116.647 15.9467C117.026 15.9467 117.379 15.8812 117.706 15.7397C118.019 15.5966 118.308 15.4033 118.53 15.1689C118.765 14.9223 118.95 14.6377 119.066 14.3135C119.197 13.9893 119.263 13.6392 119.275 13.277L119.289 8Z" fill="white"/>
<path d="M115.247 8H114.071L114.057 11.5784H115.261L115.247 8Z" fill="white"/>
<path d="M128.575 8L127.332 11.5129L126.168 8H124.743V15.831H125.959V12.6803L125.893 10.5144L126.94 13.7169H127.685L128.849 10.3592L128.823 11.5784H130V8H128.575Z" fill="white"/>
<path d="M128.796 12.6806V15.8313H130V12.2529H128.81L128.796 12.6806Z" fill="white"/>
<path d="M67.3279 9.37442C67.1836 9.0761 66.9886 8.82952 66.7522 8.62252C66.5035 8.4277 66.2286 8.27245 65.9016 8.16895C65.5884 8.06545 65.2475 8.0137 64.8944 8H62.292V11.0852H63.5218V9.05022H64.8944C65.1032 9.05022 65.2997 9.08979 65.4702 9.15372C65.6406 9.21917 65.7972 9.30897 65.9154 9.42617C66.0459 9.54337 66.138 9.68492 66.2025 9.85387C66.2808 10.0228 66.3069 10.2176 66.3069 10.4246C66.3069 10.6316 66.267 10.8265 66.2025 10.9817C66.1365 11.137 66.0321 11.28 65.9154 11.3835C65.7849 11.5007 65.6406 11.5905 65.4702 11.6423C65.2997 11.7077 65.1032 11.7336 64.8944 11.7336H62.292V15.8173H63.5218V12.7838H64.8944C65.2475 12.7838 65.5869 12.7321 65.9016 12.6149C66.2286 12.5114 66.5035 12.3561 66.7522 12.1476C67.0009 11.9406 67.1974 11.694 67.3279 11.4079C67.4723 11.1096 67.5506 10.7732 67.5506 10.3835C67.5367 10.0228 67.4707 9.67274 67.3279 9.37442Z" fill="white"/>
<path d="M88.8563 12.3303V11.2542H85.6643V9.07609H89.3399V8H84.436V12.3303H85.5338H88.8563Z" fill="white"/>
<path d="M85.6624 14.7543V12.9902H84.4341V15.8304H89.3764V14.7543H85.6624Z" fill="white"/>
</svg>
