<svg width="121" height="21" viewBox="0 0 121 21" fill="none" xmlns="http://www.w3.org/2000/svg">
<path fill-rule="evenodd" clip-rule="evenodd" d="M2.00316 0L4.66373 4.45521L0 8.90322H8.06312L8.821 7.12052H4.37212L7.06412 4.44338L5.49168 1.78219H12.8278L6.38764 16.9953H8.59431L15.7955 0H2.00316Z" fill="#00C6FF"/>
<path fill-rule="evenodd" clip-rule="evenodd" d="M99.856 10.4219H101.695V20.1537H99.856V10.4219Z" fill="#232F49"/>
<path fill-rule="evenodd" clip-rule="evenodd" d="M99.7729 7.13184H101.779V9.10576H99.7729V7.13184Z" fill="#232F49"/>
<path fill-rule="evenodd" clip-rule="evenodd" d="M96.7063 7.13281L94.4203 17.2481H94.3374L91.9684 10.4232H90.3238L87.62 17.2481H87.5365L85.725 7.13281H83.7461L86.2258 20.154H88.0657L90.9926 12.9446H91.0755L93.613 20.154H95.4518L98.6013 7.13281H96.7063Z" fill="#232F49"/>
<path fill-rule="evenodd" clip-rule="evenodd" d="M71.1207 18.7286C69.337 18.7286 68.1108 17.3299 68.1108 15.3015C68.1108 13.4103 69.1695 11.7921 70.8981 11.7921C72.877 11.7921 73.4067 13.4376 73.4623 14.4523H70.0413L69.4009 15.9327H75.3295C75.3568 15.5482 75.3568 15.4393 75.3568 15.247C75.3568 12.4506 73.9358 10.2305 70.8697 10.2305C68.2221 10.2305 66.188 12.3679 66.188 15.3015C66.188 18.3174 68.1381 20.318 70.9254 20.318C72.5983 20.318 74.0749 19.7156 74.9673 18.6464L73.8523 17.5767C73.1279 18.3174 72.1799 18.7286 71.1207 18.7286Z" fill="#232F49"/>
<path fill-rule="evenodd" clip-rule="evenodd" d="M63.8458 10.2303C63.8458 9.02437 64.4311 8.33864 65.546 8.33864C65.9644 8.33864 66.6331 8.44865 67.1628 8.6409L67.7475 7.29719C67.0231 6.94096 66.1591 6.80371 65.4904 6.80371C63.6227 6.80371 62.0065 7.73567 62.0065 10.2303V10.5321H60.7803V12.0675H62.0065V20.1539H63.8458V12.0675H65.7129L66.3544 10.5321H63.8458V10.2303Z" fill="#232F49"/>
<path fill-rule="evenodd" clip-rule="evenodd" d="M47.2623 10.2295C46.0361 10.2295 44.9212 10.6962 44.3637 11.6554H44.2808V10.4217H42.4966V20.1531H44.3359V14.8908C44.3359 12.9714 45.3117 11.8194 46.845 11.8194C48.2933 11.8194 49.1578 12.5869 49.1578 14.3686V20.1531H50.9971V14.0401C50.9971 11.5732 49.5483 10.2295 47.2623 10.2295Z" fill="#232F49"/>
<path fill-rule="evenodd" clip-rule="evenodd" d="M38.5387 16.398C38.5387 17.8502 37.3403 18.7826 35.6679 18.7826C34.6648 18.7826 33.8007 18.3169 33.8007 17.165C33.8007 16.0968 34.6926 15.3838 36.0584 15.3838C37.2846 15.3838 38.093 15.6028 38.5387 15.9318V16.398ZM35.9466 10.2295C34.86 10.2295 33.8286 10.3935 33.0485 10.6952L33.3551 12.1767C34.2469 11.9022 34.9713 11.7922 35.6962 11.7922C37.2568 11.7922 38.5387 12.5052 38.5387 14.0951V14.3691C38.0374 14.1779 37.2568 13.9306 36.1141 13.9306C33.6055 13.9306 31.9614 15.1915 31.9614 17.2477C31.9614 19.3861 33.5777 20.3453 35.3892 20.3453C36.8946 20.3453 37.9256 19.7429 38.4557 19.0294H38.5387V20.1541H40.3229V14.0678C40.3229 11.4092 38.5948 10.2295 35.9466 10.2295Z" fill="#232F49"/>
<path fill-rule="evenodd" clip-rule="evenodd" d="M15.7954 7.13281V8.88775H19.9202V20.154H21.8719V8.88775H25.9967V7.13281H15.7954Z" fill="#232F49"/>
<path fill-rule="evenodd" clip-rule="evenodd" d="M32.0447 10.6138C31.4594 10.3671 30.8185 10.3398 30.4558 10.3398C29.4243 10.3398 28.4217 10.7511 27.8916 11.4903H27.8081V10.4221H26.0244V20.1539H27.8642V14.8357C27.8642 12.7795 28.8674 11.957 30.3445 11.957C30.8463 11.957 31.1807 12.012 31.6269 12.1215L32.0447 10.6138Z" fill="#232F49"/>
<path fill-rule="evenodd" clip-rule="evenodd" d="M83.2444 10.6416C82.6591 10.3954 82.0182 10.3398 81.6554 10.3398C80.6245 10.3398 79.5096 10.7511 78.981 11.4918H78.896V10.4221H77.1128V20.1539H78.9526V14.8362C78.9526 12.78 80.067 11.958 81.5442 11.958C82.046 11.958 82.3804 12.012 82.8265 12.122L83.2444 10.6416Z" fill="#232F49"/>
<path fill-rule="evenodd" clip-rule="evenodd" d="M116.764 18.7286C114.98 18.7286 113.754 17.3299 113.754 15.3015C113.754 13.4103 114.813 11.7921 116.541 11.7921C118.52 11.7921 119.049 13.4376 119.105 14.4523H115.684L115.043 15.9327H120.973C121 15.5482 121 15.4393 121 15.247C121 12.4506 119.579 10.2305 116.513 10.2305C113.865 10.2305 111.831 12.3679 111.831 15.3015C111.831 18.3174 113.781 20.318 116.568 20.318C118.241 20.318 119.719 19.7156 120.61 18.6464L119.495 17.5767C118.771 18.3174 117.823 18.7286 116.764 18.7286Z" fill="#232F49"/>
<path fill-rule="evenodd" clip-rule="evenodd" d="M56.6282 14.5355C55.2067 14.3433 54.3705 14.0688 54.3705 13.1368C54.3705 12.2871 55.2067 11.7664 56.2382 11.7664C57.0739 11.7664 58.1332 12.0959 58.8014 12.5894L59.6937 11.2729C58.8581 10.5872 57.52 10.2314 56.2655 10.2314C54.1196 10.2314 52.5307 11.5201 52.5307 13.2191C52.5307 15.1663 53.7853 15.7965 55.9038 16.1255C57.1022 16.3172 58.1332 16.4544 58.1332 17.4686C58.1332 18.3184 57.2964 18.7846 56.1825 18.7846C55.0954 18.7846 54.1196 18.4829 53.1716 17.7426L52.3638 19.1953C53.0603 19.826 54.5102 20.3195 56.1264 20.3195C58.3562 20.3195 59.9725 19.0313 59.9725 17.3042C59.9725 15.2207 58.3006 14.755 56.6282 14.5355Z" fill="#232F49"/>
<path fill-rule="evenodd" clip-rule="evenodd" d="M107.525 14.5385C106.104 14.3462 105.267 14.0717 105.267 13.1397C105.267 12.29 106.104 11.7693 107.136 11.7693C107.971 11.7693 109.031 12.0988 109.699 12.5923L110.591 11.2753C109.755 10.5901 108.417 10.2344 107.163 10.2344C105.017 10.2344 103.429 11.5226 103.429 13.222C103.429 15.1687 104.683 15.7989 106.8 16.1279C107.999 16.3201 109.031 16.4569 109.031 17.4711C109.031 18.3208 108.194 18.7875 107.079 18.7875C105.992 18.7875 105.017 18.4858 104.069 17.7451L103.262 19.1988C103.958 19.829 105.407 20.3225 107.024 20.3225C109.253 20.3225 110.869 19.0338 110.869 17.3071C110.869 15.2237 109.198 14.7574 107.525 14.5385Z" fill="#232F49"/>
</svg>
