<svg width="104" height="17" viewBox="0 0 104 17" fill="none" xmlns="http://www.w3.org/2000/svg">
<path d="M5.23644 7.40028H2.16037L0.666016 0.429688H3.13618L3.77613 4.72763L4.42516 0.429688H7.31628L7.96531 4.84074L8.62001 0.429688H10.9869L9.51185 7.40028H6.48571L5.85597 2.88856L5.23644 7.40028Z" fill="black"/>
<path d="M76.565 16.038H69.6889L66.3496 0.429688H71.872L73.3017 10.0435L74.7529 0.429688H81.0855L82.5367 10.2991L83.9993 0.429688H89.4207L86.1359 16.038H79.3585L77.9504 5.93559L76.565 16.038Z" fill="black"/>
<path d="M12.6436 7.40141V0.429688H17.9549V2.22125H15.3236V2.97679H17.7643V4.76835H15.3236V5.59062H18.0468V7.40028L12.6436 7.40141Z" fill="black"/>
<path d="M35.8906 7.40141V0.429688H41.2009V2.22125H38.5696V2.97679H41.0136V4.76835H38.5696V5.59062H41.2928V7.40028L35.8906 7.40141Z" fill="black"/>
<path d="M19.7363 5.36816H22.3539V5.42585C22.3396 5.62098 22.4028 5.8139 22.5298 5.96309C22.5997 6.02694 22.682 6.07592 22.7715 6.10704C22.861 6.13815 22.956 6.15075 23.0506 6.14405C23.2238 6.1541 23.3954 6.10547 23.5374 6.00607C23.5949 5.96175 23.6409 5.9043 23.6715 5.83856C23.7021 5.77282 23.7164 5.70071 23.7132 5.6283C23.7161 5.52296 23.6931 5.41852 23.6463 5.32405C23.6033 5.24212 23.5348 5.17626 23.4511 5.1363C23.1706 5.0245 22.8815 4.93561 22.5865 4.87051C22.1519 4.7574 21.8081 4.66805 21.554 4.59114C20.9413 4.40112 20.495 4.15192 20.2151 3.84352C19.9296 3.51923 19.7794 3.09838 19.7953 2.66724C19.784 2.34073 19.8586 2.01696 20.0116 1.72808C20.1647 1.4392 20.3909 1.19525 20.6678 1.02045C21.2488 0.629863 22.0646 0.43457 23.1153 0.43457C24.0744 0.43457 24.8063 0.602718 25.3108 0.939014C25.5535 1.09307 25.7513 1.30802 25.8844 1.56233C26.0174 1.81663 26.081 2.10133 26.0688 2.38787V2.53717H23.6531C23.6502 2.36125 23.5846 2.19208 23.4682 2.05987C23.4066 2.00537 23.3347 1.96361 23.2568 1.93701C23.1789 1.91041 23.0965 1.8995 23.0143 1.90492C22.8634 1.89789 22.7148 1.94393 22.5945 2.03499C22.5438 2.07572 22.5033 2.1275 22.4759 2.18633C22.4486 2.24516 22.4352 2.30948 22.4367 2.3743C22.4367 2.63444 22.7314 2.83388 23.3207 2.97262C23.5355 3.02013 23.7068 3.06197 23.8347 3.09817C24.818 3.35454 25.4841 3.64295 25.8328 3.96341C26.1815 4.28387 26.3555 4.72649 26.3547 5.29125C26.3653 5.64419 26.2879 5.99423 26.1295 6.31005C25.9711 6.62586 25.7366 6.89759 25.447 7.10091C24.8456 7.54654 24.0264 7.76936 22.9893 7.76936C21.9386 7.76936 21.1319 7.58349 20.5691 7.21176C20.301 7.04516 20.0817 6.81107 19.9333 6.53307C19.7849 6.25508 19.7126 5.94301 19.7238 5.6283C19.7238 5.56044 19.7238 5.50841 19.7238 5.47109C19.7238 5.43376 19.7329 5.39644 19.7363 5.36816Z" fill="black"/>
<path d="M34.0671 0.429688V2.29138H32.3424V7.39801H29.5852V2.29138H27.856V0.429688H34.0671Z" fill="black"/>
<path d="M43.2695 7.36862V0.429688H46.9005C47.9655 0.429688 48.7106 0.563904 49.1357 0.832338C49.5609 1.10077 49.7731 1.55319 49.7723 2.18959C49.7863 2.56519 49.6611 2.9328 49.4205 3.22222C49.1853 3.49292 48.8351 3.68784 48.3699 3.80697C48.8033 3.87597 49.1131 4.01734 49.2969 4.23111C49.4807 4.44488 49.6112 4.82943 49.6849 5.38816L49.7848 6.1437C49.7973 6.26924 49.8222 6.4242 49.8574 6.60743C49.8926 6.79065 49.947 7.04401 50.0208 7.36748H47.3078C47.2465 7.13449 47.2011 6.94674 47.1705 6.80196C47.1399 6.65719 47.1172 6.52486 47.1013 6.40271L47.0332 5.89487C46.9663 5.44246 46.8755 5.14725 46.7632 5.02397C46.6508 4.90069 46.4613 4.84074 46.1958 4.84074H46.0472C46.0129 4.84245 45.9788 4.84661 45.9451 4.85318V7.36862H43.2695ZM45.9496 3.29687C45.974 3.30052 45.9987 3.30278 46.0234 3.30366H46.1425C46.3978 3.31957 46.6515 3.25465 46.8676 3.11817C46.9502 3.05754 47.0166 2.9775 47.0607 2.88515C47.1048 2.79281 47.1254 2.69102 47.1206 2.58884C47.1277 2.49975 47.1124 2.41029 47.0762 2.32854C47.0399 2.24679 46.9838 2.17533 46.9129 2.12059C46.7745 2.02257 46.5544 1.97318 46.2526 1.97243H46.0744L45.9496 1.97921V3.29687Z" fill="black"/>
<path d="M54.137 3.09668V7.3539H51.9062V0.429688H55.2081L56.7331 4.57494V0.429688H58.965V7.3539H55.662L54.137 3.09668Z" fill="black"/>
<path d="M54.137 11.6522V15.9501H51.9062V8.96484H55.2081L56.7331 13.1429V8.96484H58.965V15.9445H55.662L54.137 11.6522Z" fill="black"/>
<path d="M30.746 11.6511V15.94H28.5142V8.96484H31.816L33.3422 13.1406V8.96484H35.5786V15.94H32.2767L30.746 11.6511Z" fill="black"/>
<path d="M19.6401 8.97168H22.3202V13.3296C22.3053 13.5668 22.3618 13.8032 22.4825 14.0082C22.5372 14.0815 22.6085 14.1409 22.6907 14.1816C22.7728 14.2222 22.8634 14.2429 22.9551 14.2421C23.0468 14.2412 23.137 14.2187 23.2183 14.1765C23.2996 14.1343 23.3698 14.0735 23.4231 13.9991C23.546 13.7948 23.6041 13.5583 23.5899 13.3205V8.97168H26.2802V13.2199C26.2802 14.2137 26.0101 14.9473 25.47 15.4209C24.9299 15.8944 24.0914 16.1308 22.9545 16.13C22.4052 16.144 21.8569 16.0746 21.3285 15.9242C20.9242 15.8021 20.5581 15.5786 20.2653 15.275C20.0493 15.0513 19.8855 14.7829 19.7854 14.4889C19.6878 14.2001 19.6394 13.7771 19.6401 13.2199V8.97168Z" fill="black"/>
<path d="M40.6208 8.97168V15.9366H37.8613V8.97168H40.6208Z" fill="black"/>
<path d="M46.1843 16.1292C45.055 16.1292 44.1813 15.8099 43.5633 15.1712C42.9452 14.5325 42.6362 13.6345 42.6362 12.4771C42.6362 11.3 42.9517 10.3914 43.5825 9.75127C44.2134 9.1111 45.1098 8.79102 46.2717 8.79102C47.4268 8.79102 48.3175 9.11034 48.9438 9.74901C49.5702 10.3877 49.883 11.2925 49.8822 12.4635C49.8822 13.6534 49.5668 14.562 48.9359 15.1893C48.305 15.8167 47.3878 16.13 46.1843 16.1292ZM46.2615 10.6335C46.1316 10.627 46.003 10.6615 45.894 10.7322C45.785 10.8029 45.7011 10.9061 45.6544 11.0271C45.5364 11.288 45.4774 11.7758 45.4774 12.4906C45.4774 13.1602 45.5364 13.6277 45.6544 13.8931C45.6992 14.0139 45.7811 14.1175 45.8885 14.1891C45.9959 14.2606 46.1233 14.2964 46.2524 14.2913C46.3854 14.2957 46.5163 14.2573 46.6257 14.1817C46.7351 14.1061 46.817 13.9974 46.8595 13.8716C46.979 13.5911 47.0387 13.0886 47.0387 12.364C47.0387 11.708 46.9805 11.2555 46.864 11.0067C46.8151 10.8897 46.7307 10.7908 46.6227 10.7239C46.5147 10.657 46.3884 10.6254 46.2615 10.6335Z" fill="black"/>
<path d="M65.5687 15.9441H64.6406L61.375 0.429688H62.3032L65.5687 15.9441Z" fill="black"/>
<path d="M68.0878 15.9441H67.1596L63.894 0.429688H64.8222L68.0878 15.9441Z" fill="black"/>
<path d="M93.9104 0.429997V10.1784C93.9104 10.8186 93.7863 11.3193 93.5382 11.6804C93.42 11.8468 93.2639 11.9829 93.0827 12.0775C92.9015 12.1721 92.7004 12.2225 92.4958 12.2246C92.2913 12.2267 92.0892 12.1805 91.9061 12.0896C91.723 11.9987 91.5641 11.8659 91.4425 11.7019C91.2004 11.3543 91.0798 10.8465 91.0805 10.1784V0.429997H89.9084L86.8652 14.853C87.4519 15.3551 88.1359 15.7316 88.8747 15.9592C89.8294 16.2608 91.0374 16.4135 92.4988 16.4172C95.0337 16.4172 96.9025 15.8894 98.1052 14.8338C99.308 13.7781 99.9097 12.143 99.9105 9.92846V0.427734L93.9104 0.429997Z" fill="black"/>
<path d="M85.1064 0.429688V9.93042C85.1064 11.1738 85.2142 12.1163 85.4298 12.758C85.6448 13.3924 85.9929 13.9739 86.451 14.4636L89.4204 0.429688H85.1064Z" fill="black"/>
<path d="M101.124 1.65596L101.417 1.63673C101.42 1.67709 101.434 1.71601 101.456 1.74984C101.472 1.77085 101.492 1.78765 101.516 1.79871C101.54 1.80977 101.566 1.81474 101.592 1.81318C101.629 1.81584 101.665 1.80452 101.694 1.78151C101.705 1.772 101.714 1.76023 101.721 1.74696C101.727 1.7337 101.73 1.71925 101.731 1.7046C101.73 1.69067 101.727 1.67696 101.721 1.66432C101.715 1.65167 101.707 1.64036 101.697 1.63108C101.649 1.59945 101.594 1.5786 101.538 1.57C101.432 1.55203 101.333 1.50811 101.248 1.4422C101.22 1.41671 101.197 1.38526 101.182 1.35009C101.167 1.31491 101.16 1.27685 101.161 1.23861C101.161 1.18423 101.176 1.13095 101.205 1.08479C101.238 1.03443 101.285 0.995025 101.34 0.971685C101.418 0.940162 101.502 0.925882 101.585 0.929836C101.689 0.922741 101.791 0.949341 101.878 1.00562C101.914 1.03482 101.943 1.07116 101.963 1.11228C101.984 1.1534 101.995 1.19837 101.997 1.24426L101.707 1.26236C101.703 1.22355 101.685 1.18728 101.658 1.15944C101.629 1.13574 101.592 1.124 101.555 1.12664C101.526 1.12464 101.497 1.13308 101.474 1.15039C101.465 1.15735 101.458 1.16628 101.453 1.17649C101.448 1.18669 101.446 1.19788 101.446 1.2092C101.446 1.21792 101.448 1.22647 101.452 1.23427C101.456 1.24208 101.462 1.24896 101.468 1.25444C101.5 1.275 101.536 1.28815 101.573 1.2929C101.673 1.31261 101.771 1.34412 101.863 1.38678C101.915 1.41114 101.958 1.4499 101.987 1.49831C102.017 1.54672 102.032 1.60268 102.03 1.65935C102.031 1.7261 102.012 1.79162 101.976 1.84801C101.94 1.9044 101.889 1.94926 101.828 1.97718C101.752 2.00914 101.67 2.02419 101.588 2.02129C101.525 2.02825 101.461 2.02263 101.401 2.00476C101.34 1.98689 101.284 1.95713 101.235 1.91723C101.168 1.84587 101.129 1.75337 101.124 1.65596Z" fill="black"/>
<path d="M102.184 0.950195H102.591L102.751 1.59263L102.906 0.950195H103.313V2.00545H103.06V1.20016L102.864 2.00545H102.637L102.442 1.20016V2.00545H102.184V0.950195Z" fill="black"/>
</svg>
