<svg width="49" height="49" viewBox="0 0 49 49" fill="none" xmlns="http://www.w3.org/2000/svg">
<rect x="0.83252" y="0.241211" width="48" height="48" rx="7" fill="#FCD846"/>
<path d="M34.4859 14.1898C34.4745 14.1841 34.4638 14.1771 34.454 14.1691C31.9415 12.1143 28.9741 11.0869 25.8928 11.0869C22.4624 11.0869 19.1463 12.3476 16.745 14.7542C14.2294 17.1609 12.7429 20.2552 12.5142 23.6934C12.5142 23.8832 12.6681 24.0372 12.858 24.0372H13.7712C13.9611 24.0372 14.115 23.8832 14.115 23.6934C14.5724 17.5047 19.718 12.6914 25.8928 12.6914C28.6371 12.6914 31.2671 13.6082 33.4397 15.3273C33.5028 15.3905 33.6053 15.3905 33.6684 15.3273L34.5303 14.4634C34.6126 14.3809 34.5901 14.242 34.4859 14.1898Z" fill="black"/>
<path d="M32.8775 29.5099C32.8713 29.5287 32.8623 29.5465 32.8509 29.5627C31.2485 31.8392 28.627 33.0909 25.7786 33.0909C20.976 33.0909 17.0882 29.1944 17.0882 24.381C17.0882 19.6822 20.976 15.7857 25.7786 15.7857C28.5229 15.7857 31.1529 17.161 32.8681 19.3384C32.9312 19.4017 33.0337 19.4017 33.0968 19.3384L34.0116 18.4216C34.0747 18.3583 34.0747 18.2557 34.0116 18.1924C32.0677 15.6711 28.9803 14.0667 25.7786 14.0667C20.1755 14.0667 15.4873 18.6508 15.4873 24.2664C15.4873 29.882 20.0612 34.5808 25.7786 34.5808C28.9766 34.5808 32.0606 33.0943 34.0049 30.4641C34.0093 30.4581 34.0142 30.4524 34.0195 30.4471C34.0783 30.3881 34.0783 30.2927 34.0195 30.2338L33.2173 29.4298C33.1095 29.3217 32.9257 29.3651 32.8775 29.5099Z" fill="black"/>
<path d="M36.3088 16.0252C36.3019 16.0183 36.2958 16.0108 36.2904 16.0027C36.0671 15.667 35.8425 15.3326 35.5101 15.1062C35.5021 15.1007 35.4946 15.0945 35.4878 15.0877C35.4303 15.0301 35.3371 15.0301 35.2796 15.0877L34.3546 16.0148C34.2914 16.0782 34.2914 16.1807 34.3546 16.244C34.6936 16.5838 34.9209 16.8116 35.1469 17.1487C35.1523 17.1567 35.1585 17.1643 35.1653 17.1712C35.2227 17.2287 35.316 17.2287 35.3734 17.1712L36.3088 16.2337C36.3663 16.1761 36.3663 16.0828 36.3088 16.0252Z" fill="black"/>
<path d="M33.4289 33.559C33.3734 33.4922 33.2724 33.4877 33.2111 33.5492C31.0385 35.2682 28.5229 36.2996 25.6642 36.2996C19.4894 36.2996 14.3438 31.4863 13.8864 25.2977C13.8864 25.1078 13.7325 24.9539 13.5426 24.9539H12.8583C12.6051 24.9539 12.3999 25.1591 12.3999 25.4123C12.6286 28.8504 14.1151 32.0593 16.6307 34.3514C19.1464 36.6435 22.3481 38.0187 25.7785 38.0187C28.8659 38.0187 31.9533 36.8727 34.3546 34.9244C34.4194 34.8595 34.4241 34.7559 34.3654 34.6853L33.4289 33.559Z" fill="black"/>
<path d="M35.3734 31.7056C35.316 31.6481 35.2227 31.6481 35.1653 31.7056C35.1585 31.7125 35.1523 31.72 35.1469 31.7281C34.9209 32.0652 34.6936 32.293 34.3546 32.6328C34.2914 32.6961 34.2914 32.7986 34.3546 32.862L35.2694 33.7788C35.3325 33.842 35.4349 33.842 35.4981 33.7788C35.8411 33.435 36.0698 33.0912 36.2985 32.862C36.3617 32.7986 36.3617 32.6961 36.2985 32.6328L35.3734 31.7056Z" fill="black"/>
<path d="M37.2135 33.8929C34.4692 37.3311 30.3527 39.2793 25.8931 39.2793C17.7745 39.2793 11.1424 32.6323 11.1424 24.4954C11.1424 16.3585 17.6602 9.59689 25.8931 9.59689C30.3527 9.59689 34.4692 11.5452 37.2135 14.9833C37.2766 15.0465 37.3791 15.0465 37.4422 14.9833L38.4039 14.0195C38.4288 13.9945 38.4111 13.9518 38.3758 13.9518C38.3639 13.9518 38.3526 13.9465 38.3451 13.9372C35.2578 10.1643 30.6895 7.99243 25.8931 7.99243C16.8597 7.99243 9.5415 15.3271 9.5415 24.3808C9.5415 33.4345 16.8597 40.7692 25.8931 40.7692C30.6957 40.7692 35.2696 38.5917 38.4713 34.9244C38.5345 34.861 38.5345 34.7585 38.4713 34.6952L37.6709 33.8929C37.5447 33.7664 37.3397 33.7664 37.2135 33.8929Z" fill="black"/>
</svg>
