<svg width="46" height="48" viewBox="0 0 46 48" fill="none" xmlns="http://www.w3.org/2000/svg">
<path d="M11.3991 23.5661L16.4601 25.5005L18.4192 31.9516C18.5443 32.3649 19.038 32.5176 19.3654 32.2434L22.1864 29.8883C22.4821 29.6416 22.9032 29.6292 23.2124 29.8591L28.3006 33.6422C28.6509 33.9028 29.1471 33.7063 29.2351 33.2729L32.9626 14.9122C33.0584 14.4389 32.604 14.0435 32.1637 14.2181L11.3934 22.4232C10.8807 22.6256 10.885 23.3688 11.3991 23.5661ZM18.1035 24.4707L27.9946 18.2322C28.1723 18.1206 28.3553 18.3666 28.2027 18.5116L20.0393 26.2821C19.7527 26.5556 19.5674 26.9216 19.5149 27.3188L19.2371 29.4289C19.2003 29.7108 18.8139 29.7387 18.7377 29.4662L17.6684 25.618C17.5458 25.179 17.7243 24.7104 18.1035 24.4707Z" fill="white"/>
</svg>
