<svg width="47" height="48" viewBox="0 0 47 48" fill="none" xmlns="http://www.w3.org/2000/svg">
<path d="M34.2375 17.4148C33.4524 17.7738 32.6069 18.0174 31.7213 18.1261C32.6261 17.566 33.3201 16.6808 33.6489 15.6257C32.8017 16.1427 31.8634 16.5194 30.8659 16.7221C30.0665 15.8431 28.9272 15.2949 27.6667 15.2949C25.2461 15.2949 23.2854 17.3196 23.2854 19.8145C23.2854 20.1684 23.3234 20.5144 23.3986 20.8452C19.7574 20.656 16.528 18.8567 14.3676 16.1212C13.9893 16.7895 13.774 17.5661 13.774 18.3941C13.774 19.9628 14.5477 21.347 15.722 22.1569C15.004 22.1337 14.3292 21.9298 13.7372 21.5905C13.7372 21.6103 13.7372 21.6285 13.7372 21.6483C13.7372 23.8373 15.2482 25.6643 17.2522 26.0794C16.8854 26.1831 16.4978 26.2391 16.0987 26.2391C15.8164 26.2391 15.5419 26.2109 15.2736 26.1582C15.8324 27.954 17.4503 29.2607 19.3682 29.2969C17.8683 30.51 15.9791 31.231 13.9256 31.231C13.571 31.231 13.2218 31.2112 12.8804 31.1687C14.819 32.4509 17.1216 33.1997 19.5961 33.1997C27.6557 33.1997 32.0644 26.3112 32.0644 20.3384C32.0644 20.1424 32.0595 19.9482 32.0517 19.7539C32.9083 19.1167 33.6505 18.3203 34.2375 17.4148Z" fill="white"/>
</svg>
